<?xml version="1.0" encoding="UTF-8" standalone="no"?>
<!-- Created with Inkscape (http://www.inkscape.org/) -->

<svg
   width="370"
   height="80"
   viewBox="0 0 370 80.000001"
   version="1.1"
   id="svg1"
   inkscape:version="1.3.2 (091e20e, 2023-11-25, custom)"
   sodipodi:docname="Button Links.svg"
   xmlns:inkscape="http://www.inkscape.org/namespaces/inkscape"
   xmlns:sodipodi="http://sodipodi.sourceforge.net/DTD/sodipodi-0.dtd"
   xmlns="http://www.w3.org/2000/svg"
   xmlns:svg="http://www.w3.org/2000/svg">
  <sodipodi:namedview
     id="namedview1"
     pagecolor="#ffffff"
     bordercolor="#000000"
     borderopacity="0.25"
     inkscape:showpageshadow="2"
     inkscape:pageopacity="0.0"
     inkscape:pagecheckerboard="0"
     inkscape:deskcolor="#d1d1d1"
     inkscape:document-units="px"
     showgrid="true"
     inkscape:zoom="1.3759916"
     inkscape:cx="597.024"
     inkscape:cy="369.18831"
     inkscape:window-width="2558"
     inkscape:window-height="1368"
     inkscape:window-x="-7"
     inkscape:window-y="1080"
     inkscape:window-maximized="0"
     inkscape:current-layer="layer1"
     showguides="false">
    <inkscape:page
       x="0"
       y="300"
       width="370"
       height="80"
       id="page4"
       inkscape:label="X-Twitter" />
    <inkscape:grid
       id="grid1"
       units="px"
       originx="-310"
       originy="-260"
       spacingx="1"
       spacingy="1"
       empcolor="#0099e5"
       empopacity="0.30196078"
       color="#0099e5"
       opacity="0.14901961"
       empspacing="5"
       dotted="false"
       gridanglex="30"
       gridanglez="30"
       visible="true" />
    <inkscape:page
       x="0"
       y="0"
       width="370"
       height="80"
       id="page1"
       inkscape:label="BlueSky" />
    <inkscape:page
       x="0"
       y="100"
       width="370"
       height="80"
       id="page2"
       inkscape:label="Mastodon" />
    <inkscape:page
       x="0"
       y="200"
       width="370"
       height="80"
       id="page3"
       inkscape:label="Threads" />
    <sodipodi:guide
       position="-20,80"
       orientation="0,-1"
       id="guide1"
       inkscape:locked="false" />
    <sodipodi:guide
       position="-20,1e-06"
       orientation="0,-1"
       id="guide2"
       inkscape:locked="false" />
    <sodipodi:guide
       position="-20,-19.999999"
       orientation="0,-1"
       id="guide3"
       inkscape:locked="false" />
    <sodipodi:guide
       position="-20,-99.999999"
       orientation="0,-1"
       id="guide4"
       inkscape:locked="false" />
    <sodipodi:guide
       position="0,100"
       orientation="1,0"
       id="guide5"
       inkscape:locked="false" />
    <sodipodi:guide
       position="-20,-120"
       orientation="0,-1"
       id="guide6"
       inkscape:locked="false" />
    <sodipodi:guide
       position="-20,-200"
       orientation="0,-1"
       id="guide7"
       inkscape:locked="false" />
    <sodipodi:guide
       position="-20,-220"
       orientation="0,-1"
       id="guide8"
       inkscape:locked="false" />
    <sodipodi:guide
       position="-20,-300"
       orientation="0,-1"
       id="guide9"
       inkscape:locked="false" />
    <sodipodi:guide
       position="-20,-320"
       orientation="0,-1"
       id="guide10"
       inkscape:locked="false" />
    <sodipodi:guide
       position="-20,-400"
       orientation="0,-1"
       id="guide11"
       inkscape:locked="false" />
    <sodipodi:guide
       position="370,100"
       orientation="1,0"
       id="guide12"
       inkscape:locked="false" />
    <sodipodi:guide
       position="-20,-420"
       orientation="0,-1"
       id="guide13"
       inkscape:locked="false" />
    <sodipodi:guide
       position="-20,-500"
       orientation="0,-1"
       id="guide14"
       inkscape:locked="false" />
    <sodipodi:guide
       position="410,100"
       orientation="1,0"
       id="guide15"
       inkscape:locked="false" />
    <sodipodi:guide
       position="780,100"
       orientation="1,0"
       id="guide16"
       inkscape:locked="false" />
    <inkscape:page
       x="0"
       y="400"
       width="370"
       height="80"
       id="page16"
       inkscape:label="Facebook" />
    <inkscape:page
       x="0"
       y="500"
       width="370"
       height="80"
       id="page17"
       inkscape:label="Instagram" />
    <inkscape:page
       x="410"
       y="0"
       width="370"
       height="80"
       id="page18"
       inkscape:label="Snapchat" />
    <inkscape:page
       x="410"
       y="100"
       width="370"
       height="80"
       id="page19"
       inkscape:label="TikTok" />
    <inkscape:page
       x="410"
       y="200"
       width="370"
       height="80"
       id="page20"
       inkscape:label="Twitch" />
    <inkscape:page
       x="410"
       y="300"
       width="370"
       height="80"
       id="page21"
       inkscape:label="YouTube" />
    <inkscape:page
       x="410"
       y="400"
       width="370"
       height="80"
       id="page22"
       inkscape:label="Blog" />
    <inkscape:page
       x="410"
       y="500"
       width="370"
       height="80"
       id="page23"
       inkscape:label="Discord" />
    <sodipodi:guide
       position="820.00001,100"
       orientation="1,0"
       id="guide35"
       inkscape:locked="false" />
    <sodipodi:guide
       position="1190,100"
       orientation="1,0"
       id="guide36"
       inkscape:locked="false" />
    <inkscape:page
       x="820"
       y="0"
       width="370"
       height="80"
       id="page36"
       inkscape:label="Apple Music" />
    <inkscape:page
       x="820"
       y="100"
       width="370"
       height="80"
       id="page37"
       inkscape:label="Bandcamp" />
    <inkscape:page
       x="820"
       y="200"
       width="370"
       height="80"
       id="page38"
       inkscape:label="Soundcloud" />
    <inkscape:page
       x="820"
       y="300"
       width="370"
       height="80"
       id="page39"
       inkscape:label="Spotify" />
    <inkscape:page
       x="820"
       y="400"
       width="370"
       height="80"
       id="page40"
       inkscape:label="YouTube Music" />
    <inkscape:page
       x="820"
       y="500"
       width="370"
       height="80"
       id="page41"
       inkscape:label="Amazon Music" />
    <sodipodi:guide
       position="-20,-520"
       orientation="0,-1"
       id="guide42"
       inkscape:locked="false" />
    <sodipodi:guide
       position="-20,-600"
       orientation="0,-1"
       id="guide43"
       inkscape:locked="false" />
    <sodipodi:guide
       position="-20,-620"
       orientation="0,-1"
       id="guide44"
       inkscape:locked="false" />
    <sodipodi:guide
       position="-70,-700"
       orientation="0,-1"
       id="guide45"
       inkscape:locked="false" />
    <inkscape:page
       x="0"
       y="600"
       width="370"
       height="80"
       id="page45"
       inkscape:label="Telegram" />
    <inkscape:page
       x="410"
       y="600"
       width="370"
       height="80"
       id="page46"
       inkscape:label="WhatsApp" />
    <inkscape:page
       x="820"
       y="600"
       width="370"
       height="80"
       id="page47"
       inkscape:label="Steam" />
  </sodipodi:namedview>
  <defs
     id="defs1" />
  <g
     inkscape:label="Layer 1"
     inkscape:groupmode="layer"
     id="layer1"
     transform="translate(-310,-260)">
    <g
       id="g2"
       transform="matrix(0.06345732,0,0,0.06345732,318.14903,268.27134)"
       style="stroke-width:15.7586;stroke-dasharray:none"
       inkscape:label="BlueSky">
      <path
         d="m 598.32724,531.77613 c -2.70851,-0.32831 -5.4991,-0.65661 -8.20761,-1.06699 2.79059,0.3283 5.4991,0.73868 8.20761,1.06699 z M 500,476.29264 C 478.57812,434.68003 420.30405,357.11805 366.13378,318.87055 314.17957,282.18251 294.39921,288.50237 281.3491,294.41186 c -15.01994,6.81232 -17.72845,29.87572 -17.72845,43.41829 0,13.54257 7.46893,111.29528 12.31143,127.62844 16.00485,53.92404 73.12986,72.14494 125.74068,66.23546 2.70851,-0.41038 5.41702,-0.73868 8.20761,-1.14907 -2.70851,0.41039 -5.41702,0.82077 -8.20761,1.14907 -77.06952,11.49066 -145.52104,39.56071 -55.72972,139.4474 C 444.68067,773.40835 481.20456,649.22712 500,586.2747 c 18.79544,62.95242 40.38147,182.61946 152.33336,84.86675 84.04599,-84.86675 23.0634,-128.03881 -54.00612,-139.4474 -2.70851,-0.3283 -5.4991,-0.65661 -8.20761,-1.06699 2.79059,0.32831 5.4991,0.73869 8.20761,1.06699 52.61082,5.82741 109.65376,-12.3935 125.74068,-66.23546 4.8425,-16.33316 12.31143,-114.00379 12.31143,-127.62844 0,-13.62465 -2.70851,-36.68805 -17.72845,-43.41829 -12.96804,-5.82741 -32.83047,-12.22935 -84.7026,24.45869 C 579.69595,357.11805 521.42188,434.68003 500,476.29264 Z"
         id="path9"
         style="fill:#00cccc;fill-opacity:1;stroke-width:15.7586;stroke-dasharray:none" />
      <circle
         style="fill:none;fill-opacity:1;stroke:#00cccc;stroke-width:47.2759;stroke-dasharray:none;stroke-opacity:1"
         id="path1639"
         cx="500"
         cy="500"
         r="457" />
    </g>
    <text
       xml:space="preserve"
       style="font-style:normal;font-variant:normal;font-weight:normal;font-stretch:normal;font-size:26.6667px;font-family:'Josefin Sans';-inkscape-font-specification:'Josefin Sans, Normal';font-variant-ligatures:normal;font-variant-caps:normal;font-variant-numeric:normal;font-variant-east-asian:normal;fill:#00cccc;fill-opacity:1;stroke:none;stroke-width:0.999999;stroke-linecap:round;stroke-linejoin:round;stroke-dasharray:none;stroke-opacity:1"
       x="407.22665"
       y="310"
       id="text1"><tspan
         sodipodi:role="line"
         id="tspan1"
         x="407.22665"
         y="310"
         style="font-style:normal;font-variant:normal;font-weight:normal;font-stretch:normal;font-size:26.6667px;font-family:'Josefin Sans';-inkscape-font-specification:'Josefin Sans, Normal';font-variant-ligatures:normal;font-variant-caps:normal;font-variant-numeric:normal;font-variant-east-asian:normal;stroke-width:0.999999">BlueSky</tspan></text>
    <g
       id="g14"
       transform="matrix(0.06105264,0,0,0.06105264,319.35137,369.47368)"
       inkscape:label="Mastodon"
       style="stroke-width:16.3793">
      <path
         d="m 729.17712,415.64192 c 0,-106.59469 -69.8568,-137.8493 -69.8568,-137.8493 -68.54082,-31.47394 -250.6949,-31.14495 -318.57773,0 0,0 -69.8568,31.25461 -69.8568,137.8493 0,126.88276 -7.23791,284.47181 115.80657,317.04241 44.41445,11.73418 82.57798,14.25649 113.28426,12.50184 55.70998,-3.07063 86.96459,-19.84942 86.96459,-19.84942 l -1.86431,-40.4665 c 0,0 -39.8085,12.50185 -84.55195,11.0762 -44.30479,-1.53532 -91.02221,-4.82528 -98.26012,-59.21927 a 112.40694,112.40694 0 0 1 -0.98699,-15.24348 c 93.87351,22.92005 174.03885,9.97955 196.08158,7.34758 61.52224,-7.34758 115.14857,-45.29178 121.94782,-79.94601 10.7472,-54.61333 9.86988,-133.24335 9.86988,-133.24335 z M 646.81847,552.94288 H 595.71444 V 427.7051 c 0,-54.50366 -70.1858,-56.5873 -70.1858,7.56691 v 68.54081 H 474.7536 v -68.54081 c 0,-64.15421 -70.1858,-62.07057 -70.1858,-7.56691 v 125.23778 h -51.32336 c 0,-133.90134 -5.7026,-162.19499 20.17841,-191.91429 28.40332,-31.69327 87.51292,-33.77691 113.8326,6.68958 l 12.72117,21.38474 12.72118,-21.38474 c 26.42934,-40.68583 85.64861,-38.16352 113.83259,-6.68958 25.99068,29.93863 20.17842,58.12262 20.17842,191.91429 z"
         id="path16087"
         style="fill:#00cccc;stroke-width:0;stroke-dasharray:none" />
      <circle
         style="fill:none;fill-opacity:1;stroke:#00cccc;stroke-width:49.1379;stroke-dasharray:none;stroke-opacity:1"
         id="path1639-6"
         cx="500"
         cy="500"
         r="475" />
    </g>
    <text
       xml:space="preserve"
       style="font-style:normal;font-variant:normal;font-weight:normal;font-stretch:normal;font-size:26.6667px;font-family:'Josefin Sans';-inkscape-font-specification:'Josefin Sans, Normal';font-variant-ligatures:normal;font-variant-caps:normal;font-variant-numeric:normal;font-variant-east-asian:normal;fill:#00cccc;fill-opacity:1;stroke:none;stroke-width:0.999999;stroke-linecap:round;stroke-linejoin:round;stroke-dasharray:none;stroke-opacity:1"
       x="407.22665"
       y="410"
       id="text2"><tspan
         sodipodi:role="line"
         id="tspan2"
         x="407.22665"
         y="410"
         style="font-style:normal;font-variant:normal;font-weight:normal;font-stretch:normal;font-size:26.6667px;font-family:'Josefin Sans';-inkscape-font-specification:'Josefin Sans, Normal';font-variant-ligatures:normal;font-variant-caps:normal;font-variant-numeric:normal;font-variant-east-asian:normal;stroke-width:0.999999">Mastodon</tspan></text>
    <g
       id="g16"
       transform="matrix(0.06105264,0,0,0.06105264,319.35137,469.47368)"
       style="stroke-width:16.3793">
      <path
         d="m 610.99787,479.17191 c 2.25169,0.92115 4.29867,1.94464 6.448,2.86579 29.88601,14.43125 51.78877,36.02697 63.2519,62.8425 16.06885,37.35751 17.60409,98.05067 -31.01185,146.56427 -37.05047,37.05046 -82.18653,53.73341 -145.95017,54.24515 H 503.4287 C 431.57945,745.17788 376.41315,721.02343 339.26034,673.84038 306.2015,631.87714 289.21151,573.43567 288.59741,500.25588 v -0.30705 -0.2047 c 0.51175,-73.17978 17.50174,-131.62126 50.56058,-173.58449 37.15281,-47.18305 92.42146,-71.3375 164.27071,-71.84925 h 0.30705 c 71.9516,0.51175 127.83434,24.56385 166.11299,71.5422 18.83228,23.2333 32.7518,51.17467 41.55385,83.61942 l -41.34915,11.05373 c -7.2668,-26.40614 -18.21818,-48.92299 -32.95649,-66.93648 -29.88601,-36.64106 -74.71503,-55.47335 -133.5659,-55.88274 -58.33913,0.51174 -102.4517,19.24168 -131.21187,55.67804 -26.81553,34.08234 -40.73504,83.41472 -41.24679,146.56427 0.51175,63.14955 14.43126,112.48194 41.24679,146.66662 28.65782,36.43637 72.87274,55.1663 131.21187,55.67805 52.60756,-0.4094 87.40634,-12.89602 116.37121,-41.86089 33.05884,-32.95649 32.44474,-73.48683 21.90276,-98.15302 -6.2433,-14.53361 -17.50174,-26.61083 -32.64944,-35.71993 -3.78693,27.53198 -12.07723,49.43474 -25.28029,66.32238 -17.50174,22.31216 -42.37263,34.38938 -74.40798,36.12932 -24.15445,1.33054 -47.38775,-4.50337 -65.40124,-16.37589 -21.28866,-14.12421 -33.77528,-35.61758 -35.10582,-60.69317 -2.55874,-49.43473 36.53872,-84.94996 97.43658,-88.42984 21.59571,-1.22819 41.86088,-0.30704 60.59081,2.86579 -2.45638,-15.14771 -7.4715,-27.22493 -14.943,-36.02698 -10.23494,-11.97487 -26.20143,-18.11583 -47.2854,-18.21818 h -0.71645 c -16.98999,0 -39.91624,4.70807 -54.5522,26.91788 l -35.20818,-24.15445 c 19.65108,-29.78366 51.48173,-46.15955 89.86273,-46.15955 h 0.8188 c 64.07069,0.40939 102.24701,40.42799 106.13627,110.23025 l -0.20469,0.20469 z m -159.66499,70.41636 c 1.33054,25.68968 29.06721,37.66456 55.88274,36.12932 26.20145,-1.43289 55.88276,-11.66783 60.89788,-74.91973 -13.51013,-2.96813 -28.45313,-4.50337 -44.41963,-4.50337 -4.91276,0 -9.82554,0.10235 -14.7383,0.4094 -43.90787,2.45638 -58.54383,23.74505 -57.52033,42.78203 z"
         id="path442"
         style="fill:#00cccc;stroke-width:0;stroke-dasharray:none" />
      <circle
         style="fill:none;fill-opacity:1;stroke:#00cccc;stroke-width:49.1379;stroke-dasharray:none;stroke-opacity:1"
         id="path1639-56"
         cx="500"
         cy="500"
         r="475" />
    </g>
    <text
       xml:space="preserve"
       style="font-style:normal;font-variant:normal;font-weight:normal;font-stretch:normal;font-size:26.6667px;font-family:'Josefin Sans';-inkscape-font-specification:'Josefin Sans, Normal';font-variant-ligatures:normal;font-variant-caps:normal;font-variant-numeric:normal;font-variant-east-asian:normal;fill:#00cccc;fill-opacity:1;stroke:none;stroke-width:0.999999;stroke-linecap:round;stroke-linejoin:round;stroke-dasharray:none;stroke-opacity:1"
       x="408.63998"
       y="510"
       id="text3"><tspan
         sodipodi:role="line"
         id="tspan3"
         x="408.63998"
         y="510"
         style="font-style:normal;font-variant:normal;font-weight:normal;font-stretch:normal;font-size:26.6667px;font-family:'Josefin Sans';-inkscape-font-specification:'Josefin Sans, Normal';font-variant-ligatures:normal;font-variant-caps:normal;font-variant-numeric:normal;font-variant-east-asian:normal;stroke-width:0.999999">Threads</tspan></text>
    <g
       id="g20"
       transform="matrix(0.06345732,0,0,0.06345732,318.14903,568.27134)"
       style="stroke-width:15.7586"
       inkscape:label="X">
      <path
         d="m 635.91043,286.32374 h 72.52665 L 550.02901,467.33219 736.37936,713.67626 H 590.50423 L 476.16688,564.30834 345.49563,713.67626 H 272.86625 L 442.26632,520.03215 263.62064,286.32374 h 149.57338 l 103.24262,136.5268 z m -25.47678,384.00089 h 40.16702 L 391.31275,327.41533 h -43.14616 z"
         id="path435"
         style="fill:#00cccc;stroke-width:0;stroke-dasharray:none" />
      <circle
         style="fill:none;fill-opacity:1;stroke:#00cccc;stroke-width:47.2759;stroke-dasharray:none;stroke-opacity:1"
         id="path1639-7"
         cx="500"
         cy="500"
         r="457" />
    </g>
    <text
       xml:space="preserve"
       style="font-style:normal;font-variant:normal;font-weight:normal;font-stretch:normal;font-size:26.6667px;font-family:'Josefin Sans';-inkscape-font-specification:'Josefin Sans, Normal';font-variant-ligatures:normal;font-variant-caps:normal;font-variant-numeric:normal;font-variant-east-asian:normal;fill:#00cccc;fill-opacity:1;stroke:none;stroke-width:0.999999;stroke-linecap:round;stroke-linejoin:round;stroke-dasharray:none;stroke-opacity:1"
       x="409.09332"
       y="610"
       id="text4"><tspan
         sodipodi:role="line"
         id="tspan4"
         x="409.09332"
         y="610"
         style="font-style:normal;font-variant:normal;font-weight:normal;font-stretch:normal;font-size:26.6667px;font-family:'Josefin Sans';-inkscape-font-specification:'Josefin Sans, Normal';font-variant-ligatures:normal;font-variant-caps:normal;font-variant-numeric:normal;font-variant-east-asian:normal;stroke-width:0.999999">X / Twitter</tspan></text>
    <g
       id="g12"
       transform="matrix(0.06345733,0,0,0.06345733,318.14902,668.27133)"
       style="stroke-width:15.7586"
       inkscape:label="Facebook">
      <path
         d="M 426.26997,539.98135 V 736.37933 H 533.37935 V 539.98135 h 79.87036 l 16.62042,-90.30429 h -96.49078 v -31.94815 c 0,-47.73754 18.74414,-66.02 67.12804,-66.02 15.05071,0 27.14669,0.36934 34.1642,1.10802 v -81.90174 c -13.204,-3.60109 -45.52149,-7.29452 -64.1733,-7.29452 -98.70683,0 -144.22832,46.62952 -144.22832,147.18307 v 38.87332 h -60.94155 v 90.30429 z"
         id="path2"
         style="fill:#00cccc;fill-opacity:1;stroke-width:0;stroke-dasharray:none" />
      <circle
         style="fill:none;fill-opacity:1;stroke:#00cccc;stroke-width:47.2759;stroke-dasharray:none;stroke-opacity:1"
         id="path1639-5"
         cx="500"
         cy="500"
         r="457" />
    </g>
    <g
       id="g15"
       transform="matrix(0.06105264,0,0,0.06105264,729.47368,269.47368)"
       style="stroke-width:16.3793"
       inkscape:label="Snapchat">
      <path
         d="m 739.89435,610.13985 c -3.38586,-9.16172 -9.75924,-14.04133 -17.02888,-18.12428 -1.39418,-0.79667 -2.58919,-1.49376 -3.68462,-1.89209 -2.19085,-1.09542 -4.3817,-2.19085 -6.57255,-3.38586 -22.70518,-12.04965 -40.43116,-27.18642 -52.77959,-45.21111 a 102.47207,102.47189 0 0 1 -9.06215,-16.03302 c -1.09543,-2.98752 -0.99585,-4.68045 -0.19917,-6.27379 a 10.157581,10.157564 0 0 1 2.88794,-2.98752 c 3.88378,-2.58918 7.96673,-5.17837 10.6555,-6.97088 4.87962,-3.18668 8.7634,-5.67628 11.15342,-7.36921 9.36091,-6.47296 15.83388,-13.44383 19.91683,-21.21138 a 42.223672,42.223599 0 0 0 2.09126,-35.05356 c -6.17421,-16.23218 -21.51017,-26.29016 -40.1324,-26.29016 A 55.269193,55.269098 0 0 0 645.4886,420.532 c -0.99585,0.19916 -2.09127,0.49791 -3.08711,0.69708 0.19917,-11.1534 -0.0996,-22.80472 -1.09543,-34.35646 -3.48544,-40.63026 -17.72597,-61.84164 -32.56401,-78.8705 a 129.65854,129.65832 0 0 0 -32.96235,-26.6885 c -22.50601,-12.84633 -47.99955,-19.31929 -75.78352,-19.31929 -27.78397,0 -53.17793,6.47296 -75.68394,19.31929 a 129.16062,129.1604 0 0 0 -33.16151,26.6885 c -14.83804,16.92927 -29.07857,38.24024 -32.56402,78.8705 -0.99584,11.55174 -1.195,23.30264 -1.09542,34.35646 -0.99584,-0.29875 -1.99168,-0.49792 -3.08711,-0.69708 a 55.269193,55.269098 0 0 0 -11.65134,-1.19501 c -18.62223,0 -33.95819,10.05798 -40.13241,26.29016 a 42.223672,42.223599 0 0 0 1.99169,35.05356 c 4.08295,7.76755 10.6555,14.63884 19.91682,21.21138 2.48961,1.69293 6.37339,4.18253 11.15342,7.36921 2.58919,1.69293 6.47297,4.18253 10.25717,6.67213 a 11.053839,11.05382 0 0 1 3.28628,3.28627 c 0.79667,1.59334 0.79667,3.38585 -0.39834,6.57254 a 101.57581,101.57564 0 0 1 -8.86299,15.73427 c -12.04968,17.62636 -29.27773,32.46437 -51.18624,44.41444 -11.45218,6.27379 -23.60144,10.45632 -28.68023,24.29849 -3.88378,10.45631 -1.29459,22.40639 8.46465,32.46437 a 48.895808,48.895724 0 0 0 12.34843,9.36089 133.74149,133.74126 0 0 0 30.17399,12.04966 19.916826,19.916792 0 0 1 6.07464,2.68877 c 3.58503,3.0871 3.0871,7.86713 7.76756,14.73842 a 34.356525,34.356466 0 0 0 8.96257,9.06214 c 9.95841,6.8713 21.21142,7.36922 33.06193,7.76755 10.75509,0.39834 22.90435,0.89626 36.74655,5.47712 5.77588,1.8921 11.75092,5.5767 18.62223,9.85881 16.73013,10.35674 39.5349,24.29849 77.67562,24.29849 38.14072,0 61.04507,-14.04134 77.77521,-24.29849 6.8713,-4.18252 12.84635,-7.86713 18.42306,-9.75922 13.8422,-4.58087 26.09104,-5.07879 36.74655,-5.47712 11.85051,-0.49792 23.10351,-0.89626 33.06193,-7.76755 a 34.456109,34.45605 0 0 0 10.15758,-11.15341 c 3.38586,-5.77586 3.28627,-9.85881 6.57255,-12.74674 a 18.920985,18.920952 0 0 1 5.77588,-2.58918 134.33899,134.33876 0 0 0 30.57233,-12.14925 48.099135,48.099053 0 0 0 12.94594,-10.15756 l 0.0996,-0.0996 c 9.26132,-9.85881 11.55176,-21.41055 7.76756,-31.6677 z m -33.8586,18.22387 c -20.61392,11.45215 -34.35653,10.15756 -45.11161,17.02886 -9.06216,5.87545 -3.68462,18.42303 -10.25717,23.00389 -8.06631,5.5767 -32.06609,-0.39833 -62.93717,9.85881 -25.49354,8.46464 -41.82533,32.66354 -87.63403,32.66354 -45.80871,0 -61.74217,-24.1989 -87.73362,-32.76312 -30.87108,-10.25715 -54.87086,-4.18253 -62.93718,-9.85881 -6.57255,-4.58086 -1.195,-17.12844 -10.25716,-23.0039 -10.6555,-6.87129 -24.39811,-5.67628 -45.11161,-17.02885 -13.14511,-7.26963 -5.6763,-11.75091 -1.2946,-13.84217 74.78769,-36.24857 86.73778,-92.21475 87.33529,-96.29769 0.5975,-4.9792 1.39418,-8.96256 -4.18254,-14.04134 -5.37754,-4.9792 -29.07856,-19.61804 -35.65112,-24.1989 -10.85467,-7.56839 -15.6347,-15.23635 -12.14926,-24.49766 2.4896,-6.47296 8.46465,-8.86297 14.83804,-8.86297 a 27.48522,27.485173 0 0 1 5.97504,0.69709 c 11.9501,2.58918 23.60144,8.56422 30.27358,10.15756 a 10.655502,10.655484 0 0 0 2.4896,0.29875 c 3.58503,0 4.87963,-1.79251 4.58087,-5.87545 -0.79667,-13.0455 -2.58918,-38.53899 -0.5975,-62.33956 2.78835,-32.76312 13.34427,-48.99531 25.89187,-63.3354 6.07463,-6.87129 34.35653,-36.84606 88.5303,-36.84606 54.17376,0 82.55524,29.7756 88.53029,36.64689 12.5476,14.34009 23.10352,30.57228 25.89187,63.3354 2.09127,23.80057 0.29875,49.29406 -0.5975,62.33956 -0.29876,4.28211 0.99584,5.87545 4.58087,5.87545 a 10.555918,10.5559 0 0 0 2.4896,-0.29875 c 6.67214,-1.59334 18.32348,-7.56838 30.27358,-10.15756 a 27.48522,27.485173 0 0 1 5.97504,-0.69709 c 6.37339,0 12.34844,2.4896 14.83804,8.86297 3.48544,9.3609 -1.19501,16.92928 -12.14926,24.49766 -6.57256,4.58086 -30.27358,19.2197 -35.65112,24.1989 -5.57671,5.07878 -4.78004,9.06214 -4.18254,14.04134 0.49792,4.18252 12.44802,60.14871 87.33529,96.29769 4.28211,2.29043 11.75092,6.77171 -1.39418,14.14092 z"
         id="path2-8"
         style="fill:#00cccc;stroke:#00cccc;stroke-width:8.18965;stroke-dasharray:none;stroke-opacity:1" />
      <circle
         style="fill:none;fill-opacity:1;stroke:#00cccc;stroke-width:49.1379;stroke-dasharray:none;stroke-opacity:1"
         id="path1639-55"
         cx="500"
         cy="500"
         r="475" />
    </g>
    <g
       id="g17"
       transform="matrix(0.06105264,0,0,0.06105264,729.47368,369.47368)"
       style="stroke-width:16.3793"
       inkscape:label="TikTok">
      <path
         d="M 714.99955,455.77647 A 201.65806,201.65806 0 0 1 597.13373,418.05556 V 589.67128 A 156.06664,156.06664 0 1 1 462.56704,435.04437 v 86.28776 a 71.602529,71.602529 0 1 0 50.10258,68.33915 V 254.31037 h 84.46411 a 116.33011,116.33011 0 0 0 1.82366,21.30799 v 0 a 117.28993,117.28993 0 0 0 51.73426,76.97752 116.52208,116.52208 0 0 0 64.3079,19.29237 z"
         id="path594"
         style="fill:#00cccc;stroke-width:0;stroke-dasharray:none" />
      <circle
         style="fill:none;fill-opacity:1;stroke:#00cccc;stroke-width:49.1379;stroke-dasharray:none;stroke-opacity:1"
         id="path1639-2"
         cx="500"
         cy="500"
         r="475" />
    </g>
    <g
       id="g18"
       transform="matrix(0.06105264,0,0,0.06105264,729.47368,469.47368)"
       style="stroke-width:16.3793"
       inkscape:label="Twitch">
      <path
         d="m 629.75484,353.64192 h -37.14136 v 105.28185 h 37.04539 z m -101.9228,-0.47986 h -37.04539 v 105.37782 h 37.04539 z M 370.24517,254.31037 277.6317,342.02925 v 315.94151 h 111.13617 v 87.71887 l 92.61347,-87.71887 h 74.18675 L 722.36832,500 V 254.31037 Z m 315.07776,228.22264 -74.09078,70.1559 H 537.0454 l -64.87742,61.42241 v -61.42241 h -83.40011 v -263.2526 h 296.55506 z"
         id="path2384"
         style="fill:#00cccc;fill-opacity:1;stroke-width:0;stroke-dasharray:none" />
      <circle
         style="fill:none;fill-opacity:1;stroke:#00cccc;stroke-width:49.1379;stroke-dasharray:none;stroke-opacity:1"
         id="path1639-52"
         cx="500"
         cy="500"
         r="475" />
    </g>
    <g
       id="g21"
       transform="matrix(0.06345733,0,0,0.06345733,727.50985,567.50985)"
       style="stroke-width:15.7586"
       inkscape:label="YouTube">
      <path
         d="M 738.51216,397.8351 C 733.05925,377.32177 717.04673,361.22271 696.70651,355.76979 659.83445,345.81607 512,345.81607 512,345.81607 c 0,0 -147.83446,0 -184.70651,9.95372 -20.34023,5.45292 -36.35274,21.55198 -41.80565,42.06531 -9.86717,37.13172 -9.86717,114.51112 -9.86717,114.51112 0,0 0,77.37939 9.86717,114.51111 5.45291,20.51333 21.46542,35.91996 41.80565,41.37287 C 364.16554,678.18393 512,678.18393 512,678.18393 c 0,0 147.83445,0 184.70651,-9.95373 20.34022,-5.45291 36.35274,-20.9461 41.80565,-41.37287 9.86717,-37.13172 9.86717,-114.51111 9.86717,-114.51111 0,0 0,-77.3794 -9.86717,-114.51112 z M 463.70279,582.62817 V 442.06426 l 123.51275,70.28196 z"
         id="path2-9"
         style="fill:#00cccc;stroke-width:0;stroke-dasharray:none" />
      <path
         id="path1639-4"
         style="opacity:1;fill:none;fill-opacity:1;stroke:#00cccc;stroke-width:49.1379;stroke-dasharray:none;stroke-opacity:1"
         sodipodi:type="inkscape:offset"
         inkscape:radius="0"
         inkscape:original="M 512 37 A 475 475 0 0 0 37 512 A 475 475 0 0 0 512 987 A 475 475 0 0 0 987 512 A 475 475 0 0 0 512 37 z "
         d="M 512,37 A 475,475 0 0 0 37,512 475,475 0 0 0 512,987 475,475 0 0 0 987,512 475,475 0 0 0 512,37 Z"
         transform="matrix(0.96210526,0,0,0.96210526,19.402107,19.402107)" />
    </g>
    <g
       id="g26"
       inkscape:label="Blogger"
       transform="matrix(3.7795277,0,0,3.7795277,647.5,507.5)">
      <circle
         style="fill:none;fill-opacity:1;stroke:#00cccc;stroke-width:0.793751;stroke-dasharray:none;stroke-opacity:1"
         id="circle20"
         cx="29.765625"
         cy="50.932289"
         r="7.6729159" />
      <path
         d="m 33.709579,50.341425 c -0.0319,-0.14175 -0.120487,-0.272868 -0.221485,-0.327796 -0.0319,-0.01772 -0.230342,-0.03898 -0.442967,-0.04784 -0.356146,-0.01595 -0.395128,-0.02303 -0.508527,-0.08859 -0.178959,-0.104541 -0.226801,-0.217941 -0.228572,-0.522703 -0.0018,-0.584718 -0.244519,-1.128683 -0.724696,-1.617719 -0.341972,-0.349059 -0.724696,-0.584718 -1.160577,-0.717609 -0.104544,-0.03189 -0.338427,-0.04253 -1.121596,-0.05138 -1.229679,-0.01418 -1.502548,0.01063 -1.92071,0.177187 -0.770764,0.304762 -1.323588,0.953268 -1.525582,1.782504 -0.03721,0.155925 -0.04607,0.405759 -0.05492,1.840976 -0.01068,1.798451 0.0018,2.06246 0.1134,2.418606 0.276411,0.878849 1.061352,1.529126 1.849835,1.670876 0.262237,0.04784 3.495905,0.05847 3.827245,0.01417 0.575859,-0.07796 1.027686,-0.310078 1.451164,-0.742415 0.306533,-0.313621 0.497896,-0.652049 0.623699,-1.100333 0.08682,-0.311849 0.07973,-2.530234 0.04429,-2.68793 z m -5.707202,-1.126911 c 0.138206,-0.139978 0.177187,-0.145293 1.041862,-0.145293 0.777852,0 0.804429,0.0018 0.917829,0.06024 0.164784,0.08328 0.237431,0.200221 0.237431,0.38804 0,0.168328 -0.06733,0.287043 -0.21794,0.382724 -0.0815,0.05138 -0.129347,0.05493 -0.891252,0.05847 -0.469547,0.0035 -0.845183,-0.0071 -0.900111,-0.02126 -0.294131,-0.08328 -0.403988,-0.504983 -0.187819,-0.722924 z m 3.398452,3.540202 -0.264009,0.04252 -1.373202,0.01595 c -1.206645,0.01417 -1.546844,-0.0071 -1.610631,-0.03544 -0.125803,-0.05493 -0.244519,-0.207309 -0.26401,-0.343743 -0.01949,-0.129347 0.04607,-0.306535 0.145294,-0.3969 0.125803,-0.1134 0.18073,-0.116944 1.724031,-0.118716 1.587598,-0.0018 1.57874,-0.0018 1.729348,0.138206 0.214397,0.200222 0.168329,0.552824 -0.08682,0.698118 z"
         id="path1"
         style="fill:#00cccc;stroke-width:0.264583" />
    </g>
    <g
       id="g22"
       inkscape:label="Discord"
       transform="matrix(3.7795277,0,0,3.7795277,567.5,607.5)">
      <circle
         style="fill:none;fill-opacity:1;stroke:#00cccc;stroke-width:0.793751;stroke-dasharray:none;stroke-opacity:1"
         id="circle20-1"
         cx="50.932289"
         cy="50.932289"
         r="7.6729159" />
      <path
         d="m 53.692778,48.419169 a 0.02024799,0.02024799 0 0 0 -0.0108,-0.0095 6.5482013,6.5482013 0 0 0 -1.61444,-0.5008 0.02429759,0.02429759 0 0 0 -0.02565,0.01215 4.5557987,4.5557987 0 0 0 -0.20113,0.413059 6.0447011,6.0447011 0 0 0 -1.81422,0 4.1778361,4.1778361 0 0 0 -0.20383,-0.413059 0.02564746,0.02564746 0 0 0 -0.02565,-0.01215 6.529303,6.529303 0 0 0 -1.61714,0.5008 0.02294773,0.02294773 0 0 0 -0.0108,0.0095 c -1.028598,1.537498 -1.31072,3.03585 -1.173033,4.516653 a 0.02699733,0.02699733 0 0 0 0.0108,0.0189 6.583298,6.583298 0 0 0 1.981604,1.000251 0.02564746,0.02564746 0 0 0 0.02835,-0.0095 4.7002344,4.7002344 0 0 0 0.40496,-0.658735 0.02564746,0.02564746 0 0 0 -0.0135,-0.0351 4.3357705,4.3357705 0 0 1 -0.619589,-0.295621 0.02564746,0.02564746 0 0 1 -0.0027,-0.04185 c 0.04185,-0.03105 0.08369,-0.06344 0.122838,-0.09584 a 0.02429759,0.02429759 0 0 1 0.02565,-0.004 c 1.298572,0.592591 2.705132,0.592591 3.988855,0 a 0.02429759,0.02429759 0 0 1 0.02565,0.0027 c 0.03915,0.0324 0.08099,0.06614 0.122838,0.09719 a 0.02564746,0.02564746 0 0 1 -0.0027,0.04185 4.068497,4.068497 0 0 1 -0.619589,0.294271 0.02564746,0.02564746 0 0 0 -0.0135,0.0351 5.2793271,5.2793271 0 0 0 0.40496,0.658735 0.02564746,0.02564746 0 0 0 0.02835,0.0095 6.5603504,6.5603504 0 0 0 1.987003,-1.000251 0.02564746,0.02564746 0 0 0 0.0108,-0.0189 c 0.164683,-1.710279 -0.278073,-3.196481 -1.174385,-4.515301 z m -4.076596,3.614942 c -0.391461,0 -0.712729,-0.359064 -0.712729,-0.799121 0,-0.440056 0.315868,-0.80047 0.712729,-0.80047 0.40091,0 0.719479,0.361764 0.712729,0.799121 0,0.441406 -0.315868,0.80047 -0.712729,0.80047 z m 2.637639,0 c -0.391462,0 -0.71273,-0.359064 -0.71273,-0.799121 0,-0.440056 0.314519,-0.80047 0.71273,-0.80047 0.40091,0 0.719478,0.361764 0.712729,0.799121 0,0.441406 -0.313169,0.80047 -0.712729,0.80047 z"
         id="path1-0"
         style="fill:#00cccc;stroke-width:0.264583" />
    </g>
    <g
       id="g24"
       inkscape:label="Telegram"
       transform="matrix(3.7795277,0,0,3.7795277,-2.6223276,707.5)">
      <circle
         style="fill:none;fill-opacity:1;stroke:#00cccc;stroke-width:0.793751;stroke-dasharray:none;stroke-opacity:1"
         id="circle20-15"
         cx="93.265625"
         cy="50.932289"
         r="7.6729159" />
      <path
         style="fill:#00cccc;stroke-width:0.264583"
         d="m 96.702634,48.745819 c -0.109032,1.155168 -0.586425,3.960578 -0.828068,5.254249 -0.103139,0.548116 -0.303526,0.730822 -0.498019,0.748503 -0.424347,0.0383 -0.745554,-0.279952 -1.158116,-0.551063 -0.642415,-0.421401 -1.007825,-0.683672 -1.629613,-1.096231 -0.72198,-0.474445 -0.25343,-0.736716 0.156191,-1.164011 0.109032,-0.111978 1.977343,-1.812318 2.012706,-1.965553 0.0059,-0.02062 0.0088,-0.09135 -0.03536,-0.129656 -0.04421,-0.0383 -0.106085,-0.02357 -0.15028,-0.01473 q -0.09725,0.02062 -3.082416,2.03628 -0.436133,0.30058 -0.792704,0.291739 c -0.262271,-0.0059 -0.763236,-0.147352 -1.137488,-0.268165 -0.456764,-0.147333 -0.822173,-0.226907 -0.789758,-0.480337 q 0.02357,-0.197439 0.545169,-0.403721 3.194395,-1.390916 4.261158,-1.835893 c 2.030387,-0.8428 2.451787,-0.990145 2.725845,-0.996038 0.06189,0 0.194493,0.01473 0.282898,0.08546 a 0.30942022,0.30942022 0 0 1 0.103139,0.197439 1.2907243,1.2907243 0 0 1 0.01473,0.291739 z"
         id="path20" />
    </g>
    <g
       id="g25"
       inkscape:label="WhatsApp"
       transform="matrix(3.7795277,0,0,3.7795277,727,627.50001)">
      <circle
         style="fill:none;fill-opacity:1;stroke:#00cccc;stroke-width:0.793751;stroke-dasharray:none;stroke-opacity:1"
         id="circle20-1-2"
         cx="8.598958"
         cy="72.098953"
         r="7.6729159" />
      <path
         d="m 11.378841,69.283622 c -0.742369,-0.74414 -1.7310123,-1.153418 -2.7816673,-1.153418 -2.168639,0 -3.933315,1.764677 -3.933315,3.933315 0,0.69276 0.18072,1.369573 0.524442,1.966658 l -0.558106,2.037528 2.085366,-0.547475 c 0.574051,0.313602 1.220745,0.478376 1.879841,0.478376 h 0.0018 c 2.1668653,0 3.9705203,-1.764677 3.9705203,-3.933315 0,-1.050656 -0.446484,-2.037528 -1.188853,-2.781669 z m -2.7816673,6.052344 c -0.588226,0 -1.164049,-0.157687 -1.665458,-0.455343 l -0.118708,-0.07087 -1.236691,0.324232 0.329548,-1.20657 -0.07796,-0.124024 c -0.327776,-0.520898 -0.499637,-1.121526 -0.499637,-1.739871 0,-1.801884 1.46702,-3.268904 3.270675,-3.268904 0.87348,0 1.6938053,0.340179 2.3103793,0.958524 0.616574,0.618346 0.995731,1.438672 0.993959,2.312151 0,1.803656 -1.504227,3.270675 -3.3061093,3.270675 z m 1.7930233,-2.448577 c -0.09745,-0.04961 -0.5811373,-0.287025 -0.6714973,-0.318917 -0.09036,-0.03366 -0.155915,-0.04961 -0.221471,0.04961 -0.06555,0.09922 -0.253362,0.318917 -0.31183,0.386244 -0.0567,0.06556 -0.115165,0.07441 -0.212612,0.02481 -0.577595,-0.288797 -0.956752,-0.515583 -1.337681,-1.169363 -0.100991,-0.173633 0.100991,-0.161231 0.288797,-0.536845 0.03189,-0.06556 0.01595,-0.122252 -0.0089,-0.171861 -0.02481,-0.04961 -0.221471,-0.533301 -0.302972,-0.729966 -0.07973,-0.191351 -0.16123,-0.164774 -0.22147,-0.168318 -0.0567,-0.0035 -0.122252,-0.0035 -0.187807,-0.0035 -0.06556,0 -0.171861,0.02481 -0.262221,0.122252 -0.09036,0.09922 -0.343722,0.336635 -0.343722,0.820326 0,0.483692 0.352581,0.951437 0.400418,1.016992 0.04961,0.06556 0.69276,1.057743 1.679632,1.484738 0.623661,0.269308 0.868164,0.292341 1.179994,0.246275 0.1895793,-0.02835 0.5811383,-0.237416 0.6626393,-0.467745 0.0815,-0.230329 0.0815,-0.426995 0.0567,-0.467746 -0.02303,-0.04429 -0.08859,-0.0691 -0.186035,-0.116936 z"
         id="path1-04"
         style="fill:#00cccc;stroke-width:0.264583" />
    </g>
    <g
       id="g42"
       inkscape:label="Apple Music"
       transform="matrix(3.7795277,0,0,3.7795277,1057.6223,29.00001)">
      <path
         d="m 32.007312,71.795563 c -0.0035,-0.650356 0.290622,-1.141223 0.886043,-1.502729 -0.333152,-0.476691 -0.836425,-0.738959 -1.500957,-0.79035 -0.62909,-0.04962 -1.316659,0.366822 -1.568295,0.366822 -0.265813,0 -0.87541,-0.349101 -1.353874,-0.349101 -0.988823,0.01595 -2.03967,0.788578 -2.03967,2.360418 q 0,0.696429 0.25518,1.438933 c 0.226827,0.650355 1.045531,2.245232 1.899676,2.218651 0.446565,-0.01063 0.761997,-0.317203 1.343241,-0.317203 0.563523,0 0.855917,0.317203 1.353873,0.317203 0.861234,-0.0124 1.601965,-1.46197 1.81816,-2.114098 -1.1554,-0.54403 -1.093377,-1.594877 -1.093377,-1.628546 z m -1.003,-2.909765 c 0.483779,-0.574155 0.439477,-1.096921 0.4253,-1.284762 -0.427072,0.02481 -0.921484,0.290622 -1.203246,0.618458 -0.310115,0.350873 -0.49264,0.785034 -0.453654,1.27413 0.462515,0.03544 0.884271,-0.202018 1.2316,-0.607826 z"
         id="path1-09"
         style="fill:#00cccc;stroke-width:0.264583" />
      <circle
         style="fill:none;fill-opacity:1;stroke:#00cccc;stroke-width:0.793751;stroke-dasharray:none;stroke-opacity:1"
         id="circle34"
         cx="29.765625"
         cy="72.098953"
         r="7.6729159" />
    </g>
    <g
       id="g43"
       inkscape:label="Bandcamp"
       transform="matrix(3.7795277,0,0,3.7795277,977.62232,130.00001)">
      <path
         style="fill:#00cccc;stroke-width:0.264583"
         d="m 52.37072,74.430613 h -5.407181 l 2.530321,-4.663319 h 5.407179 z"
         id="path34" />
      <circle
         style="fill:none;fill-opacity:1;stroke:#00cccc;stroke-width:0.793751;stroke-dasharray:none;stroke-opacity:1"
         id="circle35"
         cx="50.932289"
         cy="72.098953"
         r="7.6729159" />
    </g>
    <g
       id="g44"
       inkscape:label="Soundcloud"
       transform="matrix(3.7795277,0,0,3.7795277,897.62232,225.00001)">
      <path
         d="m 69.339581,72.102268 0.07674,0.86003 -0.07674,0.903692 c -0.0039,0.03308 -0.02911,0.05822 -0.05822,0.05822 -0.02911,0 -0.05557,-0.02514 -0.05557,-0.05822 l -0.07409,-0.903692 0.07409,-0.86003 c 0,-0.02911 0.02514,-0.05557 0.05557,-0.05557 0.02911,0 0.05425,0.02646 0.05822,0.05557 z m 0.283149,-0.603343 c -0.03705,0 -0.06219,0.02911 -0.06615,0.06615 l -0.06615,1.397218 0.06615,0.903692 c 0.0039,0.03705 0.02911,0.06616 0.06615,0.06616 0.03308,0 0.06219,-0.02911 0.06219,-0.06616 l 0.07674,-0.903692 -0.07674,-1.397218 c 0,-0.03705 -0.02911,-0.06615 -0.06219,-0.06615 z m 0.337396,-0.318873 c -0.04101,0 -0.07012,0.02911 -0.07409,0.07012 l -0.05822,1.720059 0.05822,0.897077 c 0.0039,0.04101 0.03308,0.07012 0.07409,0.07012 0.03705,0 0.07012,-0.02911 0.07012,-0.07012 l 0.07012,-0.897077 -0.07012,-1.720059 c 0,-0.04101 -0.03308,-0.07012 -0.07012,-0.07012 z m -1.999239,1.278136 c -0.01853,0 -0.02911,0.01455 -0.03308,0.03308 l -0.06219,0.471033 0.06219,0.463092 c 0.0039,0.01853 0.01455,0.03308 0.03308,0.03308 0.01853,0 0.02911,-0.01456 0.03308,-0.03308 l 0.07409,-0.463092 -0.07409,-0.471033 c -0.0039,-0.01852 -0.01456,-0.03308 -0.03308,-0.03308 z m 0.312257,-0.289764 c -0.01853,0 -0.03308,0.01456 -0.03308,0.03308 l -0.08468,0.760796 0.08468,0.742272 c 0,0.0225 0.01455,0.03705 0.03308,0.03705 0.01853,0 0.03308,-0.01456 0.03705,-0.03308 l 0.09526,-0.746241 -0.09526,-0.760796 c -0.0039,-0.01853 -0.01853,-0.03308 -0.03705,-0.03308 z m 0.33475,-0.150836 c -0.0225,0 -0.04101,0.01853 -0.04366,0.04367 l -0.07674,0.901046 0.07674,0.870614 c 0.0039,0.0225 0.0225,0.04101 0.04366,0.04101 0.0225,0 0.04101,-0.01853 0.04101,-0.04101 l 0.0913,-0.870614 -0.0913,-0.901047 c 0,-0.02514 -0.01853,-0.04366 -0.04101,-0.04366 z m 0.334751,-0.02911 c -0.02514,0 -0.04764,0.01853 -0.04764,0.04763 l -0.07674,0.926186 0.07674,0.897077 c 0,0.02911 0.0225,0.04763 0.04764,0.04763 0.02514,0 0.04763,-0.01853 0.05161,-0.04763 l 0.08468,-0.897077 -0.08468,-0.926186 c -0.0039,-0.02911 -0.02646,-0.04763 -0.05161,-0.04763 z m 3.194017,-1.467342 c -0.01455,-0.01056 -0.03704,-0.01853 -0.05557,-0.01853 -0.02911,0 -0.05557,0.01056 -0.07409,0.02514 -0.02514,0.0225 -0.04101,0.05557 -0.04366,0.08865 v 0.01056 l -0.04366,2.337958 0.0225,0.430014 0.0225,0.419431 c 0.0039,0.06219 0.05557,0.113788 0.117757,0.113788 0.06219,0 0.113789,-0.0516 0.113789,-0.113788 l 0.05161,-0.849445 -0.05161,-2.348543 c -0.0053,-0.03969 -0.02646,-0.07674 -0.05954,-0.09526 z m -0.353274,0.202437 c -0.01853,-0.01056 -0.03705,-0.01853 -0.05822,-0.01853 -0.02117,0 -0.04101,0.0079 -0.05822,0.01853 -0.02911,0.01853 -0.04764,0.05161 -0.04764,0.08865 l -0.0039,0.0225 -0.03705,2.127581 c 0,0 0,0.0039 0.04101,0.867969 v 0.0039 c 0,0.02249 0.0079,0.04366 0.0225,0.06219 0.0225,0.02514 0.05161,0.04101 0.08468,0.04101 0.02911,0 0.05557,-0.01456 0.07409,-0.03308 0.0225,-0.01853 0.03308,-0.04366 0.03308,-0.07409 l 0.0039,-0.08865 0.04101,-0.77535 -0.04366,-2.154043 c -0.0039,-0.03705 -0.0225,-0.07012 -0.05161,-0.08865 z m -1.473957,0.297703 c -0.04101,0 -0.07674,0.03705 -0.07674,0.08071 l -0.05822,1.860311 0.05822,0.889138 c 0.0039,0.04367 0.03704,0.07675 0.07674,0.07675 0.04366,0 0.07674,-0.03308 0.08071,-0.07675 l 0.06615,-0.889138 -0.06615,-1.860311 c -0.0027,-0.04366 -0.03572,-0.08071 -0.08071,-0.08071 z m 4.984202,0.830921 c -0.142897,0 -0.27918,0.02911 -0.404876,0.08071 -0.08468,-0.936771 -0.870614,-1.672428 -1.829879,-1.672428 -0.235516,0 -0.463092,0.04366 -0.66553,0.124374 -0.08071,0.02911 -0.1032,0.05822 -0.1032,0.121728 v 3.303836 c 0,0.06616 0.0516,0.113789 0.113788,0.121728 h 2.888376 c 0.572913,0 1.039975,-0.463093 1.039975,-1.036006 0.0013,-0.576881 -0.465739,-1.043943 -1.038651,-1.043943 z m -3.925705,-0.797843 c -0.05557,0 -0.09923,0.04366 -0.1032,0.1032 l -0.04366,1.808709 0.04366,0.867968 c 0.0039,0.05557 0.04764,0.09923 0.1032,0.09923 0.05557,0 0.09923,-0.04366 0.09923,-0.09923 l 0.05161,-0.867968 -0.05161,-1.808709 c -0.0039,-0.05954 -0.04366,-0.1032 -0.09923,-0.1032 z m -0.709193,-0.1032 c -0.04367,0 -0.08468,0.04101 -0.08468,0.08865 l -0.05161,1.922497 0.05161,0.885169 c 0.0039,0.04764 0.04101,0.08468 0.08468,0.08468 0.04763,0 0.08468,-0.03705 0.08865,-0.08468 l 0.05822,-0.885169 -0.05822,-1.922497 c -0.0039,-0.04763 -0.04101,-0.08865 -0.08865,-0.08865 z m 0.353273,0.04498 c -0.05161,0 -0.0913,0.04101 -0.0913,0.0913 l -0.05161,1.874865 0.05161,0.878553 c 0.0039,0.0516 0.04101,0.0913 0.0913,0.0913 0.05028,0 0.0913,-0.04101 0.0913,-0.0913 l 0.05557,-0.878553 -0.05557,-1.874865 c 0,-0.05161 -0.03969,-0.0913 -0.0913,-0.0913 z"
         id="path1-5"
         style="fill:#00cccc;stroke-width:0.264583" />
      <circle
         style="fill:none;fill-opacity:1;stroke:#00cccc;stroke-width:0.793751;stroke-dasharray:none;stroke-opacity:1"
         id="circle36"
         cx="72.098953"
         cy="72.098953"
         r="7.6729159" />
    </g>
    <g
       id="g45"
       inkscape:label="Spotify"
       transform="matrix(3.7795277,0,0,3.7795277,817.62236,330.00001)">
      <g
         id="g38"
         transform="matrix(1.4043035,0,0,1.4043035,-35.858081,-29.009403)"
         style="fill:#00cccc;stroke-width:0.712097">
        <path
           style="fill:#00cccc;stroke-width:0.188409"
           d="m 94.403437,71.614058 c -0.08321,0 -0.134425,-0.0208 -0.206439,-0.06241 -1.139415,-0.680128 -3.1766,-0.843359 -4.495249,-0.47529 -0.05761,0.016 -0.129625,0.04161 -0.206439,0.04161 -0.21124,0 -0.372871,-0.164831 -0.372871,-0.377671 0,-0.217641 0.134426,-0.340864 0.278453,-0.382472 0.563306,-0.164831 1.193826,-0.243246 1.880355,-0.243246 1.168221,0 2.392452,0.243246 3.287021,0.764944 0.124824,0.07201 0.206439,0.171233 0.206439,0.361669 0,0.217641 -0.176033,0.37287 -0.37127,0.37287 z"
           id="path38" />
        <path
           style="fill:#00cccc;stroke-width:0.188409"
           d="m 93.907343,72.833488 c -0.08321,0 -0.139226,-0.03681 -0.196837,-0.06721 -1.000189,-0.592112 -2.491671,-0.830557 -3.818321,-0.470489 -0.07681,0.0208 -0.118423,0.04161 -0.190436,0.04161 -0.171233,0 -0.310459,-0.139227 -0.310459,-0.310459 0,-0.171232 0.08322,-0.284854 0.248047,-0.331263 0.444884,-0.124823 0.89937,-0.217641 1.565096,-0.217641 1.038596,0 2.041986,0.257649 2.832535,0.728138 0.129625,0.07681 0.180834,0.176033 0.180834,0.315259 -0.0016,0.172833 -0.136026,0.312059 -0.310459,0.312059 z"
           id="path37" />
        <path
           style="fill:#00cccc;stroke-width:0.188409"
           d="m 93.476862,73.883287 c -0.06721,0 -0.108821,-0.0208 -0.171232,-0.05761 -0.998589,-0.601714 -2.160408,-0.627319 -3.307825,-0.392074 -0.06241,0.016 -0.144027,0.04161 -0.190436,0.04161 -0.155229,0 -0.252848,-0.123223 -0.252848,-0.252848 0,-0.164831 0.09762,-0.243246 0.217641,-0.268851 1.310648,-0.289655 2.650101,-0.26405 3.792717,0.419279 0.09762,0.06241 0.155229,0.118423 0.155229,0.26405 0,0.145628 -0.113621,0.246447 -0.243246,0.246447 z"
           id="path36" />
      </g>
      <circle
         style="fill:none;fill-opacity:1;stroke:#00cccc;stroke-width:0.793751;stroke-dasharray:none;stroke-opacity:1"
         id="circle38"
         cx="93.26561"
         cy="72.098953"
         r="7.6729159" />
    </g>
    <g
       id="g46"
       inkscape:label="YouTube Music"
       transform="matrix(3.7795277,0,0,3.7795277,1137.6223,350.00004)">
      <g
         style="fill:#00cccc;stroke-width:14.7958"
         id="g39"
         transform="matrix(0.44705715,0,0,0.44705715,1.446045,86.112483)">
        <path
           id="path39"
           style="fill:#00cccc;stroke-width:14.7958"
           d="m 16,8.217 c -4.298,0 -7.783,3.484 -7.783,7.783 0,4.299 3.484,7.783 7.783,7.783 4.298,0 7.783,-3.484 7.783,-7.783 v 0 C 23.776,11.704 20.296,8.224 16.001,8.217 Z m 0,16.66 c 0,0 0,0 0,0 -4.903,0 -8.877,-3.975 -8.877,-8.877 0,-4.902 3.975,-8.877 8.877,-8.877 4.903,0 8.877,3.975 8.877,8.877 0,0 0,0 0,0 v 0 c 0,0 0,0.001 0,0.001 0,4.902 -3.974,8.877 -8.877,8.877 0,0 -10e-4,0 -10e-4,0 v 0 z" />
        <path
           style="fill:#00cccc;stroke-width:14.7958"
           d="m 13.106,20.424 v -8.847 l 7.663,4.424 z"
           id="path1-9" />
      </g>
      <circle
         style="fill:none;fill-opacity:1;stroke:#00cccc;stroke-width:0.793751;stroke-dasharray:none;stroke-opacity:1"
         id="circle41"
         cx="8.5989609"
         cy="93.26561"
         r="7.6729159" />
    </g>
    <g
       id="g47"
       inkscape:label="Amazon Music"
       transform="matrix(3.7795277,0,0,3.7795277,1057.6223,447.00004)">
      <g
         transform="matrix(0.09511399,0,0,0.09511399,25.481479,89.080607)"
         id="g923"
         style="fill:#00cccc;stroke-width:2.78175">
	
		<linearGradient
   gradientTransform="matrix(90.9945,-90.9945,-90.9945,-90.9945,64008.539,390.498)"
   y2="353.3577"
   x2="-349.23441"
   y1="353.3577"
   x1="-349.85849"
   gradientUnits="userSpaceOnUse"
   id="SVGID_1_">
		<stop
   id="stop835"
   style="stop-color:#0C6CB3"
   offset="0" />


		<stop
   id="stop837"
   style="stop-color:#1E84C4"
   offset="0.2911" />


		<stop
   id="stop839"
   style="stop-color:#4CC0EF"
   offset="0.8873" />


		<stop
   id="stop841"
   style="stop-color:#4CC0EF"
   offset="1" />


	</linearGradient>


	<path
   inkscape:connector-curvature="0"
   style="fill:#00cccc;stroke:#00cccc;stroke-width:1.39087;stroke-dasharray:none;stroke-opacity:1"
   id="path844"
   d="m 59.7,40.5 c -0.6,0.4 -1.5,0.7 -2.6,0.7 -1.7,0 -3.3,-0.2 -4.9,-0.7 -0.4,-0.1 -0.7,-0.2 -0.9,-0.2 -0.3,0 -0.4,0.2 -0.4,0.6 v 1 c 0,0.3 0.1,0.5 0.2,0.7 0.1,0.1 0.3,0.3 0.6,0.4 1.6,0.7 3.4,1 5.4,1 2.1,0 3.7,-0.5 5,-1.5 1.3,-1 1.9,-2.3 1.9,-4 0,-1.2 -0.3,-2.1 -0.9,-2.9 -0.6,-0.7 -1.6,-1.4 -3,-1.9 l -2.8,-1.1 c -1.1,-0.4 -1.9,-0.8 -2.2,-1.2 -0.4,-0.4 -0.6,-0.8 -0.6,-1.5 0,-1.5 1.1,-2.3 3.4,-2.3 1.3,0 2.6,0.2 3.8,0.6 0.4,0.1 0.7,0.2 0.8,0.2 0.3,0 0.5,-0.2 0.5,-0.6 v -1 c 0,-0.3 -0.1,-0.5 -0.2,-0.7 -0.1,-0.2 -0.3,-0.3 -0.6,-0.4 -1.5,-0.5 -3,-0.8 -4.5,-0.8 -1.9,0 -3.5,0.5 -4.7,1.4 -1.2,0.9 -1.8,2.2 -1.8,3.7 0,2.3 1.3,4 3.9,5 l 3,1.1 c 1,0.4 1.6,0.7 2,1.1 0.4,0.4 0.5,0.8 0.5,1.4 0,0.8 -0.3,1.5 -0.9,1.9 z"
   class="st0" />


	
		<linearGradient
   gradientTransform="matrix(90.9945,-90.9945,-90.9945,-90.9945,64008.539,390.498)"
   y2="353.4541"
   x2="-349.23441"
   y1="353.4541"
   x1="-349.85849"
   gradientUnits="userSpaceOnUse"
   id="SVGID_2_">
		<stop
   id="stop846"
   style="stop-color:#0C6CB3"
   offset="0" />


		<stop
   id="stop848"
   style="stop-color:#1E84C4"
   offset="0.2911" />


		<stop
   id="stop850"
   style="stop-color:#4CC0EF"
   offset="0.8873" />


		<stop
   id="stop852"
   style="stop-color:#4CC0EF"
   offset="1" />


	</linearGradient>


	<path
   inkscape:connector-curvature="0"
   style="fill:#00cccc;stroke:#00cccc;stroke-width:1.39087;stroke-dasharray:none;stroke-opacity:1"
   id="path855"
   d="m 44,26.1 v 13.3 c -1.7,1.1 -3.4,1.7 -5.1,1.7 -1.1,0 -1.9,-0.3 -2.4,-0.9 C 36,39.6 35.8,38.7 35.8,37.4 V 26.1 c 0,-0.5 -0.2,-0.7 -0.7,-0.7 H 33 c -0.5,0 -0.7,0.2 -0.7,0.7 v 12.4 c 0,1.7 0.4,3.1 1.3,4 0.9,0.9 2.2,1.4 3.9,1.4 2.3,0 4.6,-0.8 6.8,-2.4 l 0.2,1.2 c 0,0.3 0.1,0.4 0.3,0.5 0.1,0.1 0.3,0.1 0.6,0.1 h 1.5 c 0.5,0 0.7,-0.2 0.7,-0.7 V 26.1 c 0,-0.5 -0.2,-0.7 -0.7,-0.7 h -2.1 c -0.6,0 -0.8,0.3 -0.8,0.7 z"
   class="st1" />


	
		<linearGradient
   gradientTransform="matrix(90.9945,-90.9945,-90.9945,-90.9945,64008.539,390.498)"
   y2="353.59329"
   x2="-349.23441"
   y1="353.59329"
   x1="-349.85849"
   gradientUnits="userSpaceOnUse"
   id="SVGID_3_">
		<stop
   id="stop857"
   style="stop-color:#0C6CB3"
   offset="0" />


		<stop
   id="stop859"
   style="stop-color:#1E84C4"
   offset="0.2911" />


		<stop
   id="stop861"
   style="stop-color:#4CC0EF"
   offset="0.8873" />


		<stop
   id="stop863"
   style="stop-color:#4CC0EF"
   offset="1" />


	</linearGradient>


	<path
   inkscape:connector-curvature="0"
   style="fill:#00cccc;stroke:#00cccc;stroke-width:1.39087;stroke-dasharray:none;stroke-opacity:1"
   id="path866"
   d="m 25,43.4 h 2.1 c 0.5,0 0.7,-0.2 0.7,-0.7 V 30.2 c 0,-1.7 -0.4,-3 -1.3,-3.9 -0.9,-0.9 -2.1,-1.4 -3.8,-1.4 -2.3,0 -4.7,0.8 -7,2.5 -0.8,-1.7 -2.3,-2.5 -4.5,-2.5 -2.2,0 -4.4,0.8 -6.6,2.3 L 4.4,26.1 C 4.4,25.8 4.3,25.7 4.1,25.6 4,25.5 3.8,25.5 3.6,25.5 H 2 c -0.5,0 -0.7,0.2 -0.7,0.7 v 16.6 c 0,0.5 0.2,0.7 0.7,0.7 h 2.1 c 0.5,0 0.7,-0.2 0.7,-0.7 V 29.3 c 1.7,-1 3.4,-1.6 5.2,-1.6 1,0 1.7,0.3 2.1,0.9 0.4,0.6 0.7,1.4 0.7,2.6 v 11.5 c 0,0.5 0.2,0.7 0.7,0.7 h 2.1 c 0.5,0 0.7,-0.2 0.7,-0.7 V 30.4 29.8 c 0,-0.2 0,-0.4 0,-0.5 1.8,-1.1 3.5,-1.6 5.2,-1.6 1,0 1.7,0.3 2.1,0.9 0.4,0.6 0.7,1.4 0.7,2.6 v 11.5 c 0,0.5 0.2,0.7 0.7,0.7 z"
   class="st2" />


	
		<linearGradient
   gradientTransform="matrix(90.9945,-90.9945,-90.9945,-90.9945,64008.539,390.498)"
   y2="353.33289"
   x2="-349.23441"
   y1="353.33289"
   x1="-349.85849"
   gradientUnits="userSpaceOnUse"
   id="SVGID_4_">
		<stop
   id="stop868"
   style="stop-color:#0C6CB3"
   offset="0" />


		<stop
   id="stop870"
   style="stop-color:#1E84C4"
   offset="0.2911" />


		<stop
   id="stop872"
   style="stop-color:#4CC0EF"
   offset="0.8873" />


		<stop
   id="stop874"
   style="stop-color:#4CC0EF"
   offset="1" />


	</linearGradient>


	<path
   inkscape:connector-curvature="0"
   style="fill:#00cccc;stroke-width:2.78175"
   id="path877"
   d="m 79.5,56.7 c -10.9,4.6 -22.8,6.9 -33.6,6.9 -16,0 -31.5,-4.4 -44,-11.7 -0.2,-0.1 -0.4,-0.2 -0.6,-0.2 -0.7,0 -1.1,0.8 -0.4,1.5 11.6,10.5 27,16.8 44,16.8 12.2,0 26.3,-3.8 36,-11 1.7,-1.2 0.3,-3 -1.4,-2.3 z"
   class="st3" />


	
		<linearGradient
   gradientTransform="matrix(90.9945,-90.9945,-90.9945,-90.9945,64008.539,390.498)"
   y2="353.21909"
   x2="-349.23441"
   y1="353.21909"
   x1="-349.85849"
   gradientUnits="userSpaceOnUse"
   id="SVGID_5_">
		<stop
   id="stop879"
   style="stop-color:#0C6CB3"
   offset="0" />


		<stop
   id="stop881"
   style="stop-color:#1E84C4"
   offset="0.2911" />


		<stop
   id="stop883"
   style="stop-color:#4CC0EF"
   offset="0.8873" />


		<stop
   id="stop885"
   style="stop-color:#4CC0EF"
   offset="1" />


	</linearGradient>


	<path
   inkscape:connector-curvature="0"
   style="fill:#00cccc;stroke:#00cccc;stroke-width:1.39087;stroke-dasharray:none;stroke-opacity:1"
   id="path888"
   d="m 79.2,29.4 c 0.9,-1 2.3,-1.5 4.3,-1.5 1,0 2,0.1 2.9,0.4 0.3,0.1 0.4,0.1 0.6,0.1 0.3,0 0.5,-0.2 0.5,-0.7 v -1 C 87.5,26.4 87.4,26.1 87.3,26 87.2,25.9 87,25.7 86.8,25.6 85.5,25.3 84.2,25 83,25 c -2.8,0 -4.9,0.8 -6.5,2.5 -1.5,1.6 -2.3,4 -2.3,7 0,3 0.7,5.3 2.2,6.9 1.5,1.6 3.6,2.4 6.4,2.4 1.5,0 2.9,-0.2 4,-0.7 0.3,-0.1 0.5,-0.2 0.6,-0.4 0.1,-0.1 0.1,-0.4 0.1,-0.7 v -1 c 0,-0.5 -0.2,-0.7 -0.5,-0.7 -0.1,0 -0.3,0 -0.5,0.1 -1.1,0.3 -2.2,0.5 -3.2,0.5 -1.9,0 -3.3,-0.5 -4.2,-1.5 -0.9,-1 -1.3,-2.6 -1.3,-4.7 v -0.5 c 0.1,-2.2 0.5,-3.8 1.4,-4.8 z"
   class="st4" />


	
		<linearGradient
   gradientTransform="matrix(90.9945,-90.9945,-90.9945,-90.9945,64008.539,390.498)"
   y2="353.10449"
   x2="-349.23441"
   y1="353.10449"
   x1="-349.85849"
   gradientUnits="userSpaceOnUse"
   id="SVGID_6_">
		<stop
   id="stop890"
   style="stop-color:#0C6CB3"
   offset="0" />


		<stop
   id="stop892"
   style="stop-color:#1E84C4"
   offset="0.2911" />


		<stop
   id="stop894"
   style="stop-color:#4CC0EF"
   offset="0.8873" />


		<stop
   id="stop896"
   style="stop-color:#4CC0EF"
   offset="1" />


	</linearGradient>


	<path
   inkscape:connector-curvature="0"
   style="fill:#00cccc;stroke-width:2.78175"
   id="path899"
   d="M 83.7,66.1 C 88.9,61.7 90.3,52.6 89.2,51.2 88.7,50.6 86.3,50 83.3,50 c -3.2,0 -7,0.7 -9.9,2.7 -0.9,0.6 -0.7,1.4 0.2,1.3 3.1,-0.4 10.1,-1.2 11.4,0.4 1.2,1.6 -1.4,8.2 -2.6,11.1 -0.3,0.9 0.4,1.2 1.3,0.6 z"
   class="st5" />


	
		<linearGradient
   gradientTransform="matrix(90.9945,-90.9945,-90.9945,-90.9945,64008.539,390.498)"
   y2="353.2955"
   x2="-349.23441"
   y1="353.2955"
   x1="-349.85849"
   gradientUnits="userSpaceOnUse"
   id="SVGID_7_">
		<stop
   id="stop901"
   style="stop-color:#0C6CB3"
   offset="0" />


		<stop
   id="stop903"
   style="stop-color:#1E84C4"
   offset="0.2911" />


		<stop
   id="stop905"
   style="stop-color:#4CC0EF"
   offset="0.8873" />


		<stop
   id="stop907"
   style="stop-color:#4CC0EF"
   offset="1" />


	</linearGradient>


	<path
   inkscape:connector-curvature="0"
   style="fill:#00cccc;stroke:#00cccc;stroke-width:1.39087;stroke-dasharray:none;stroke-opacity:1"
   id="path910"
   d="m 69.8,25.4 h -2.1 c -0.5,0 -0.7,0.2 -0.7,0.7 v 16.6 c 0,0.5 0.2,0.7 0.7,0.7 h 2.1 c 0.5,0 0.7,-0.2 0.7,-0.7 V 26.1 c 0,-0.4 -0.2,-0.7 -0.7,-0.7 z"
   class="st6" />


	
		<linearGradient
   gradientTransform="matrix(90.9945,-90.9945,-90.9945,-90.9945,64008.539,390.498)"
   y2="353.37411"
   x2="-349.23441"
   y1="353.37411"
   x1="-349.85849"
   gradientUnits="userSpaceOnUse"
   id="SVGID_8_">
		<stop
   id="stop912"
   style="stop-color:#0C6CB3"
   offset="0" />


		<stop
   id="stop914"
   style="stop-color:#1E84C4"
   offset="0.2911" />


		<stop
   id="stop916"
   style="stop-color:#4CC0EF"
   offset="0.8873" />


		<stop
   id="stop918"
   style="stop-color:#4CC0EF"
   offset="1" />


	</linearGradient>


	<path
   inkscape:connector-curvature="0"
   style="fill:#00cccc;stroke:#00cccc;stroke-width:1.39087;stroke-dasharray:none;stroke-opacity:1"
   id="path921"
   d="M 70.4,18.6 C 70,18.2 69.4,18 68.7,18 c -0.7,0 -1.2,0.2 -1.6,0.6 -0.4,0.4 -0.6,0.9 -0.6,1.5 0,0.6 0.2,1.2 0.6,1.5 0.4,0.4 0.9,0.6 1.6,0.6 0.7,0 1.2,-0.2 1.6,-0.6 0.4,-0.4 0.6,-0.9 0.6,-1.5 0,-0.6 -0.1,-1.2 -0.5,-1.5 z"
   class="st7" />


</g>
      <circle
         style="fill:none;fill-opacity:1;stroke:#00cccc;stroke-width:0.793751;stroke-dasharray:none;stroke-opacity:1"
         id="circle42"
         cx="29.765625"
         cy="93.26561"
         r="7.6729159" />
    </g>
    <text
       xml:space="preserve"
       style="font-style:normal;font-variant:normal;font-weight:normal;font-stretch:normal;font-size:26.6667px;font-family:'Josefin Sans';-inkscape-font-specification:'Josefin Sans, Normal';font-variant-ligatures:normal;font-variant-caps:normal;font-variant-numeric:normal;font-variant-east-asian:normal;fill:#00cccc;fill-opacity:1;stroke:none;stroke-width:0.999999;stroke-linecap:round;stroke-linejoin:round;stroke-dasharray:none;stroke-opacity:1"
       x="407.22665"
       y="710"
       id="text4-0"><tspan
         sodipodi:role="line"
         id="tspan4-7"
         x="407.22665"
         y="710"
         style="font-style:normal;font-variant:normal;font-weight:normal;font-stretch:normal;font-size:26.6667px;font-family:'Josefin Sans';-inkscape-font-specification:'Josefin Sans, Normal';font-variant-ligatures:normal;font-variant-caps:normal;font-variant-numeric:normal;font-variant-east-asian:normal;stroke-width:0.999999">Facebook</tspan></text>
    <text
       xml:space="preserve"
       style="font-style:normal;font-variant:normal;font-weight:normal;font-stretch:normal;font-size:26.6667px;font-family:'Josefin Sans';-inkscape-font-specification:'Josefin Sans, Normal';font-variant-ligatures:normal;font-variant-caps:normal;font-variant-numeric:normal;font-variant-east-asian:normal;fill:#00cccc;fill-opacity:1;stroke:none;stroke-width:0.999999;stroke-linecap:round;stroke-linejoin:round;stroke-dasharray:none;stroke-opacity:1"
       x="407.22665"
       y="810"
       id="text4-2"><tspan
         sodipodi:role="line"
         id="tspan4-3"
         x="407.22665"
         y="810"
         style="font-style:normal;font-variant:normal;font-weight:normal;font-stretch:normal;font-size:26.6667px;font-family:'Josefin Sans';-inkscape-font-specification:'Josefin Sans, Normal';font-variant-ligatures:normal;font-variant-caps:normal;font-variant-numeric:normal;font-variant-east-asian:normal;stroke-width:0.999999">Instagram</tspan></text>
    <text
       xml:space="preserve"
       style="font-style:normal;font-variant:normal;font-weight:normal;font-stretch:normal;font-size:26.6667px;font-family:'Josefin Sans';-inkscape-font-specification:'Josefin Sans, Normal';font-variant-ligatures:normal;font-variant-caps:normal;font-variant-numeric:normal;font-variant-east-asian:normal;fill:#00cccc;fill-opacity:1;stroke:none;stroke-width:0.999999;stroke-linecap:round;stroke-linejoin:round;stroke-dasharray:none;stroke-opacity:1"
       x="408.63998"
       y="910"
       id="text4-4"><tspan
         sodipodi:role="line"
         id="tspan4-9"
         x="408.63998"
         y="910"
         style="font-style:normal;font-variant:normal;font-weight:normal;font-stretch:normal;font-size:26.6667px;font-family:'Josefin Sans';-inkscape-font-specification:'Josefin Sans, Normal';font-variant-ligatures:normal;font-variant-caps:normal;font-variant-numeric:normal;font-variant-east-asian:normal;stroke-width:0.999999">Telegram</tspan></text>
    <text
       xml:space="preserve"
       style="font-style:normal;font-variant:normal;font-weight:normal;font-stretch:normal;font-size:26.6667px;font-family:'Josefin Sans';-inkscape-font-specification:'Josefin Sans, Normal';font-variant-ligatures:normal;font-variant-caps:normal;font-variant-numeric:normal;font-variant-east-asian:normal;fill:#00cccc;fill-opacity:1;stroke:none;stroke-width:0.999999;stroke-linecap:round;stroke-linejoin:round;stroke-dasharray:none;stroke-opacity:1"
       x="818.69336"
       y="309.8667"
       id="text4-45"><tspan
         sodipodi:role="line"
         id="tspan4-4"
         x="818.69336"
         y="309.8667"
         style="font-style:normal;font-variant:normal;font-weight:normal;font-stretch:normal;font-size:26.6667px;font-family:'Josefin Sans';-inkscape-font-specification:'Josefin Sans, Normal';font-variant-ligatures:normal;font-variant-caps:normal;font-variant-numeric:normal;font-variant-east-asian:normal;stroke-width:0.999999">Snapchat</tspan></text>
    <text
       xml:space="preserve"
       style="font-style:normal;font-variant:normal;font-weight:normal;font-stretch:normal;font-size:26.6667px;font-family:'Josefin Sans';-inkscape-font-specification:'Josefin Sans, Normal';font-variant-ligatures:normal;font-variant-caps:normal;font-variant-numeric:normal;font-variant-east-asian:normal;fill:#00cccc;fill-opacity:1;stroke:none;stroke-width:0.999999;stroke-linecap:round;stroke-linejoin:round;stroke-dasharray:none;stroke-opacity:1"
       x="818.76233"
       y="410"
       id="text4-1"><tspan
         sodipodi:role="line"
         id="tspan4-8"
         x="818.76233"
         y="410"
         style="font-style:normal;font-variant:normal;font-weight:normal;font-stretch:normal;font-size:26.6667px;font-family:'Josefin Sans';-inkscape-font-specification:'Josefin Sans, Normal';font-variant-ligatures:normal;font-variant-caps:normal;font-variant-numeric:normal;font-variant-east-asian:normal;stroke-width:0.999999">TikTok</tspan></text>
    <text
       xml:space="preserve"
       style="font-style:normal;font-variant:normal;font-weight:normal;font-stretch:normal;font-size:26.6667px;font-family:'Josefin Sans';-inkscape-font-specification:'Josefin Sans, Normal';font-variant-ligatures:normal;font-variant-caps:normal;font-variant-numeric:normal;font-variant-east-asian:normal;fill:#00cccc;fill-opacity:1;stroke:none;stroke-width:0.999999;stroke-linecap:round;stroke-linejoin:round;stroke-dasharray:none;stroke-opacity:1"
       x="818.76233"
       y="510"
       id="text4-01"><tspan
         sodipodi:role="line"
         id="tspan4-0"
         x="818.76233"
         y="510"
         style="font-style:normal;font-variant:normal;font-weight:normal;font-stretch:normal;font-size:26.6667px;font-family:'Josefin Sans';-inkscape-font-specification:'Josefin Sans, Normal';font-variant-ligatures:normal;font-variant-caps:normal;font-variant-numeric:normal;font-variant-east-asian:normal;stroke-width:0.999999">Twitch</tspan></text>
    <text
       xml:space="preserve"
       style="font-style:normal;font-variant:normal;font-weight:normal;font-stretch:normal;font-size:26.6667px;font-family:'Josefin Sans';-inkscape-font-specification:'Josefin Sans, Normal';font-variant-ligatures:normal;font-variant-caps:normal;font-variant-numeric:normal;font-variant-east-asian:normal;fill:#00cccc;fill-opacity:1;stroke:none;stroke-width:0.999999;stroke-linecap:round;stroke-linejoin:round;stroke-dasharray:none;stroke-opacity:1"
       x="819.37567"
       y="610"
       id="text4-16"><tspan
         sodipodi:role="line"
         id="tspan4-04"
         x="819.37567"
         y="610"
         style="font-style:normal;font-variant:normal;font-weight:normal;font-stretch:normal;font-size:26.6667px;font-family:'Josefin Sans';-inkscape-font-specification:'Josefin Sans, Normal';font-variant-ligatures:normal;font-variant-caps:normal;font-variant-numeric:normal;font-variant-east-asian:normal;stroke-width:0.999999">YouTube</tspan></text>
    <text
       xml:space="preserve"
       style="font-style:normal;font-variant:normal;font-weight:normal;font-stretch:normal;font-size:26.6667px;font-family:'Josefin Sans';-inkscape-font-specification:'Josefin Sans, Normal';font-variant-ligatures:normal;font-variant-caps:normal;font-variant-numeric:normal;font-variant-east-asian:normal;fill:#00cccc;fill-opacity:1;stroke:none;stroke-width:0.999999;stroke-linecap:round;stroke-linejoin:round;stroke-dasharray:none;stroke-opacity:1"
       x="817.349"
       y="710"
       id="text4-9"><tspan
         sodipodi:role="line"
         id="tspan4-02"
         x="817.349"
         y="710"
         style="font-style:normal;font-variant:normal;font-weight:normal;font-stretch:normal;font-size:26.6667px;font-family:'Josefin Sans';-inkscape-font-specification:'Josefin Sans, Normal';font-variant-ligatures:normal;font-variant-caps:normal;font-variant-numeric:normal;font-variant-east-asian:normal;stroke-width:0.999999">Blog</tspan></text>
    <text
       xml:space="preserve"
       style="font-style:normal;font-variant:normal;font-weight:normal;font-stretch:normal;font-size:26.6667px;font-family:'Josefin Sans';-inkscape-font-specification:'Josefin Sans, Normal';font-variant-ligatures:normal;font-variant-caps:normal;font-variant-numeric:normal;font-variant-east-asian:normal;fill:#00cccc;fill-opacity:1;stroke:none;stroke-width:0.999999;stroke-linecap:round;stroke-linejoin:round;stroke-dasharray:none;stroke-opacity:1"
       x="817.349"
       y="810"
       id="text4-25"><tspan
         sodipodi:role="line"
         id="tspan4-2"
         x="817.349"
         y="810"
         style="font-style:normal;font-variant:normal;font-weight:normal;font-stretch:normal;font-size:26.6667px;font-family:'Josefin Sans';-inkscape-font-specification:'Josefin Sans, Normal';font-variant-ligatures:normal;font-variant-caps:normal;font-variant-numeric:normal;font-variant-east-asian:normal;stroke-width:0.999999">Discord Profile</tspan></text>
    <text
       xml:space="preserve"
       style="font-style:normal;font-variant:normal;font-weight:normal;font-stretch:normal;font-size:26.6667px;font-family:'Josefin Sans';-inkscape-font-specification:'Josefin Sans, Normal';font-variant-ligatures:normal;font-variant-caps:normal;font-variant-numeric:normal;font-variant-east-asian:normal;fill:#00cccc;fill-opacity:1;stroke:none;stroke-width:0.999999;stroke-linecap:round;stroke-linejoin:round;stroke-dasharray:none;stroke-opacity:1"
       x="819.02899"
       y="910"
       id="text4-5"><tspan
         sodipodi:role="line"
         id="tspan4-79"
         x="819.02899"
         y="910"
         style="font-style:normal;font-variant:normal;font-weight:normal;font-stretch:normal;font-size:26.6667px;font-family:'Josefin Sans';-inkscape-font-specification:'Josefin Sans, Normal';font-variant-ligatures:normal;font-variant-caps:normal;font-variant-numeric:normal;font-variant-east-asian:normal;stroke-width:0.999999">WhatsApp</tspan></text>
    <text
       xml:space="preserve"
       style="font-style:normal;font-variant:normal;font-weight:normal;font-stretch:normal;font-size:26.6667px;font-family:'Josefin Sans';-inkscape-font-specification:'Josefin Sans, Normal';font-variant-ligatures:normal;font-variant-caps:normal;font-variant-numeric:normal;font-variant-east-asian:normal;fill:#00cccc;fill-opacity:1;stroke:none;stroke-width:0.999999;stroke-linecap:round;stroke-linejoin:round;stroke-dasharray:none;stroke-opacity:1"
       x="1229.3912"
       y="310"
       id="text4-7"><tspan
         sodipodi:role="line"
         id="tspan4-1"
         x="1229.3912"
         y="310"
         style="font-style:normal;font-variant:normal;font-weight:normal;font-stretch:normal;font-size:26.6667px;font-family:'Josefin Sans';-inkscape-font-specification:'Josefin Sans, Normal';font-variant-ligatures:normal;font-variant-caps:normal;font-variant-numeric:normal;font-variant-east-asian:normal;stroke-width:0.999999">Apple Music</tspan></text>
    <text
       xml:space="preserve"
       style="font-style:normal;font-variant:normal;font-weight:normal;font-stretch:normal;font-size:26.6667px;font-family:'Josefin Sans';-inkscape-font-specification:'Josefin Sans, Normal';font-variant-ligatures:normal;font-variant-caps:normal;font-variant-numeric:normal;font-variant-east-asian:normal;fill:#00cccc;fill-opacity:1;stroke:none;stroke-width:0.999999;stroke-linecap:round;stroke-linejoin:round;stroke-dasharray:none;stroke-opacity:1"
       x="1227.4713"
       y="410"
       id="text4-8"><tspan
         sodipodi:role="line"
         id="tspan4-049"
         x="1227.4713"
         y="410"
         style="font-style:normal;font-variant:normal;font-weight:normal;font-stretch:normal;font-size:26.6667px;font-family:'Josefin Sans';-inkscape-font-specification:'Josefin Sans, Normal';font-variant-ligatures:normal;font-variant-caps:normal;font-variant-numeric:normal;font-variant-east-asian:normal;stroke-width:0.999999">Bandcamp</tspan></text>
    <text
       xml:space="preserve"
       style="font-style:normal;font-variant:normal;font-weight:normal;font-stretch:normal;font-size:26.6667px;font-family:'Josefin Sans';-inkscape-font-specification:'Josefin Sans, Normal';font-variant-ligatures:normal;font-variant-caps:normal;font-variant-numeric:normal;font-variant-east-asian:normal;fill:#00cccc;fill-opacity:1;stroke:none;stroke-width:0.999999;stroke-linecap:round;stroke-linejoin:round;stroke-dasharray:none;stroke-opacity:1"
       x="1228.938"
       y="510"
       id="text4-00"><tspan
         sodipodi:role="line"
         id="tspan4-15"
         x="1228.938"
         y="510"
         style="font-style:normal;font-variant:normal;font-weight:normal;font-stretch:normal;font-size:26.6667px;font-family:'Josefin Sans';-inkscape-font-specification:'Josefin Sans, Normal';font-variant-ligatures:normal;font-variant-caps:normal;font-variant-numeric:normal;font-variant-east-asian:normal;stroke-width:0.999999">Soundcloud</tspan></text>
    <text
       xml:space="preserve"
       style="font-style:normal;font-variant:normal;font-weight:normal;font-stretch:normal;font-size:26.6667px;font-family:'Josefin Sans';-inkscape-font-specification:'Josefin Sans, Normal';font-variant-ligatures:normal;font-variant-caps:normal;font-variant-numeric:normal;font-variant-east-asian:normal;fill:#00cccc;fill-opacity:1;stroke:none;stroke-width:0.999999;stroke-linecap:round;stroke-linejoin:round;stroke-dasharray:none;stroke-opacity:1"
       x="1228.938"
       y="610"
       id="text4-6"><tspan
         sodipodi:role="line"
         id="tspan4-31"
         x="1228.938"
         y="610"
         style="font-style:normal;font-variant:normal;font-weight:normal;font-stretch:normal;font-size:26.6667px;font-family:'Josefin Sans';-inkscape-font-specification:'Josefin Sans, Normal';font-variant-ligatures:normal;font-variant-caps:normal;font-variant-numeric:normal;font-variant-east-asian:normal;stroke-width:0.999999">Spotify</tspan></text>
    <text
       xml:space="preserve"
       style="font-style:normal;font-variant:normal;font-weight:normal;font-stretch:normal;font-size:26.6667px;font-family:'Josefin Sans';-inkscape-font-specification:'Josefin Sans, Normal';font-variant-ligatures:normal;font-variant-caps:normal;font-variant-numeric:normal;font-variant-east-asian:normal;fill:#00cccc;fill-opacity:1;stroke:none;stroke-width:0.999999;stroke-linecap:round;stroke-linejoin:round;stroke-dasharray:none;stroke-opacity:1"
       x="1229.4979"
       y="710"
       id="text4-20"><tspan
         sodipodi:role="line"
         id="tspan4-6"
         x="1229.4979"
         y="710"
         style="font-style:normal;font-variant:normal;font-weight:normal;font-stretch:normal;font-size:26.6667px;font-family:'Josefin Sans';-inkscape-font-specification:'Josefin Sans, Normal';font-variant-ligatures:normal;font-variant-caps:normal;font-variant-numeric:normal;font-variant-east-asian:normal;stroke-width:0.999999">YouTube Music</tspan></text>
    <text
       xml:space="preserve"
       style="font-style:normal;font-variant:normal;font-weight:normal;font-stretch:normal;font-size:26.6667px;font-family:'Josefin Sans';-inkscape-font-specification:'Josefin Sans, Normal';font-variant-ligatures:normal;font-variant-caps:normal;font-variant-numeric:normal;font-variant-east-asian:normal;fill:#00cccc;fill-opacity:1;stroke:none;stroke-width:0.999999;stroke-linecap:round;stroke-linejoin:round;stroke-dasharray:none;stroke-opacity:1"
       x="1229.3912"
       y="810"
       id="text4-63"><tspan
         sodipodi:role="line"
         id="tspan4-14"
         x="1229.3912"
         y="810"
         style="font-style:normal;font-variant:normal;font-weight:normal;font-stretch:normal;font-size:26.6667px;font-family:'Josefin Sans';-inkscape-font-specification:'Josefin Sans, Normal';font-variant-ligatures:normal;font-variant-caps:normal;font-variant-numeric:normal;font-variant-east-asian:normal;stroke-width:0.999999">Amazon Music</tspan></text>
    <g
       id="g23"
       inkscape:label="Steam"
       transform="matrix(3.7795277,0,0,3.7795277,897.62232,707.5)">
      <circle
         style="fill:none;fill-opacity:1;stroke:#00cccc;stroke-width:0.793751;stroke-dasharray:none;stroke-opacity:1"
         id="circle20-2"
         cx="72.098953"
         cy="50.932289"
         r="7.6729159" />
      <path
         d="m 75.137527,49.540614 c 0,0.598856 -0.487234,1.080776 -1.080775,1.080776 -0.598856,0 -1.080776,-0.483692 -1.080776,-1.080776 0,-0.597084 0.483692,-1.080776 1.080776,-1.080776 0.593541,0 1.080775,0.48192 1.080775,1.080776 z m 0.930176,0.0035 c 0,1.11621 -0.903599,2.016266 -2.014495,2.016266 l -1.936537,1.413867 c -0.07087,0.761859 -0.717564,1.360715 -1.49714,1.360715 -0.717565,0 -1.323508,-0.510268 -1.470564,-1.187082 l -1.018764,-0.409277 v -1.901102 l 1.722154,0.696303 c 0.267536,-0.163003 0.570508,-0.235645 0.921317,-0.203753 l 1.257952,-1.801884 c 0.0089,-1.103808 0.912458,-1.998549 2.019811,-1.998549 1.112667,0 2.016266,0.9036 2.016266,2.014496 z m -4.34082,3.283077 c 0,-0.614802 -0.49255,-1.107352 -1.107352,-1.107352 -0.07973,0 -0.159459,0.0089 -0.239188,0.02658 l 0.460658,0.186035 c 0.4518,0.18072 0.67327,0.690988 0.490779,1.142788 -0.18072,0.4518 -0.694532,0.67327 -1.146331,0.487235 -0.18072,-0.07087 -0.363212,-0.147057 -0.543932,-0.216155 0.186035,0.349037 0.55279,0.588225 0.978014,0.588225 0.614802,0 1.107352,-0.49255 1.107352,-1.107352 z m 3.676409,-3.283078 c 0,-0.74414 -0.607715,-1.350083 -1.350084,-1.350083 -0.749456,0 -1.355399,0.605943 -1.355399,1.350083 0,0.747685 0.607715,1.350084 1.355399,1.350084 0.742369,0.0018 1.350084,-0.600628 1.350084,-1.350084 z"
         id="path1-8"
         style="fill:#00cccc;stroke-width:0.264583" />
    </g>
    <text
       xml:space="preserve"
       style="font-style:normal;font-variant:normal;font-weight:normal;font-stretch:normal;font-size:26.6667px;font-family:'Josefin Sans';-inkscape-font-specification:'Josefin Sans, Normal';font-variant-ligatures:normal;font-variant-caps:normal;font-variant-numeric:normal;font-variant-east-asian:normal;fill:#00cccc;fill-opacity:1;stroke:none;stroke-width:0.999999;stroke-linecap:round;stroke-linejoin:round;stroke-dasharray:none;stroke-opacity:1"
       x="1228.938"
       y="910"
       id="text47"><tspan
         sodipodi:role="line"
         id="tspan47"
         x="1228.938"
         y="910"
         style="font-style:normal;font-variant:normal;font-weight:normal;font-stretch:normal;font-size:26.6667px;font-family:'Josefin Sans';-inkscape-font-specification:'Josefin Sans, Normal';font-variant-ligatures:normal;font-variant-caps:normal;font-variant-numeric:normal;font-variant-east-asian:normal;stroke-width:0.999999">Steam</tspan></text>
    <g
       id="g13"
       transform="matrix(0.06345733,0,0,0.06345733,317.38753,767.50984)"
       style="stroke-width:15.7586"
       inkscape:label="Instgram">
      <path
         d="m 512.05274,390.81769 c -67.07741,0 -121.1823,54.10489 -121.1823,121.18231 0,67.07741 54.10489,121.1823 121.1823,121.1823 67.07742,0 121.18231,-54.10489 121.18231,-121.1823 0,-67.07742 -54.10489,-121.18231 -121.18231,-121.18231 z m 0,199.96663 c -43.34719,0 -78.78432,-35.33166 -78.78432,-78.78432 0,-43.45267 35.33166,-78.78432 78.78432,-78.78432 43.45267,0 78.78432,35.33165 78.78432,78.78432 0,43.45266 -35.43712,78.78432 -78.78432,78.78432 z M 666.45735,385.86071 c 0,15.71468 -12.65611,28.26533 -28.26532,28.26533 -15.71468,0 -28.26532,-12.65612 -28.26532,-28.26533 0,-15.60921 12.65611,-28.26532 28.26532,-28.26532 15.60921,0 28.26532,12.65611 28.26532,28.26532 z m 80.26087,28.6872 c -1.79295,-37.86288 -10.44129,-71.40159 -38.17928,-99.03411 -27.63252,-27.63252 -61.17123,-36.28086 -99.03411,-38.17928 -39.02302,-2.21482 -155.98662,-2.21482 -195.00964,0 -37.75741,1.79295 -71.29612,10.4413 -99.03411,38.07382 -27.73798,27.63251 -36.28086,61.17122 -38.17928,99.0341 -2.21482,39.02302 -2.21482,155.98662 0,195.00965 1.79295,37.86288 10.4413,71.40158 38.17928,99.0341 27.73799,27.63252 61.17123,36.28087 99.03411,38.17928 39.02302,2.21482 155.98662,2.21482 195.00964,0 37.86288,-1.79295 71.40159,-10.44129 99.03411,-38.17928 27.63252,-27.63252 36.28086,-61.17122 38.17928,-99.0341 2.21482,-39.02303 2.21482,-155.88116 0,-194.90418 z m -50.41353,236.77483 c -8.22647,20.67165 -24.15208,36.59726 -44.92921,44.92921 -31.11295,12.33971 -104.94029,9.49208 -139.32274,9.49208 -34.38244,0 -108.31525,2.74216 -139.32273,-9.49208 -20.67166,-8.22648 -36.59727,-24.15209 -44.92922,-44.92921 C 315.46108,620.20979 318.30871,546.38244 318.30871,512 c 0,-34.38245 -2.74216,-108.31526 9.49208,-139.32274 8.22648,-20.67166 24.15209,-36.59727 44.92922,-44.92921 31.11295,-12.33971 104.94029,-9.49209 139.32273,-9.49209 34.38245,0 108.31526,-2.74216 139.32274,9.49209 20.67166,8.22647 36.59727,24.15209 44.92921,44.92921 12.33972,31.11295 9.49209,104.94029 9.49209,139.32274 0,34.38244 2.84763,108.31525 -9.49209,139.32274 z"
         id="path5716"
         style="fill:#00cccc;stroke-width:0;stroke-dasharray:none" />
      <circle
         style="fill:none;fill-opacity:1;stroke:#00cccc;stroke-width:47.2759;stroke-dasharray:none;stroke-opacity:1"
         id="path1639-0"
         cx="512"
         cy="512"
         r="457" />
    </g>
  </g>
  <g
     inkscape:groupmode="layer"
     id="layer2"
     inkscape:label="Guides"
     style="display:none">
    <rect
       style="fill:#4682b4;stroke:none;stroke-width:0.5;stroke-linecap:round;stroke-linejoin:round"
       id="rect30"
       width="80"
       height="80"
       x="130.37077"
       y="260"
       transform="translate(-310,-260)" />
    <rect
       style="fill:#4682b4;stroke:none;stroke-width:0.5;stroke-linecap:round;stroke-linejoin:round"
       id="rect31"
       width="80"
       height="80"
       x="130.37077"
       y="360"
       transform="translate(-310,-260)" />
    <rect
       style="fill:#4682b4;stroke:none;stroke-width:0.5;stroke-linecap:round;stroke-linejoin:round"
       id="rect32"
       width="80"
       height="80"
       x="130.37077"
       y="460"
       transform="translate(-310,-260)" />
    <rect
       style="fill:#4682b4;stroke:none;stroke-width:0.5;stroke-linecap:round;stroke-linejoin:round"
       id="rect33"
       width="80"
       height="80"
       x="130.37077"
       y="560"
       transform="translate(-310,-260)" />
    <rect
       style="fill:#4682b4;stroke:none;stroke-width:0.5;stroke-linecap:round;stroke-linejoin:round"
       id="rect34"
       width="80"
       height="80"
       x="130"
       y="660"
       transform="translate(-310,-260)" />
    <rect
       style="fill:#4682b4;stroke:none;stroke-width:0.5;stroke-linecap:round;stroke-linejoin:round"
       id="rect35"
       width="80"
       height="80"
       x="130"
       y="760"
       transform="translate(-310,-260)" />
    <rect
       style="fill:#4682b4;stroke:none;stroke-width:0.5;stroke-linecap:round;stroke-linejoin:round"
       id="rect28"
       width="80"
       height="80"
       x="410"
       y="-160" />
    <rect
       style="fill:#4682b4;stroke:none;stroke-width:0.5;stroke-linecap:round;stroke-linejoin:round"
       id="rect13"
       width="80"
       height="80"
       x="309.87769"
       y="99.7967"
       transform="translate(-310,-260)" />
    <rect
       style="fill:#4682b4;fill-opacity:1;stroke:none;stroke-width:0.5;stroke-linecap:round;stroke-linejoin:round"
       id="rect23"
       width="270"
       height="80"
       x="410"
       y="99.796692"
       transform="translate(-310,-260)" />
    <rect
       style="fill:#4682b4;stroke:none;stroke-width:0.5;stroke-linecap:round;stroke-linejoin:round"
       id="rect47"
       width="80"
       height="80"
       x="130"
       y="860"
       transform="translate(-310,-260)" />
    <rect
       style="fill:#4682b4;fill-opacity:1;stroke:none;stroke-width:0.5;stroke-linecap:round;stroke-linejoin:round"
       id="rect29"
       width="270"
       height="80"
       x="510.12231"
       y="-160" />
    <rect
       style="fill:#4682b4;stroke:none;stroke-width:0.5;stroke-linecap:round;stroke-linejoin:round"
       id="rect41"
       width="80"
       height="80"
       x="820.12231"
       y="-160" />
    <rect
       style="fill:#4682b4;fill-opacity:1;stroke:none;stroke-width:0.5;stroke-linecap:round;stroke-linejoin:round"
       id="rect42"
       width="270"
       height="80"
       x="920.24463"
       y="-160" />
  </g>
</svg>
