<?xml version="1.0" encoding="UTF-8" standalone="no"?>
<!-- Created with Inkscape (http://www.inkscape.org/) -->

<svg
   width="64"
   height="64"
   viewBox="0 0 64 64.000003"
   version="1.1"
   id="svg1"
   inkscape:version="1.4 (86a8ad7, 2024-10-11)"
   sodipodi:docname="∴ follow me.svg"
   inkscape:export-batch-path="."
   inkscape:export-batch-name=""
   xmlns:inkscape="http://www.inkscape.org/namespaces/inkscape"
   xmlns:sodipodi="http://sodipodi.sourceforge.net/DTD/sodipodi-0.dtd"
   xmlns:xlink="http://www.w3.org/1999/xlink"
   xmlns="http://www.w3.org/2000/svg"
   xmlns:svg="http://www.w3.org/2000/svg">
  <sodipodi:namedview
     id="namedview1"
     pagecolor="#ffffff"
     bordercolor="#000000"
     borderopacity="0.25"
     inkscape:showpageshadow="2"
     inkscape:pageopacity="0.0"
     inkscape:pagecheckerboard="0"
     inkscape:deskcolor="#d1d1d1"
     inkscape:document-units="px"
     inkscape:zoom="0.75087439"
     inkscape:cx="837.02415"
     inkscape:cy="222.40737"
     inkscape:window-width="2516"
     inkscape:window-height="1417"
     inkscape:window-x="36"
     inkscape:window-y="-8"
     inkscape:window-maximized="1"
     inkscape:current-layer="svg1">
    <inkscape:page
       x="0"
       y="0"
       width="64"
       height="64"
       id="page8"
       margin="0"
       bleed="0"
       inkscape:label="BlueSky" />
    <inkscape:page
       x="74"
       y="0"
       width="64"
       height="64"
       id="page9"
       margin="0"
       bleed="0"
       inkscape:label="Mastodon" />
    <inkscape:page
       x="148"
       y="0"
       width="64"
       height="64"
       id="page10"
       margin="0"
       bleed="0"
       inkscape:label="Threads" />
    <inkscape:page
       x="222"
       y="0"
       width="64"
       height="64"
       id="page11"
       margin="0"
       bleed="0"
       inkscape:label="X.com" />
    <inkscape:page
       x="296"
       y="0"
       width="64"
       height="64"
       id="page12"
       margin="0"
       bleed="0"
       inkscape:label="Facebook" />
    <inkscape:page
       x="370"
       y="0"
       width="64"
       height="64"
       id="page13"
       margin="0"
       bleed="0"
       inkscape:label="Instagram" />
    <inkscape:page
       x="444"
       y="0"
       width="64"
       height="64"
       id="page14"
       margin="0"
       bleed="0"
       inkscape:label="TikTok" />
    <inkscape:page
       x="518"
       y="0"
       width="64"
       height="64"
       id="page15"
       margin="0"
       bleed="0"
       inkscape:label="YouTube" />
    <inkscape:page
       x="592"
       y="0"
       width="64"
       height="64"
       id="page16"
       margin="0"
       bleed="0"
       inkscape:label="Twitch" />
    <inkscape:page
       x="666"
       y="0"
       width="64"
       height="64"
       id="page17"
       margin="0"
       bleed="0"
       inkscape:label="Discord" />
    <inkscape:page
       x="740"
       y="0"
       width="64"
       height="64"
       id="page18"
       margin="0"
       bleed="0"
       inkscape:label="SoundCloud" />
    <inkscape:page
       x="814"
       y="0"
       width="64"
       height="64"
       id="page19"
       margin="0"
       bleed="0"
       inkscape:label="Last.fm" />
    <inkscape:page
       x="888"
       y="0"
       width="64"
       height="64"
       id="page30"
       margin="0"
       bleed="0"
       inkscape:label="Reddit" />
    <inkscape:page
       x="962"
       y="0"
       width="64"
       height="64"
       id="page31"
       margin="0"
       bleed="0"
       inkscape:label="Pixelfed" />
    <inkscape:page
       x="1036"
       y="0"
       width="64"
       height="64"
       id="page32"
       margin="0"
       bleed="0"
       inkscape:label="Tumblr" />
    <inkscape:page
       x="1110"
       y="0"
       width="64"
       height="64"
       id="page33"
       margin="0"
       bleed="0"
       inkscape:label="Nextdoor" />
    <inkscape:page
       x="1184"
       y="0"
       width="64"
       height="64"
       id="page34"
       margin="0"
       bleed="0"
       inkscape:label="Gravatar" />
    <inkscape:page
       x="1258"
       y="0"
       width="64"
       height="64"
       id="page35"
       margin="0"
       bleed="0"
       inkscape:label="Linkedin" />
    <inkscape:page
       x="1332"
       y="0"
       width="64"
       height="64"
       id="page36"
       margin="0"
       bleed="0"
       inkscape:label="BoardGameGeek" />
    <inkscape:page
       x="1406"
       y="0"
       width="64"
       height="64"
       id="page37"
       margin="0"
       bleed="0"
       inkscape:label="BeReal" />
    <inkscape:page
       x="1209.9227"
       y="187.78108"
       width="0"
       height="0"
       id="page38" />
    <inkscape:page
       x="1480"
       y="0"
       width="64"
       height="64"
       id="page39"
       margin="0"
       bleed="0"
       inkscape:label="Pintrest" />
  </sodipodi:namedview>
  <defs
     id="defs1">
    <linearGradient
       id="swatch19"
       inkscape:swatch="solid"
       inkscape:label="BLACK"
       gradientTransform="matrix(0.90030365,0,0,0.90030365,405.6182,43.458673)">
      <stop
         style="stop-color:#000000;stop-opacity:1;"
         offset="0"
         id="stop19" />
    </linearGradient>
    <linearGradient
       inkscape:collect="always"
       xlink:href="#swatch19"
       id="linearGradient19"
       x1="17"
       y1="32"
       x2="47"
       y2="32"
       gradientUnits="userSpaceOnUse"
       gradientTransform="matrix(1.6666667,0,0,1.6666667,-21.333333,-21.333335)" />
    <linearGradient
       inkscape:collect="always"
       xlink:href="#swatch19"
       id="linearGradient20"
       x1="92.007077"
       y1="31.999998"
       x2="119.99292"
       y2="31.999998"
       gradientUnits="userSpaceOnUse"
       gradientTransform="matrix(1.6666666,0,0,1.6666666,-70.666662,-21.333331)" />
    <linearGradient
       inkscape:collect="always"
       xlink:href="#swatch19"
       id="linearGradient21"
       x1="167.09326"
       y1="31.999995"
       x2="192.90669"
       y2="31.999995"
       gradientUnits="userSpaceOnUse"
       gradientTransform="matrix(1.6666664,0,0,1.6666664,-119.99994,-21.33332)" />
    <linearGradient
       inkscape:collect="always"
       xlink:href="#swatch19"
       id="linearGradient22"
       x1="239"
       y1="31.999998"
       x2="269"
       y2="31.999998"
       gradientUnits="userSpaceOnUse"
       gradientTransform="matrix(1.6666667,0,0,1.6666667,-169.33334,-21.333333)" />
    <linearGradient
       inkscape:collect="always"
       xlink:href="#swatch19"
       id="linearGradient23"
       x1="319.4541"
       y1="31.999998"
       x2="336.54589"
       y2="31.999998"
       gradientUnits="userSpaceOnUse"
       gradientTransform="matrix(1.6666664,0,0,1.6666664,-218.66657,-21.333322)" />
    <linearGradient
       inkscape:collect="always"
       xlink:href="#swatch19"
       id="linearGradient24"
       x1="387"
       y1="31.999998"
       x2="417"
       y2="31.999998"
       gradientUnits="userSpaceOnUse"
       gradientTransform="matrix(1.6666668,0,0,1.6666668,-268.00006,-21.333336)" />
    <linearGradient
       inkscape:collect="always"
       xlink:href="#swatch19"
       id="linearGradient25"
       x1="462.87371"
       y1="31.999998"
       x2="489.12629"
       y2="31.999998"
       gradientUnits="userSpaceOnUse"
       gradientTransform="matrix(1.6666666,0,0,1.6666666,-317.3333,-21.33333)" />
    <linearGradient
       inkscape:collect="always"
       xlink:href="#swatch19"
       id="linearGradient26"
       x1="535"
       y1="31.999998"
       x2="565"
       y2="31.999998"
       gradientUnits="userSpaceOnUse"
       gradientTransform="matrix(1.6666667,0,0,1.6666667,-366.66669,-21.333333)" />
    <linearGradient
       inkscape:collect="always"
       xlink:href="#swatch19"
       id="linearGradient27"
       x1="610.42383"
       y1="31.999997"
       x2="637.57617"
       y2="31.999997"
       gradientUnits="userSpaceOnUse"
       gradientTransform="matrix(1.6666664,0,0,1.6666664,-415.99984,-21.333324)" />
    <linearGradient
       inkscape:collect="always"
       xlink:href="#swatch19"
       id="linearGradient28"
       x1="683.00009"
       y1="32.000007"
       x2="713.00007"
       y2="32.000007"
       gradientUnits="userSpaceOnUse"
       gradientTransform="matrix(1.6666681,0,0,1.6666681,-465.33447,-21.333395)" />
    <linearGradient
       inkscape:collect="always"
       xlink:href="#swatch19"
       id="linearGradient38"
       gradientUnits="userSpaceOnUse"
       x1="0.5"
       y1="255.999"
       x2="511.5"
       y2="255.999" />
  </defs>
  <g
     inkscape:label="Layer 1"
     inkscape:groupmode="layer"
     id="layer1">
    <path
       d="m 42.399308,35.360711 c -0.286458,-0.03472 -0.5816,-0.06945 -0.868058,-0.11285 0.295141,0.03472 0.5816,0.07812 0.868058,0.11285 z M 32,29.492655 C 29.734375,25.091615 23.571182,16.888488 17.842013,12.84335 12.347224,8.9631411 10.255208,9.6315431 8.8749999,10.256545 c -1.5885417,0.720485 -1.875,3.159721 -1.875,4.592013 0,1.432292 0.78993,11.770833 1.3020833,13.498265 1.6927084,5.703125 7.7343748,7.630207 13.2986118,7.005207 0.286458,-0.0434 0.572915,-0.07812 0.868055,-0.121534 -0.286458,0.0434 -0.572917,0.0868 -0.868055,0.121534 C 13.449654,36.567308 6.2100699,39.536058 15.706597,50.100295 26.149307,60.916266 30.01215,47.782586 32,41.1246 33.98785,47.782586 36.270833,60.438836 48.111108,50.100295 57,41.1246 50.55035,36.558628 42.399308,35.35203 c -0.286458,-0.03472 -0.5816,-0.06945 -0.868058,-0.11285 0.295141,0.03472 0.5816,0.07812 0.868058,0.11285 5.564233,0.61632 11.597217,-1.310764 13.298608,-7.005207 C 56.210066,26.619391 57,16.289531 57,14.848558 57,13.407585 56.713541,10.96835 55.125,10.256545 53.753475,9.6402248 51.652775,8.9631411 46.166666,12.84335 40.428817,16.888488 34.265625,25.091615 32,29.492655 Z"
       id="path9"
       style="fill:url(#linearGradient19);stroke-width:1;stroke-dasharray:none" />
    <path
       d="m 129.31978,23.416193 c 0,-10.846475 -7.10823,-14.0267754 -7.10823,-14.0267754 -6.97433,-3.2026083 -25.509314,-3.1691317 -32.416689,0 0,0 -7.108241,3.1803004 -7.108241,14.0267754 0,12.910883 -0.736484,28.946258 11.783833,32.260458 4.519367,1.194008 8.402667,1.450666 11.527167,1.272116 5.66873,-0.31245 8.84903,-2.019758 8.84903,-2.019758 l -0.1897,-4.11765 c 0,0 -4.05068,1.272117 -8.60353,1.127058 -4.5082,-0.156233 -9.261917,-0.491 -9.9984,-6.025825 a 11.437901,11.437901 0 0 1 -0.100434,-1.551091 c 9.552044,2.332216 17.709214,1.015466 19.952164,0.74765 6.26015,-0.74765 11.71687,-4.608642 12.40873,-8.134858 1.09357,-5.55715 1.0043,-13.5581 1.0043,-13.5581 z m -8.38035,13.970975 h -5.20006 V 24.643676 c 0,-5.545983 -7.14172,-5.758008 -7.14172,0.769967 v 6.974325 h -5.16658 v -6.974325 c 0,-6.527975 -7.141717,-6.31595 -7.141717,-0.769967 v 12.743492 h -5.222375 c 0,-13.62505 -0.580258,-16.50405 2.053242,-19.528117 2.890166,-3.224933 8.90483,-3.436949 11.58296,0.680692 l 1.29444,2.175991 1.29443,-2.175991 c 2.68932,-4.139966 8.71513,-3.883308 11.58297,-0.680692 2.64466,3.046383 2.05325,5.914225 2.05325,19.528117 z"
       id="path16087"
       style="fill:url(#linearGradient20);stroke-width:0;stroke-dasharray:none" />
    <path
       d="m 191.29452,29.880653 c 0.22912,0.09373 0.43742,0.197875 0.65612,0.291607 3.04103,1.468442 5.26973,3.665901 6.43616,6.394499 1.63507,3.801291 1.79129,9.977085 -3.1556,14.913557 -3.77005,3.770046 -8.36283,5.467609 -14.85105,5.519681 h -0.0313 c -7.31098,-0.05207 -12.92438,-2.509893 -16.70485,-7.310974 -3.36388,-4.269944 -5.09268,-10.21662 -5.15518,-17.662984 v -0.03125 -0.02083 c 0.052,-7.446363 1.78088,-13.393039 5.14477,-17.662982 C 167.41406,9.5098941 173.03788,7.0520733 180.34886,7 h 0.0313 c 7.32138,0.052067 13.00769,2.4994791 16.90271,7.279732 1.91627,2.364091 3.33265,5.207248 4.2283,8.508644 l -4.20746,1.124765 c -0.73944,-2.68694 -1.85379,-4.97813 -3.35347,-6.811081 -3.04103,-3.728387 -7.60258,-5.644656 -13.59091,-5.686314 -5.93626,0.05207 -10.42491,1.957927 -13.35138,5.665486 -2.7286,3.468027 -4.14497,8.487814 -4.19705,14.913555 0.052,6.425744 1.46845,11.445532 4.19705,14.923973 2.91605,3.707559 7.41512,5.613413 13.35138,5.665486 5.35304,-0.04167 8.89398,-1.312227 11.84128,-4.25953 3.36388,-3.353467 3.3014,-7.477607 2.2287,-9.9875 -0.63529,-1.478857 -1.78089,-2.707769 -3.32221,-3.634659 -0.38535,2.801499 -1.22892,5.030201 -2.57239,6.748592 -1.78089,2.270361 -4.3116,3.499271 -7.57135,3.676318 -2.4578,0.135383 -4.8219,-0.458238 -6.65484,-1.66632 -2.16622,-1.437199 -3.43679,-3.624244 -3.57219,-6.175796 -0.26035,-5.030201 3.71799,-8.64403 9.9146,-8.998123 2.19748,-0.124967 4.25954,-0.03125 6.16538,0.291607 -0.24995,-1.541347 -0.76025,-2.770256 -1.52051,-3.665903 -1.04145,-1.218496 -2.6661,-1.843366 -4.8115,-1.85378 h -0.0728 c -1.7288,0 -4.06165,0.479067 -5.5509,2.739012 l -3.58261,-2.457822 c 1.9996,-3.030617 5.2385,-4.696936 9.14394,-4.696936 h 0.0833 c 6.51947,0.04165 10.40408,4.113726 10.79983,11.216412 l -0.0208,0.02083 z m -16.24661,7.165172 c 0.13534,2.614038 2.95772,3.832535 5.68632,3.676318 2.66612,-0.1458 5.68631,-1.187253 6.19662,-7.623412 -1.37471,-0.30202 -2.89522,-0.458237 -4.51989,-0.458237 -0.49988,0 -0.99978,0.01033 -1.49968,0.04167 -4.46782,0.249946 -5.95708,2.416163 -5.85295,4.353259 z"
       id="path442"
       style="fill:url(#linearGradient21);stroke-width:0;stroke-dasharray:none" />
    <path
       d="m 268.37419,9.4011275 h 7.67058 L 259.29119,28.54498 279,54.59887 H 263.57194 L 251.47935,38.80139 237.65928,54.59887 h -7.68145 L 247.89397,34.118643 229,9.4011275 h 15.81922 L 255.73839,23.840503 Z M 265.6797,50.013907 h 4.24815 L 242.505,13.747064 h -4.56323 z"
       id="path435"
       style="fill:url(#linearGradient22);stroke-width:0;stroke-dasharray:none" />
    <path
       d="m 320.20214,36.228515 v 20.771484 h 11.32814 V 36.228515 h 8.44726 l 1.75782,-9.55078 h -10.20508 v -3.378906 c 0,-5.048827 1.98241,-6.98242 7.09961,-6.98242 1.59178,0 2.87108,0.03907 3.61327,0.117183 V 7.771483 c -1.39649,-0.380858 -4.81445,-0.771485 -6.7871,-0.771485 -10.43945,0 -15.25392,4.931641 -15.25392,15.566406 v 4.111328 h -6.4453 v 9.55078 z"
       id="path2"
       style="fill:url(#linearGradient23);stroke-width:0;stroke-dasharray:none" />
    <path
       d="m 402.00558,19.183489 c -7.09425,0 -12.81652,5.722254 -12.81652,12.816511 0,7.094256 5.72227,12.816509 12.81652,12.816509 7.09425,0 12.81651,-5.722253 12.81651,-12.816511 0,-7.094255 -5.72226,-12.816509 -12.81651,-12.816509 z m 0,21.148915 c -4.5845,0 -8.3324,-3.736755 -8.3324,-8.332404 0,-4.595652 3.73675,-8.332406 8.3324,-8.332406 4.59565,0 8.3324,3.736754 8.3324,8.332406 0,4.595649 -3.7479,8.332404 -8.3324,8.332404 z m 16.33016,-21.673177 c 0,1.66202 -1.33853,2.989404 -2.9894,2.989404 -1.66201,0 -2.9894,-1.338539 -2.9894,-2.989404 0,-1.650865 1.33854,-2.989403 2.9894,-2.989403 1.65087,0 2.9894,1.338538 2.9894,2.989403 z m 8.48857,3.034022 c -0.18961,-4.004462 -1.10428,-7.55159 -4.03791,-10.474067 -2.92249,-2.9224767 -6.46961,-3.8371457 -10.47407,-4.0379257 -4.12717,-0.234245 -16.4975,-0.234245 -20.62465,0 -3.99332,0.189627 -7.54044,1.104295 -10.47407,4.0267717 -2.93363,2.922476 -3.83715,6.469604 -4.03794,10.474066 -0.23423,4.127162 -0.23423,16.497493 0,20.624655 0.18964,4.004462 1.10431,7.551591 4.03794,10.474066 2.93363,2.922477 6.4696,3.837147 10.47407,4.037927 4.12715,0.234243 16.49748,0.234243 20.62465,0 4.00446,-0.189627 7.55158,-1.104295 10.47407,-4.037927 2.92248,-2.922475 3.83715,-6.469604 4.03791,-10.474066 0.23425,-4.127162 0.23425,-16.486338 0,-20.6135 z m -5.33183,25.041834 c -0.87005,2.186278 -2.55439,3.870607 -4.75182,4.751812 -3.29058,1.305075 -11.09872,1.003903 -14.73508,1.003903 -3.63637,0 -11.45567,0.290017 -14.73509,-1.003903 -2.18628,-0.87005 -3.8706,-2.554379 -4.75181,-4.751812 -1.30507,-3.290575 -1.0039,-11.098721 -1.0039,-14.735083 0,-3.636365 -0.29002,-11.455664 1.0039,-14.735085 0.87005,-2.18628 2.55438,-3.870608 4.75181,-4.751812 3.29059,-1.305075 11.09872,-1.003905 14.73509,-1.003905 3.63636,0 11.45566,-0.290016 14.73508,1.003905 2.18628,0.87005 3.8706,2.554379 4.75182,4.751812 1.30507,3.290576 1.0039,11.09872 1.0039,14.735085 0,3.636362 0.30117,11.455661 -1.0039,14.735083 z"
       id="path5716"
       style="fill:url(#linearGradient24);stroke-width:0;stroke-dasharray:none" />
    <path
       d="M 497.87715,27.50006 A 20.519594,20.519594 0 0 1 485.88378,23.661792 V 41.124446 A 15.880467,15.880467 0 1 1 472.19104,25.390478 v 8.780158 a 7.285872,7.285872 0 1 0 5.09814,6.95381 V 6.9999994 h 8.5946 a 11.8371,11.8371 0 0 0 0.18557,2.168181 v 0 a 11.934766,11.934766 0 0 0 5.26418,7.8328016 11.856634,11.856634 0 0 0 6.54362,1.963083 z"
       id="path594"
       style="fill:url(#linearGradient25);stroke-width:0;stroke-dasharray:none" />
    <path
       d="m 573.95643,19.925666 c -0.57672,-2.169535 -2.27023,-3.872208 -4.42147,-4.448922 -3.89966,-1.052726 -19.53497,-1.052726 -19.53497,-1.052726 0,0 -15.6353,0 -19.53496,1.052726 -2.15124,0.576714 -3.84475,2.279387 -4.42145,4.448922 -1.04359,3.927134 -1.04359,12.11095 -1.04359,12.11095 0,0 0,8.183816 1.04359,12.110949 0.5767,2.169535 2.27021,3.798975 4.42145,4.375687 C 534.36469,49.57598 550,49.57598 550,49.57598 c 0,0 15.63531,0 19.53496,-1.052728 2.15124,-0.576712 3.84475,-2.215307 4.42147,-4.375687 C 575,40.220432 575,32.036616 575,32.036616 c 0,0 0,-8.183816 -1.04357,-12.11095 z M 544.89198,39.469792 V 24.60344 l 13.06299,7.433176 z"
       id="path2-9"
       style="fill:url(#linearGradient26);stroke-width:0;stroke-dasharray:none" />
    <path
       d="m 637.20312,17.107422 h -3.77928 v 10.712889 h 3.76953 z m -10.37108,-0.04883 h -3.76954 v 10.722655 h 3.76954 z M 610.79688,6.9999985 601.37306,15.925779 v 32.14844 h 11.30858 v 8.92578 l 9.42382,-8.92578 h 7.54883 L 646.62694,31.999997 V 7.0000005 Z m 32.06053,23.2226545 -7.53905,7.138671 h -7.54882 l -6.60158,6.249999 v -6.249999 h -8.48632 V 10.574219 h 30.17578 z"
       id="path2384"
       style="fill:url(#linearGradient27);stroke-width:0;stroke-dasharray:none" />
    <path
       d="m 715.38878,16.169287 a 0.12754651,0.12754651 0 0 0 -0.068,-0.05983 41.248549,41.248549 0 0 0 -10.16971,-3.15465 0.15305581,0.15305581 0 0 0 -0.1615,0.07653 28.69797,28.69797 0 0 0 -1.26697,2.601949 38.076891,38.076891 0 0 0 -11.42816,0 26.317101,26.317101 0 0 0 -1.28398,-2.601949 0.16155896,0.16155896 0 0 0 -0.1615,-0.07653 41.129505,41.129505 0 0 0 -10.18673,3.15465 0.14455276,0.14455276 0 0 0 -0.068,0.05983 c -6.47937,9.685037 -8.25652,19.123483 -7.38919,28.451385 a 0.17006208,0.17006208 0 0 0 0.068,0.11905 41.469631,41.469631 0 0 0 12.48256,6.300799 0.16155896,0.16155896 0 0 0 0.17859,-0.05985 29.607802,29.607802 0 0 0 2.55093,-4.149516 0.16155896,0.16155896 0 0 0 -0.085,-0.221102 27.311965,27.311965 0 0 1 -3.90292,-1.862181 0.16155896,0.16155896 0 0 1 -0.017,-0.263622 c 0.26362,-0.19559 0.52717,-0.399622 0.77379,-0.603717 a 0.15305581,0.15305581 0 0 1 0.1615,-0.0252 c 8.17999,3.73286 17.04021,3.73286 25.12667,0 a 0.15305581,0.15305581 0 0 1 0.1615,0.01702 c 0.24661,0.204094 0.51018,0.416631 0.77378,0.612221 a 0.16155896,0.16155896 0 0 1 -0.017,0.263622 25.62835,25.62835 0 0 1 -3.90293,1.853678 0.16155896,0.16155896 0 0 0 -0.085,0.221102 33.255634,33.255634 0 0 0 2.55093,4.149515 0.16155896,0.16155896 0 0 0 0.17858,0.05985 41.325079,41.325079 0 0 0 12.51657,-6.3008 0.16155896,0.16155896 0 0 0 0.068,-0.11905 C 723.82395,33.83907 721.03495,24.47716 715.38888,16.169625 Z m -25.67937,22.77131 c -2.46589,0 -4.48962,-2.261822 -4.48962,-5.033838 0,-2.772009 1.98971,-5.042336 4.48962,-5.042336 2.52542,0 4.53217,2.27883 4.48963,5.033838 0,2.780514 -1.98971,5.042336 -4.48963,5.042336 z m 16.61506,0 c -2.4659,0 -4.48964,-2.261822 -4.48964,-5.033838 0,-2.772009 1.98122,-5.042336 4.48964,-5.042336 2.52542,0 4.53215,2.27883 4.48964,5.033838 0,2.780514 -1.97272,5.042336 -4.48964,5.042336 z"
       id="path1-0"
       style="fill:url(#linearGradient28);stroke-width:0.999999" />
    <path
       style="fill:url(#linearGradient38);stroke-width:15.9688;display:inline;fill-opacity:1"
       d="m 308.214,337.861 -5.663,-13.064 -48.621,-115.69 c -16.056,-40.931 -56.085,-68.601 -101.198,-68.601 -61.043,0 -110.576,51.706 -110.576,115.524 0,63.756 49.533,115.493 110.576,115.493 42.618,0 79.604,-25.164 98.062,-62.007 l 19.668,47.329 C 242.586,392.371 200.164,415 152.733,415 68.645,415.002 0.5,343.886 0.5,256.031 0.5,168.197 68.645,96.998 152.731,96.998 c 63.446,0 114.696,35.361 140.741,98.093 1.946,4.865 27.516,67.255 49.834,120.369 13.788,32.856 25.537,54.678 63.776,56.023 37.441,1.325 63.249,-22.484 63.249,-52.648 0,-29.45 -19.7,-36.542 -52.825,-48.042 -59.543,-20.486 -90.308,-41.065 -90.308,-90.401 0,-48.115 31.303,-80.205 82.295,-80.205 33.137,0 57.162,15.424 73.756,46.169 l -32.618,17.37 c -12.235,-17.909 -25.765,-25 -42.97,-25 -23.934,0 -40.94,17.381 -40.94,40.465 0,32.805 28.095,37.742 67.348,51.179 52.866,17.981 77.431,38.529 77.431,89.801 0,53.86 -44.232,93.093 -102.006,93.01 -53.238,-0.239 -81.633,-27.412 -101.28,-75.32 z"
       id="path1"
       transform="matrix(0.09784736,0,0,0.09784736,820.95108,6.9511722)" />
    <path
       d="m 997.48072,9.499998 c 9.08918,0 16.45378,7.136548 16.45378,15.944474 0,8.80791 -7.3646,15.944461 -16.44857,15.944461 H 987.8344 L 974.06547,54.499999 V 18.695266 c 0,-5.077828 4.25009,-9.195268 9.49768,-9.195268 z"
       id="path4"
       style="stroke-width:33.3333" />
    <path
       style="fill:url(#swatch19);stroke-width:2.74613"
       d="m 758.25009,45.749284 h 3.43751 V 24.103065 c -1.2892,0.364377 -2.45099,1.026123 -3.43751,1.895716 0,1.82e-4 0,19.750503 0,19.750503 z M 751.37503,31.105381 V 45.72512 l 0.22165,0.02401 h 3.21589 V 31.082952 h -3.21589 c 0,1.84e-4 -0.22165,0.02255 -0.22165,0.02255 z M 744.5,38.413554 c 0,2.662422 1.38545,4.970677 3.43752,6.258089 V 32.162469 C 745.88545,33.447993 744.5,35.756413 744.5,38.413554 Z m 20.62514,7.33573 h 3.43751 v -20.69222 c -1.02777,-0.641157 -2.19138,-1.063872 -3.43751,-1.227186 z m 27.27852,-14.666178 h -1.93363 c 0.0971,-0.598111 0.1595,-1.204912 0.1595,-1.832282 0,-6.075891 -4.76614,-11.00011 -10.64587,-11.00011 -3.19001,0 -6.03298,1.467904 -7.98366,3.767452 V 45.7491 h 20.4033 c 3.91694,0 7.0967,-3.282807 7.0967,-7.335728 0,-4.049146 -3.17976,-7.330266 -7.0967,-7.330266 z"
       id="path1-3" />
    <path
       d="m 927.5725,38.868749 c -1.905,0 -3.5025,-1.5645 -3.5025,-3.494 0,-1.932 1.5975,-3.54725 3.5025,-3.54725 1.9025,0 3.445,1.61525 3.445,3.54725 0,1.9295 -1.54,3.494 -3.445,3.494 m 0.485,6.45525 c -1.6825,1.704 -4.32,2.533 -8.06,2.533 -3.7425,0 -6.3775,-0.829 -8.0575,-2.533 -0.365,-0.37025 -0.365,-0.9685 0,-1.34125 0.3625,-0.37025 0.955,-0.37025 1.32,0 1.3125,1.33125 3.515,1.98025 6.7375,1.98025 3.22,0 5.425,-0.649 6.74,-1.98025 0.3625,-0.37025 0.955,-0.37025 1.32,0 0.365,0.37275 0.365,0.971 0,1.34125 M 908.98,35.374749 c 0,-1.9295 1.595,-3.54725 3.4975,-3.54725 1.9025,0 3.445,1.61775 3.445,3.54725 0,1.9295 -1.5425,3.494 -3.445,3.494 -1.9025,0 -3.4975,-1.5645 -3.4975,-3.494 M 945,31.533499 c 0,-3.167 -2.54,-5.743 -5.6625,-5.743 -1.44,0 -2.7975,0.54525 -3.8375,1.52125 -3.7375,-2.467 -8.7425,-4.06175 -14.285,-4.27975 l 3.0575,-9.465001 8.03,1.91675 c 0.003,2.6065 2.0925,4.72375 4.6625,4.72375 2.57,0 4.6625,-2.12225 4.6625,-4.72875 0,-2.6065 -2.0925,-4.72875 -4.6625,-4.72875 -1.925,0 -3.5775,1.1865 -4.29,2.87775 -1.73,-0.41325 -7.915,-1.8915 -9.645,-2.30475 l -3.775,11.688751 c -5.7525,0.11 -10.965,1.69625 -14.8425,4.2215 -1.0275,-0.9255 -2.3575,-1.44275 -3.7525,-1.44275 -3.12,0 -5.66,2.576 -5.66,5.743 0,2.0105 1.035,3.854 2.69,4.8885 -1.5075,9.03125 8.985,16.828 22.205,16.828 13.165,0 23.6225,-7.72825 22.2275,-16.714 1.77,-1.0065 2.8775,-2.893 2.8775,-5.0025"
       id="reddit-[#143]"
       style="stroke-width:40.0002"
       inkscape:label="reddit" />
    <path
       d="m 1072.0915,47.859383 c -0.8399,-0.488284 -1.4059,-1.15235 -1.7184,-1.972667 -0.3125,-0.820317 -0.4691,-2.675784 -0.4691,-5.585934 v -12.8125 h 11.8555 V 19.636715 H 1069.904 V 6.999998 h -7.1094 c -0.3125,2.578134 -0.8983,4.707034 -1.7575,6.367184 -0.8398,1.6797 -1.973,3.105467 -3.3788,4.296883 -1.4067,1.1914 -3.086,2.109367 -5.0587,2.7539 v 7.070317 h 5.527 v 17.539067 c 0,2.28515 0.2344,4.023434 0.723,5.234367 0.4689,1.210933 1.3477,2.34375 2.5782,3.417967 1.2305,1.074216 2.7343,1.894533 4.4922,2.46095 1.7578,0.5664 3.7695,0.859366 6.0546,0.859366 2.0117,0 3.8867,-0.195316 5.625,-0.605466 1.7383,-0.41015 3.6719,-1.113284 5.8008,-2.109384 v -7.890616 c -2.461,1.640616 -4.9804,2.460933 -7.5195,2.460933 -1.4259,0 -2.6954,-0.332033 -3.7894,-0.996083 z"
       id="path2-93"
       style="stroke-width:1.5625" />
    <path
       d="m 1167,27.448657 -24.996,-15.307184 -8.59,5.260284 v -5.260284 h -7.824 v 10.046901 l -8.59,5.260283 4.088,6.676567 4.502,-2.743484 v 20.476784 h 32.828 V 31.38174 l 4.4942,2.743484 z"
       id="path1-6"
       style="stroke-width:25" />
    <path
       d="m 1216.0032,7.001565 c -2.7578,0 -4.9953,2.2375 -4.9953,4.9953 v 17.50625 c 0,2.757817 2.2375,4.995317 4.9953,4.995317 2.7578,0 4.9953,-2.2375 4.9953,-4.995317 v -11.6453 c 5.8265,2.0578 10.0015,7.6078 10.0015,14.14375 0,8.276551 -6.7203,14.998434 -14.9985,14.998434 -8.278,0 -14.9983,-6.7125 -14.9983,-14.998434 0,-4.142183 1.675,-7.89375 4.3937,-10.604683 1.9546,-1.951567 1.9546,-5.126567 0,-7.0797 -1.9515,-1.954684 -5.1265,-1.954684 -7.0797,0 C 1193.8,18.849998 1191,25.099999 1191,31.999999 c 0,13.810933 11.189,25 25,25 13.811,0 25,-11.189067 25,-25 0,-13.810934 -11.189,-25.000001 -25,-25.000001 z"
       id="path1-8"
       style="stroke-width:25"
       inkscape:label="path1-8" />
    <path
       d="m 144,7339 h -4 v -6.999 c 0,-1.92 -0.847,-2.991 -2.366,-2.991 -1.653,0 -2.634,1.116 -2.634,2.991 V 7339 h -4 v -13 h 4 v 1.462 c 0,0 1.255,-2.202 4.083,-2.202 2.829,0 4.917,1.726 4.917,5.298 z m -17.558,-15.079 c -1.349,0 -2.442,-1.102 -2.442,-2.461 0,-1.358 1.093,-2.46 2.442,-2.46 1.348,0 2.441,1.102 2.441,2.46 10e-4,1.359 -1.093,2.461 -2.441,2.461 z M 124,7339 h 5 v -13 h -5 z"
       id="linkedin-[#161]"
       style="stroke-width:17.7778"
       transform="matrix(2.25,0,0,2.25,988.5,-16458.25)"
       inkscape:label="linkedin" />
    <polygon
       fill="#FF5100"
       points="24.792,0 0.9,8.794 2.206,19.327 0,21.454 6.577,37.93 20.558,32.779 25.418,21.37 23.331,19.358 24.87,7.01 21.107,8.035 "
       id="polygon1"
       style="fill:#000000;fill-opacity:1;stroke-width:0.758598"
       transform="matrix(1.3182178,0,0,1.3182178,1347.2468,6.9999979)" />
    <path
       fill-rule="evenodd"
       clip-rule="evenodd"
       d="M 1463.1154,37.688718 H 1465.5 V 35.42149 h -2.3846 z m -47.6433,-5.067317 h -2.6649 V 35.8692 h 2.5039 c 0.6199,0 1.1179,-0.135879 1.4934,-0.408129 0.3756,-0.272054 0.5634,-0.6573 0.5634,-1.156277 0,-0.544107 -0.1731,-0.960732 -0.5186,-1.249826 -0.346,-0.288848 -0.8049,-0.433567 -1.3772,-0.433567 z m -0.7691,-4.659173 h -1.8958 v 2.873711 h 1.717 c 0.6438,0 1.1474,-0.116006 1.5113,-0.348587 0.3636,-0.232203 0.5455,-0.597791 0.5455,-1.096774 0,-0.543945 -0.1672,-0.918038 -0.5008,-1.122275 -0.3341,-0.20405 -0.7931,-0.306075 -1.3772,-0.306075 z m 0.3399,-1.836457 c 1.1804,0 2.14,0.246561 2.8795,0.739683 0.739,0.493311 1.1088,1.323683 1.1088,2.491117 0,0.430965 -0.1045,0.819225 -0.3129,1.164787 -0.2087,0.345941 -0.4801,0.643525 -0.8138,0.892744 0.5483,0.272053 0.9986,0.640652 1.3503,1.105254 0.3515,0.464947 0.5276,1.054281 0.5276,1.768447 0,1.065772 -0.3907,1.898973 -1.1715,2.499799 -0.7812,0.600826 -1.8214,0.901018 -3.1209,0.901018 h -4.99 V 26.125771 Z m 12.108,6.614616 c -0.1195,-0.555107 -0.3341,-0.966232 -0.6439,-1.232589 -0.3102,-0.266406 -0.6975,-0.39983 -1.1625,-0.39983 -0.4772,0 -0.8764,0.139071 -1.1984,0.416625 -0.3219,0.277897 -0.5308,0.683178 -0.6259,1.215794 z m -1.2699,5.152469 c -1.5023,0 -2.686,-0.391285 -3.5502,-1.173268 -0.8647,-0.782227 -1.2967,-1.830812 -1.2967,-3.146 0,-1.314794 0.3905,-2.369076 1.1715,-3.162775 0.7808,-0.79334 1.8449,-1.190106 3.1925,-1.190106 1.3593,0 2.3577,0.427939 2.9958,1.283818 0.6377,0.855903 0.9568,1.867804 0.9568,3.035081 v 0.680134 h -5.8485 c 0.1074,0.544156 0.3695,0.977969 0.787,1.301045 0.4174,0.323076 0.9658,0.484393 1.6455,0.484393 0.3934,0 0.7482,-0.04798 1.0641,-0.144326 0.3158,-0.09615 0.6825,-0.235223 1.1,-0.416625 l 0.6796,1.598437 c -0.4056,0.294741 -0.8974,0.510125 -1.4755,0.645956 -0.5785,0.136026 -1.0525,0.204236 -1.4219,0.204236 z m 9.032,-9.930574 h -1.4308 v 3.536873 h 1.4666 c 0.6914,0 1.2637,-0.133031 1.717,-0.399584 0.4531,-0.26622 0.6796,-0.705685 0.6796,-1.31784 0,-0.646156 -0.2146,-1.110941 -0.6438,-1.394343 -0.4293,-0.283216 -1.0256,-0.425106 -1.7886,-0.425106 z m 3.3269,9.726387 -2.5757,-4.421067 c -0.1313,0.01134 -0.2682,0.01984 -0.4113,0.02549 -0.1431,0.0059 -0.2862,0.0085 -0.4293,0.0085 h -1.3414 v 4.387085 h -2.3072 V 26.125836 h 3.8096 c 1.3235,0 2.456,0.289071 3.3979,0.867217 0.9422,0.578143 1.4134,1.473695 1.4134,2.686661 0,0.71418 -0.1942,1.329164 -0.5815,1.844936 -0.3877,0.515821 -0.8853,0.915603 -1.4934,1.198804 l 2.987,4.965223 z m 9.157,-4.948282 c -0.1192,-0.555107 -0.3339,-0.966232 -0.6437,-1.232589 -0.3104,-0.266406 -0.6977,-0.39983 -1.1627,-0.39983 -0.4769,0 -0.8764,0.139071 -1.1981,0.416625 -0.322,0.277897 -0.5308,0.683178 -0.6262,1.215794 z m -1.2699,5.152469 c -1.5021,0 -2.6857,-0.391285 -3.5502,-1.173268 -0.8644,-0.782227 -1.2964,-1.830812 -1.2964,-3.146 0,-1.314794 0.3903,-2.369076 1.1712,-3.162775 0.781,-0.79334 1.845,-1.190106 3.1927,-1.190106 1.3593,0 2.3577,0.427939 2.9958,1.283818 0.6377,0.855903 0.9567,1.867804 0.9567,3.035081 v 0.680134 h -5.8483 c 0.1073,0.544156 0.3692,0.977969 0.787,1.301045 0.4171,0.323076 0.9656,0.484393 1.6454,0.484393 0.3933,0 0.748,-0.04798 1.064,-0.144326 0.3157,-0.09615 0.6826,-0.235223 1.1001,-0.416625 l 0.6795,1.598437 c -0.4055,0.294741 -0.8973,0.510125 -1.4754,0.645956 -0.5787,0.136026 -1.0524,0.204236 -1.4221,0.204236 z m 7.8909,-1.704951 c 1.0552,0 1.8282,-0.643107 1.8282,-1.500714 v -0.589482 l -1.7798,0.106955 c -0.9101,0.05367 -1.3853,0.421143 -1.3853,1.003259 v 0.01527 c 0,0.604803 0.5235,0.964709 1.3369,0.964709 z m -3.6643,-0.849995 v -0.01512 c 0,-1.493152 1.216,-2.366228 3.3584,-2.496411 l 2.1341,-0.122424 v -0.505214 c 0,-0.727621 -0.4994,-1.179357 -1.4175,-1.179357 -0.8777,0 -1.4093,0.390549 -1.522,0.918794 l -0.016,0.069 h -2.1502 l 0.01,-0.09183 c 0.1288,-1.516222 1.4978,-2.603542 3.7771,-2.603542 2.2307,0 3.6725,1.095069 3.6725,2.748801 v 5.628023 h -2.3517 v -1.225027 h -0.048 c -0.4915,0.842236 -1.4094,1.35521 -2.5451,1.35521 -1.7315,0 -2.8992,-1.033657 -2.8992,-2.480893 z m 9.1244,2.350808 h 2.4652 V 26.107142 h -2.4652 z"
       fill="#fafafa"
       id="path1-00"
       style="fill:url(#swatch19);stroke-width:0.999998" />
    <path
       d="m 173.876,7239 c -5.477,0 -9.876,4.4348 -9.876,9.9587 0,4.1 2.407,7.5305 5.893,9.1207 0,-1.8675 -0.013,-1.6265 1.41,-7.6989 -0.782,-1.5781 -0.174,-4.1838 1.577,-4.1838 2.43,0 0.779,3.6029 0.498,5.0207 -0.249,1.088 0.581,1.925 1.577,1.925 1.909,0 3.153,-2.4272 3.153,-5.2718 0,-2.176 -1.493,-3.7662 -4.066,-3.7662 -4.575,0 -5.735,5.0953 -4.149,6.6945 0.399,0.604 0,0.6323 0,1.4228 -0.277,0.836 -2.49,-0.3791 -2.49,-3.5141 0,-2.8456 2.324,-6.1924 7.054,-6.1924 3.734,0 6.224,2.7609 6.224,5.6902 0,3.9326 -2.158,6.7783 -5.311,6.7783 -1.079,0 -2.075,-0.5859 -2.407,-1.2555 -0.603,2.3455 -0.725,3.5344 -1.66,4.8533 0.913,0.2511 1.826,0.4185 2.822,0.4185 5.477,0 9.875,-4.4348 9.875,-9.9577 C 183.752,7243.4348 179.353,7239 173.876,7239"
       id="pinterest-[#180]"
       style="stroke-width:16"
       transform="matrix(2.5,0,0,2.5,1077,-18090.5)"
       inkscape:label="pinterest" />
  </g>
</svg>
