<?xml version="1.0" encoding="UTF-8" standalone="no"?>
<!-- Created with Inkscape (http://www.inkscape.org/) -->

<svg
   width="64"
   height="64"
   viewBox="0 0 64 64.000003"
   version="1.1"
   id="svg1"
   inkscape:version="1.4 (86a8ad7, 2024-10-11)"
   sodipodi:docname="∴ follow me.svg"
   inkscape:export-batch-path="C:\Users\chris\Insync\OneDrives\Chris.meccom\link-in-bio-site\assets"
   inkscape:export-batch-name=""
   xml:space="preserve"
   xmlns:inkscape="http://www.inkscape.org/namespaces/inkscape"
   xmlns:sodipodi="http://sodipodi.sourceforge.net/DTD/sodipodi-0.dtd"
   xmlns:xlink="http://www.w3.org/1999/xlink"
   xmlns="http://www.w3.org/2000/svg"
   xmlns:svg="http://www.w3.org/2000/svg"><sodipodi:namedview
     id="namedview1"
     pagecolor="#c0c0c0"
     bordercolor="#000000"
     borderopacity="0.25"
     inkscape:showpageshadow="2"
     inkscape:pageopacity="0.0"
     inkscape:pagecheckerboard="0"
     inkscape:deskcolor="#e5e5e5"
     inkscape:document-units="px"
     inkscape:zoom="0.75730442"
     inkscape:cx="1067.6024"
     inkscape:cy="31.691351"
     inkscape:window-width="2516"
     inkscape:window-height="1417"
     inkscape:window-x="36"
     inkscape:window-y="-8"
     inkscape:window-maximized="1"
     inkscape:current-layer="layer1"
     showgrid="false"
     showguides="true"><inkscape:page
       x="0"
       y="0"
       width="64"
       height="64"
       id="page8"
       margin="0"
       bleed="0"
       inkscape:label="BlueSky" /><inkscape:page
       x="74"
       y="0"
       width="64"
       height="64"
       id="page9"
       margin="0"
       bleed="0"
       inkscape:label="Mastodon" /><inkscape:page
       x="148"
       y="0"
       width="64"
       height="64"
       id="page10"
       margin="0"
       bleed="0"
       inkscape:label="Threads" /><inkscape:page
       x="222"
       y="0"
       width="64"
       height="64"
       id="page11"
       margin="0"
       bleed="0"
       inkscape:label="X.com" /><inkscape:page
       x="296"
       y="0"
       width="64"
       height="64"
       id="page12"
       margin="0"
       bleed="0"
       inkscape:label="Facebook" /><inkscape:page
       x="370"
       y="0"
       width="64"
       height="64"
       id="page13"
       margin="0"
       bleed="0"
       inkscape:label="Instagram" /><inkscape:page
       x="444"
       y="0"
       width="64"
       height="64"
       id="page14"
       margin="0"
       bleed="0"
       inkscape:label="TikTok" /><inkscape:page
       x="518"
       y="0"
       width="64"
       height="64"
       id="page15"
       margin="0"
       bleed="0"
       inkscape:label="YouTube" /><inkscape:page
       x="592"
       y="0"
       width="64"
       height="64"
       id="page16"
       margin="0"
       bleed="0"
       inkscape:label="Twitch" /><inkscape:page
       x="666"
       y="0"
       width="64"
       height="64"
       id="page17"
       margin="0"
       bleed="0"
       inkscape:label="Discord" /><inkscape:page
       x="740"
       y="0"
       width="64"
       height="64"
       id="page18"
       margin="0"
       bleed="0"
       inkscape:label="SoundCloud" /><inkscape:page
       x="814"
       y="0"
       width="64"
       height="64"
       id="page19"
       margin="0"
       bleed="0"
       inkscape:label="Last.fm" /><inkscape:page
       x="888"
       y="0"
       width="64"
       height="64"
       id="page30"
       margin="0"
       bleed="0"
       inkscape:label="Reddit" /><inkscape:page
       x="962"
       y="0"
       width="64"
       height="64"
       id="page31"
       margin="0"
       bleed="0"
       inkscape:label="Pixelfed" /><inkscape:page
       x="1036"
       y="0"
       width="64"
       height="64"
       id="page32"
       margin="0"
       bleed="0"
       inkscape:label="Tumblr" /><inkscape:page
       x="1110"
       y="0"
       width="64"
       height="64"
       id="page33"
       margin="0"
       bleed="0"
       inkscape:label="Nextdoor" /><inkscape:page
       x="1184"
       y="0"
       width="64"
       height="64"
       id="page34"
       margin="0"
       bleed="0"
       inkscape:label="Gravatar" /><inkscape:page
       x="1258"
       y="0"
       width="64"
       height="64"
       id="page35"
       margin="0"
       bleed="0"
       inkscape:label="Linkedin" /><inkscape:page
       x="1332"
       y="0"
       width="64"
       height="64"
       id="page36"
       margin="0"
       bleed="0"
       inkscape:label="BoardGameGeek" /><inkscape:page
       x="1406"
       y="0"
       width="64"
       height="64"
       id="page37"
       margin="0"
       bleed="0"
       inkscape:label="BeReal" /><inkscape:page
       x="1480"
       y="0"
       width="64"
       height="64"
       id="page39"
       margin="0"
       bleed="0"
       inkscape:label="Pintrest" /><inkscape:page
       x="1554"
       y="0"
       width="64"
       height="64"
       id="page1"
       margin="0"
       bleed="0"
       inkscape:label="Blank" /><inkscape:page
       x="1628"
       y="0"
       width="64"
       height="64"
       id="page2"
       margin="0"
       bleed="0"
       inkscape:label="down-arrow" /><inkscape:page
       x="1702"
       y="0"
       width="64"
       height="64"
       id="page3"
       margin="0"
       bleed="0"
       inkscape:label="up-arrow" /><inkscape:grid
       id="grid3"
       units="px"
       originx="0"
       originy="0"
       spacingx="1"
       spacingy="1"
       empcolor="#0099e5"
       empopacity="0.30196078"
       color="#0099e5"
       opacity="0.14901961"
       empspacing="10"
       enabled="true"
       visible="false"
       dotted="false" /><inkscape:page
       x="1776"
       y="0"
       width="64"
       height="64"
       id="page4"
       margin="0"
       bleed="0"
       inkscape:label="icon-music" /><inkscape:page
       x="1850"
       y="0"
       width="64"
       height="64"
       id="page5"
       margin="0"
       bleed="0"
       inkscape:label="icon-literary" /><inkscape:page
       x="1924"
       y="0"
       width="64"
       height="64"
       id="page6"
       margin="0"
       bleed="0"
       inkscape:label="icon-design" /><inkscape:page
       x="1998"
       y="0"
       width="64"
       height="64"
       id="page7"
       margin="0"
       bleed="0"
       inkscape:label="down-arrow-wh" /><inkscape:page
       x="2072"
       y="0"
       width="64"
       height="64"
       id="page20"
       margin="0"
       bleed="0"
       inkscape:label="icon-about" /></sodipodi:namedview><defs
     id="defs1"><linearGradient
       id="swatch19"
       inkscape:swatch="solid"
       inkscape:label="BLACK"
       gradientTransform="matrix(0.90030365,0,0,0.90030365,363.26464,43.458673)"><stop
         style="stop-color:#000000;stop-opacity:1;"
         offset="0"
         id="stop19" /></linearGradient><linearGradient
       inkscape:collect="always"
       xlink:href="#swatch19"
       id="linearGradient19"
       x1="17"
       y1="32"
       x2="47"
       y2="32"
       gradientUnits="userSpaceOnUse"
       gradientTransform="matrix(1.6666667,0,0,1.6666667,-21.333333,-21.333335)" /><linearGradient
       inkscape:collect="always"
       xlink:href="#swatch19"
       id="linearGradient20"
       x1="92.007077"
       y1="31.999998"
       x2="119.99292"
       y2="31.999998"
       gradientUnits="userSpaceOnUse"
       gradientTransform="matrix(1.6666666,0,0,1.6666666,-70.666662,-21.333331)" /><linearGradient
       inkscape:collect="always"
       xlink:href="#swatch19"
       id="linearGradient21"
       x1="167.09326"
       y1="31.999995"
       x2="192.90669"
       y2="31.999995"
       gradientUnits="userSpaceOnUse"
       gradientTransform="matrix(1.6666664,0,0,1.6666664,-119.99994,-21.33332)" /><linearGradient
       inkscape:collect="always"
       xlink:href="#swatch19"
       id="linearGradient22"
       x1="239"
       y1="31.999998"
       x2="269"
       y2="31.999998"
       gradientUnits="userSpaceOnUse"
       gradientTransform="matrix(1.6666667,0,0,1.6666667,-169.33334,-21.333333)" /><linearGradient
       inkscape:collect="always"
       xlink:href="#swatch19"
       id="linearGradient23"
       x1="319.4541"
       y1="31.999998"
       x2="336.54589"
       y2="31.999998"
       gradientUnits="userSpaceOnUse"
       gradientTransform="matrix(1.4999997,0,0,1.4999997,-163.9999,-15.999988)" /><linearGradient
       inkscape:collect="always"
       xlink:href="#swatch19"
       id="linearGradient24"
       x1="387"
       y1="31.999998"
       x2="417"
       y2="31.999998"
       gradientUnits="userSpaceOnUse"
       gradientTransform="matrix(1.6666668,0,0,1.6666668,-268.00006,-21.333336)" /><linearGradient
       inkscape:collect="always"
       xlink:href="#swatch19"
       id="linearGradient25"
       x1="462.87371"
       y1="31.999998"
       x2="489.12629"
       y2="31.999998"
       gradientUnits="userSpaceOnUse"
       gradientTransform="matrix(1.6666666,0,0,1.6666666,-317.3333,-21.33333)" /><linearGradient
       inkscape:collect="always"
       xlink:href="#swatch19"
       id="linearGradient26"
       x1="535"
       y1="31.999998"
       x2="565"
       y2="31.999998"
       gradientUnits="userSpaceOnUse"
       gradientTransform="matrix(1.4999997,0,0,1.4999997,-274.99985,-15.99999)" /><linearGradient
       inkscape:collect="always"
       xlink:href="#swatch19"
       id="linearGradient27"
       x1="610.42383"
       y1="31.999997"
       x2="637.57617"
       y2="31.999997"
       gradientUnits="userSpaceOnUse"
       gradientTransform="matrix(1.6666664,0,0,1.6666664,-415.99984,-21.333324)" /><linearGradient
       inkscape:collect="always"
       xlink:href="#swatch19"
       id="linearGradient28"
       x1="683.00009"
       y1="32.000007"
       x2="713.00007"
       y2="32.000007"
       gradientUnits="userSpaceOnUse"
       gradientTransform="matrix(1.6666681,0,0,1.6666681,-465.33447,-21.333395)" /><linearGradient
       inkscape:collect="always"
       xlink:href="#swatch19"
       id="linearGradient38"
       gradientUnits="userSpaceOnUse"
       x1="0.5"
       y1="255.999"
       x2="511.5"
       y2="255.999" /></defs><g
     inkscape:label="Layer 1"
     inkscape:groupmode="layer"
     id="layer1"><path
       d="m 42.399308,35.360711 c -0.286458,-0.03472 -0.5816,-0.06945 -0.868058,-0.11285 0.295141,0.03472 0.5816,0.07812 0.868058,0.11285 z M 32,29.492655 C 29.734375,25.091615 23.571182,16.888488 17.842013,12.84335 12.347224,8.9631411 10.255208,9.6315431 8.8749999,10.256545 c -1.5885417,0.720485 -1.875,3.159721 -1.875,4.592013 0,1.432292 0.78993,11.770833 1.3020833,13.498265 1.6927084,5.703125 7.7343748,7.630207 13.2986118,7.005207 0.286458,-0.0434 0.572915,-0.07812 0.868055,-0.121534 -0.286458,0.0434 -0.572917,0.0868 -0.868055,0.121534 C 13.449654,36.567308 6.2100699,39.536058 15.706597,50.100295 26.149307,60.916266 30.01215,47.782586 32,41.1246 33.98785,47.782586 36.270833,60.438836 48.111108,50.100295 57,41.1246 50.55035,36.558628 42.399308,35.35203 c -0.286458,-0.03472 -0.5816,-0.06945 -0.868058,-0.11285 0.295141,0.03472 0.5816,0.07812 0.868058,0.11285 5.564233,0.61632 11.597217,-1.310764 13.298608,-7.005207 C 56.210066,26.619391 57,16.289531 57,14.848558 57,13.407585 56.713541,10.96835 55.125,10.256545 53.753475,9.6402248 51.652775,8.9631411 46.166666,12.84335 40.428817,16.888488 34.265625,25.091615 32,29.492655 Z"
       id="path9"
       style="fill:url(#linearGradient19);stroke-width:1;stroke-dasharray:none" /><path
       d="m 129.31978,23.416193 c 0,-10.846475 -7.10823,-14.0267754 -7.10823,-14.0267754 -6.97433,-3.2026083 -25.509314,-3.1691317 -32.416689,0 0,0 -7.108241,3.1803004 -7.108241,14.0267754 0,12.910883 -0.736484,28.946258 11.783833,32.260458 4.519367,1.194008 8.402667,1.450666 11.527167,1.272116 5.66873,-0.31245 8.84903,-2.019758 8.84903,-2.019758 l -0.1897,-4.11765 c 0,0 -4.05068,1.272117 -8.60353,1.127058 -4.5082,-0.156233 -9.261917,-0.491 -9.9984,-6.025825 a 11.437901,11.437901 0 0 1 -0.100434,-1.551091 c 9.552044,2.332216 17.709214,1.015466 19.952164,0.74765 6.26015,-0.74765 11.71687,-4.608642 12.40873,-8.134858 1.09357,-5.55715 1.0043,-13.5581 1.0043,-13.5581 z m -8.38035,13.970975 h -5.20006 V 24.643676 c 0,-5.545983 -7.14172,-5.758008 -7.14172,0.769967 v 6.974325 h -5.16658 v -6.974325 c 0,-6.527975 -7.141717,-6.31595 -7.141717,-0.769967 v 12.743492 h -5.222375 c 0,-13.62505 -0.580258,-16.50405 2.053242,-19.528117 2.890166,-3.224933 8.90483,-3.436949 11.58296,0.680692 l 1.29444,2.175991 1.29443,-2.175991 c 2.68932,-4.139966 8.71513,-3.883308 11.58297,-0.680692 2.64466,3.046383 2.05325,5.914225 2.05325,19.528117 z"
       id="path16087"
       style="fill:url(#linearGradient20);stroke-width:0;stroke-dasharray:none" /><path
       d="m 191.29452,29.880653 c 0.22912,0.09373 0.43742,0.197875 0.65612,0.291607 3.04103,1.468442 5.26973,3.665901 6.43616,6.394499 1.63507,3.801291 1.79129,9.977085 -3.1556,14.913557 -3.77005,3.770046 -8.36283,5.467609 -14.85105,5.519681 h -0.0313 c -7.31098,-0.05207 -12.92438,-2.509893 -16.70485,-7.310974 -3.36388,-4.269944 -5.09268,-10.21662 -5.15518,-17.662984 v -0.03125 -0.02083 c 0.052,-7.446363 1.78088,-13.393039 5.14477,-17.662982 C 167.41406,9.5098941 173.03788,7.0520733 180.34886,7 h 0.0313 c 7.32138,0.052067 13.00769,2.4994791 16.90271,7.279732 1.91627,2.364091 3.33265,5.207248 4.2283,8.508644 l -4.20746,1.124765 c -0.73944,-2.68694 -1.85379,-4.97813 -3.35347,-6.811081 -3.04103,-3.728387 -7.60258,-5.644656 -13.59091,-5.686314 -5.93626,0.05207 -10.42491,1.957927 -13.35138,5.665486 -2.7286,3.468027 -4.14497,8.487814 -4.19705,14.913555 0.052,6.425744 1.46845,11.445532 4.19705,14.923973 2.91605,3.707559 7.41512,5.613413 13.35138,5.665486 5.35304,-0.04167 8.89398,-1.312227 11.84128,-4.25953 3.36388,-3.353467 3.3014,-7.477607 2.2287,-9.9875 -0.63529,-1.478857 -1.78089,-2.707769 -3.32221,-3.634659 -0.38535,2.801499 -1.22892,5.030201 -2.57239,6.748592 -1.78089,2.270361 -4.3116,3.499271 -7.57135,3.676318 -2.4578,0.135383 -4.8219,-0.458238 -6.65484,-1.66632 -2.16622,-1.437199 -3.43679,-3.624244 -3.57219,-6.175796 -0.26035,-5.030201 3.71799,-8.64403 9.9146,-8.998123 2.19748,-0.124967 4.25954,-0.03125 6.16538,0.291607 -0.24995,-1.541347 -0.76025,-2.770256 -1.52051,-3.665903 -1.04145,-1.218496 -2.6661,-1.843366 -4.8115,-1.85378 h -0.0728 c -1.7288,0 -4.06165,0.479067 -5.5509,2.739012 l -3.58261,-2.457822 c 1.9996,-3.030617 5.2385,-4.696936 9.14394,-4.696936 h 0.0833 c 6.51947,0.04165 10.40408,4.113726 10.79983,11.216412 l -0.0208,0.02083 z m -16.24661,7.165172 c 0.13534,2.614038 2.95772,3.832535 5.68632,3.676318 2.66612,-0.1458 5.68631,-1.187253 6.19662,-7.623412 -1.37471,-0.30202 -2.89522,-0.458237 -4.51989,-0.458237 -0.49988,0 -0.99978,0.01033 -1.49968,0.04167 -4.46782,0.249946 -5.95708,2.416163 -5.85295,4.353259 z"
       id="path442"
       style="fill:url(#linearGradient21);stroke-width:0;stroke-dasharray:none" /><path
       d="m 268.37419,9.4011275 h 7.67058 L 259.29119,28.54498 279,54.59887 H 263.57194 L 251.47935,38.80139 237.65928,54.59887 h -7.68145 L 247.89397,34.118643 229,9.4011275 h 15.81922 L 255.73839,23.840503 Z M 265.6797,50.013907 h 4.24815 L 242.505,13.747064 h -4.56323 z"
       id="path435"
       style="fill:url(#linearGradient22);stroke-width:0;stroke-dasharray:none" /><path
       d="m 320.98192,35.805664 v 18.694335 h 10.19533 V 35.805664 h 7.60253 l 1.58204,-8.595702 h -9.18457 v -3.041015 c 0,-4.543945 1.78416,-6.284178 6.38964,-6.284178 1.43261,0 2.58398,0.03516 3.25195,0.105464 v -7.795898 c -1.25684,-0.3427722 -4.33301,-0.6943365 -6.10838,-0.6943365 -9.39551,0 -13.72853,4.4384775 -13.72853,14.0097655 v 3.700195 h -5.80077 v 8.595702 z"
       id="path2"
       style="fill:url(#linearGradient23);stroke-width:0;stroke-dasharray:none" /><path
       d="m 402.00558,19.183489 c -7.09425,0 -12.81652,5.722254 -12.81652,12.816511 0,7.094256 5.72227,12.816509 12.81652,12.816509 7.09425,0 12.81651,-5.722253 12.81651,-12.816511 0,-7.094255 -5.72226,-12.816509 -12.81651,-12.816509 z m 0,21.148915 c -4.5845,0 -8.3324,-3.736755 -8.3324,-8.332404 0,-4.595652 3.73675,-8.332406 8.3324,-8.332406 4.59565,0 8.3324,3.736754 8.3324,8.332406 0,4.595649 -3.7479,8.332404 -8.3324,8.332404 z m 16.33016,-21.673177 c 0,1.66202 -1.33853,2.989404 -2.9894,2.989404 -1.66201,0 -2.9894,-1.338539 -2.9894,-2.989404 0,-1.650865 1.33854,-2.989403 2.9894,-2.989403 1.65087,0 2.9894,1.338538 2.9894,2.989403 z m 8.48857,3.034022 c -0.18961,-4.004462 -1.10428,-7.55159 -4.03791,-10.474067 -2.92249,-2.9224767 -6.46961,-3.8371457 -10.47407,-4.0379257 -4.12717,-0.234245 -16.4975,-0.234245 -20.62465,0 -3.99332,0.189627 -7.54044,1.104295 -10.47407,4.0267717 -2.93363,2.922476 -3.83715,6.469604 -4.03794,10.474066 -0.23423,4.127162 -0.23423,16.497493 0,20.624655 0.18964,4.004462 1.10431,7.551591 4.03794,10.474066 2.93363,2.922477 6.4696,3.837147 10.47407,4.037927 4.12715,0.234243 16.49748,0.234243 20.62465,0 4.00446,-0.189627 7.55158,-1.104295 10.47407,-4.037927 2.92248,-2.922475 3.83715,-6.469604 4.03791,-10.474066 0.23425,-4.127162 0.23425,-16.486338 0,-20.6135 z m -5.33183,25.041834 c -0.87005,2.186278 -2.55439,3.870607 -4.75182,4.751812 -3.29058,1.305075 -11.09872,1.003903 -14.73508,1.003903 -3.63637,0 -11.45567,0.290017 -14.73509,-1.003903 -2.18628,-0.87005 -3.8706,-2.554379 -4.75181,-4.751812 -1.30507,-3.290575 -1.0039,-11.098721 -1.0039,-14.735083 0,-3.636365 -0.29002,-11.455664 1.0039,-14.735085 0.87005,-2.18628 2.55438,-3.870608 4.75181,-4.751812 3.29059,-1.305075 11.09872,-1.003905 14.73509,-1.003905 3.63636,0 11.45566,-0.290016 14.73508,1.003905 2.18628,0.87005 3.8706,2.554379 4.75182,4.751812 1.30507,3.290576 1.0039,11.09872 1.0039,14.735085 0,3.636362 0.30117,11.455661 -1.0039,14.735083 z"
       id="path5716"
       style="fill:url(#linearGradient24);stroke-width:0;stroke-dasharray:none" /><path
       d="M 497.87715,27.50006 A 20.519594,20.519594 0 0 1 485.88378,23.661792 V 41.124446 A 15.880467,15.880467 0 1 1 472.19104,25.390478 v 8.780158 a 7.285872,7.285872 0 1 0 5.09814,6.95381 V 6.9999994 h 8.5946 a 11.8371,11.8371 0 0 0 0.18557,2.168181 v 0 a 11.934766,11.934766 0 0 0 5.26418,7.8328016 11.856634,11.856634 0 0 0 6.54362,1.963083 z"
       id="path594"
       style="fill:url(#linearGradient25);stroke-width:0;stroke-dasharray:none" /><path
       d="M 571.56079,21.133101 C 571.04174,19.18052 569.51758,17.648115 567.58146,17.129072 564.07177,16.181619 550,16.181619 550,16.181619 c 0,0 -14.07177,0 -17.58147,0.947453 -1.93611,0.519043 -3.46027,2.051448 -3.9793,4.004029 C 527.5,24.667521 527.5,32.032954 527.5,32.032954 c 0,0 0,7.365433 0.93923,10.899852 0.51903,1.952581 2.04319,3.419077 3.9793,3.938117 3.5097,0.947455 17.58147,0.947455 17.58147,0.947455 0,0 14.07178,0 17.58146,-0.947455 1.93612,-0.51904 3.46028,-1.993775 3.97933,-3.938117 C 572.5,39.398387 572.5,32.032954 572.5,32.032954 c 0,0 0,-7.365433 -0.93921,-10.899853 z m -26.158,17.58971 V 25.343097 l 11.75669,6.689857 z"
       id="path2-9"
       style="fill:url(#linearGradient26);stroke-width:0;stroke-dasharray:none" /><path
       d="m 637.20312,17.107422 h -3.77928 v 10.712889 h 3.76953 z m -10.37108,-0.04883 h -3.76954 v 10.722655 h 3.76954 z M 610.79688,6.9999985 601.37306,15.925779 v 32.14844 h 11.30858 v 8.92578 l 9.42382,-8.92578 h 7.54883 L 646.62694,31.999997 V 7.0000005 Z m 32.06053,23.2226545 -7.53905,7.138671 h -7.54882 l -6.60158,6.249999 v -6.249999 h -8.48632 V 10.574219 h 30.17578 z"
       id="path2384"
       style="fill:url(#linearGradient27);stroke-width:0;stroke-dasharray:none" /><path
       d="m 715.38878,16.169287 a 0.12754651,0.12754651 0 0 0 -0.068,-0.05983 41.248549,41.248549 0 0 0 -10.16971,-3.15465 0.15305581,0.15305581 0 0 0 -0.1615,0.07653 28.69797,28.69797 0 0 0 -1.26697,2.601949 38.076891,38.076891 0 0 0 -11.42816,0 26.317101,26.317101 0 0 0 -1.28398,-2.601949 0.16155896,0.16155896 0 0 0 -0.1615,-0.07653 41.129505,41.129505 0 0 0 -10.18673,3.15465 0.14455276,0.14455276 0 0 0 -0.068,0.05983 c -6.47937,9.685037 -8.25652,19.123483 -7.38919,28.451385 a 0.17006208,0.17006208 0 0 0 0.068,0.11905 41.469631,41.469631 0 0 0 12.48256,6.300799 0.16155896,0.16155896 0 0 0 0.17859,-0.05985 29.607802,29.607802 0 0 0 2.55093,-4.149516 0.16155896,0.16155896 0 0 0 -0.085,-0.221102 27.311965,27.311965 0 0 1 -3.90292,-1.862181 0.16155896,0.16155896 0 0 1 -0.017,-0.263622 c 0.26362,-0.19559 0.52717,-0.399622 0.77379,-0.603717 a 0.15305581,0.15305581 0 0 1 0.1615,-0.0252 c 8.17999,3.73286 17.04021,3.73286 25.12667,0 a 0.15305581,0.15305581 0 0 1 0.1615,0.01702 c 0.24661,0.204094 0.51018,0.416631 0.77378,0.612221 a 0.16155896,0.16155896 0 0 1 -0.017,0.263622 25.62835,25.62835 0 0 1 -3.90293,1.853678 0.16155896,0.16155896 0 0 0 -0.085,0.221102 33.255634,33.255634 0 0 0 2.55093,4.149515 0.16155896,0.16155896 0 0 0 0.17858,0.05985 41.325079,41.325079 0 0 0 12.51657,-6.3008 0.16155896,0.16155896 0 0 0 0.068,-0.11905 C 723.82395,33.83907 721.03495,24.47716 715.38888,16.169625 Z m -25.67937,22.77131 c -2.46589,0 -4.48962,-2.261822 -4.48962,-5.033838 0,-2.772009 1.98971,-5.042336 4.48962,-5.042336 2.52542,0 4.53217,2.27883 4.48963,5.033838 0,2.780514 -1.98971,5.042336 -4.48963,5.042336 z m 16.61506,0 c -2.4659,0 -4.48964,-2.261822 -4.48964,-5.033838 0,-2.772009 1.98122,-5.042336 4.48964,-5.042336 2.52542,0 4.53215,2.27883 4.48964,5.033838 0,2.780514 -1.97272,5.042336 -4.48964,5.042336 z"
       id="path1-0"
       style="fill:url(#linearGradient28);stroke-width:0.999999" /><path
       style="fill:url(#linearGradient38);stroke-width:15.9688;display:inline;fill-opacity:1"
       d="m 308.214,337.861 -5.663,-13.064 -48.621,-115.69 c -16.056,-40.931 -56.085,-68.601 -101.198,-68.601 -61.043,0 -110.576,51.706 -110.576,115.524 0,63.756 49.533,115.493 110.576,115.493 42.618,0 79.604,-25.164 98.062,-62.007 l 19.668,47.329 C 242.586,392.371 200.164,415 152.733,415 68.645,415.002 0.5,343.886 0.5,256.031 0.5,168.197 68.645,96.998 152.731,96.998 c 63.446,0 114.696,35.361 140.741,98.093 1.946,4.865 27.516,67.255 49.834,120.369 13.788,32.856 25.537,54.678 63.776,56.023 37.441,1.325 63.249,-22.484 63.249,-52.648 0,-29.45 -19.7,-36.542 -52.825,-48.042 -59.543,-20.486 -90.308,-41.065 -90.308,-90.401 0,-48.115 31.303,-80.205 82.295,-80.205 33.137,0 57.162,15.424 73.756,46.169 l -32.618,17.37 c -12.235,-17.909 -25.765,-25 -42.97,-25 -23.934,0 -40.94,17.381 -40.94,40.465 0,32.805 28.095,37.742 67.348,51.179 52.866,17.981 77.431,38.529 77.431,89.801 0,53.86 -44.232,93.093 -102.006,93.01 -53.238,-0.239 -81.633,-27.412 -101.28,-75.32 z"
       id="path1"
       transform="matrix(0.09784736,0,0,0.09784736,820.95108,6.9511722)" /><path
       d="m 997.48072,9.499998 c 9.08918,0 16.45378,7.136548 16.45378,15.944474 0,8.80791 -7.3646,15.944461 -16.44857,15.944461 H 987.8344 L 974.06547,54.499999 V 18.695266 c 0,-5.077828 4.25009,-9.195268 9.49768,-9.195268 z"
       id="path4"
       style="stroke-width:33.3333" /><path
       style="fill:url(#swatch19);stroke-width:2.74613"
       d="m 758.25009,45.749284 h 3.43751 V 24.103065 c -1.2892,0.364377 -2.45099,1.026123 -3.43751,1.895716 0,1.82e-4 0,19.750503 0,19.750503 z M 751.37503,31.105381 V 45.72512 l 0.22165,0.02401 h 3.21589 V 31.082952 h -3.21589 c 0,1.84e-4 -0.22165,0.02255 -0.22165,0.02255 z M 744.5,38.413554 c 0,2.662422 1.38545,4.970677 3.43752,6.258089 V 32.162469 C 745.88545,33.447993 744.5,35.756413 744.5,38.413554 Z m 20.62514,7.33573 h 3.43751 v -20.69222 c -1.02777,-0.641157 -2.19138,-1.063872 -3.43751,-1.227186 z m 27.27852,-14.666178 h -1.93363 c 0.0971,-0.598111 0.1595,-1.204912 0.1595,-1.832282 0,-6.075891 -4.76614,-11.00011 -10.64587,-11.00011 -3.19001,0 -6.03298,1.467904 -7.98366,3.767452 V 45.7491 h 20.4033 c 3.91694,0 7.0967,-3.282807 7.0967,-7.335728 0,-4.049146 -3.17976,-7.330266 -7.0967,-7.330266 z"
       id="path1-3" /><path
       d="m 927.5725,38.868749 c -1.905,0 -3.5025,-1.5645 -3.5025,-3.494 0,-1.932 1.5975,-3.54725 3.5025,-3.54725 1.9025,0 3.445,1.61525 3.445,3.54725 0,1.9295 -1.54,3.494 -3.445,3.494 m 0.485,6.45525 c -1.6825,1.704 -4.32,2.533 -8.06,2.533 -3.7425,0 -6.3775,-0.829 -8.0575,-2.533 -0.365,-0.37025 -0.365,-0.9685 0,-1.34125 0.3625,-0.37025 0.955,-0.37025 1.32,0 1.3125,1.33125 3.515,1.98025 6.7375,1.98025 3.22,0 5.425,-0.649 6.74,-1.98025 0.3625,-0.37025 0.955,-0.37025 1.32,0 0.365,0.37275 0.365,0.971 0,1.34125 M 908.98,35.374749 c 0,-1.9295 1.595,-3.54725 3.4975,-3.54725 1.9025,0 3.445,1.61775 3.445,3.54725 0,1.9295 -1.5425,3.494 -3.445,3.494 -1.9025,0 -3.4975,-1.5645 -3.4975,-3.494 M 945,31.533499 c 0,-3.167 -2.54,-5.743 -5.6625,-5.743 -1.44,0 -2.7975,0.54525 -3.8375,1.52125 -3.7375,-2.467 -8.7425,-4.06175 -14.285,-4.27975 l 3.0575,-9.465001 8.03,1.91675 c 0.003,2.6065 2.0925,4.72375 4.6625,4.72375 2.57,0 4.6625,-2.12225 4.6625,-4.72875 0,-2.6065 -2.0925,-4.72875 -4.6625,-4.72875 -1.925,0 -3.5775,1.1865 -4.29,2.87775 -1.73,-0.41325 -7.915,-1.8915 -9.645,-2.30475 l -3.775,11.688751 c -5.7525,0.11 -10.965,1.69625 -14.8425,4.2215 -1.0275,-0.9255 -2.3575,-1.44275 -3.7525,-1.44275 -3.12,0 -5.66,2.576 -5.66,5.743 0,2.0105 1.035,3.854 2.69,4.8885 -1.5075,9.03125 8.985,16.828 22.205,16.828 13.165,0 23.6225,-7.72825 22.2275,-16.714 1.77,-1.0065 2.8775,-2.893 2.8775,-5.0025"
       id="reddit-[#143]"
       style="stroke-width:40.0002"
       inkscape:label="reddit" /><path
       d="m 1071.6823,46.273445 c -0.7559,-0.439456 -1.2653,-1.037115 -1.5466,-1.775401 -0.2812,-0.738285 -0.4221,-2.408205 -0.4221,-5.02734 v -11.53125 h 10.6699 v -7.06641 h -10.6699 V 9.4999985 h -6.3985 c -0.2813,2.3203205 -0.8085,4.2363305 -1.5818,5.7304655 -0.7558,1.51173 -1.7757,2.794921 -3.0409,3.867195 -1.266,1.07226 -2.7774,1.89843 -4.5528,2.47851 v 6.363285 h 4.9744 v 15.78516 c 0,2.056635 0.211,3.621091 0.6506,4.71093 0.422,1.08984 1.2129,2.109375 2.3205,3.076171 1.1074,0.966794 2.4608,1.705079 4.0429,2.214855 1.5821,0.509759 3.3925,0.773429 5.4491,0.773429 1.8105,0 3.498,-0.175785 5.0625,-0.544919 1.5645,-0.369135 3.3047,-1.001956 5.2208,-1.898446 V 44.95508 c -2.2149,1.476554 -4.4823,2.214839 -6.7675,2.214839 -1.2833,0 -2.4259,-0.298829 -3.4106,-0.896474 z"
       id="path2-93"
       style="stroke-width:1.5625" /><path
       d="m 1167,27.448657 -24.996,-15.307184 -8.59,5.260284 v -5.260284 h -7.824 v 10.046901 l -8.59,5.260283 4.088,6.676567 4.502,-2.743484 v 20.476784 h 32.828 V 31.38174 l 4.4942,2.743484 z"
       id="path1-6"
       style="stroke-width:25" /><path
       d="m 1216.0032,7.001565 c -2.7578,0 -4.9953,2.2375 -4.9953,4.9953 v 17.50625 c 0,2.757817 2.2375,4.995317 4.9953,4.995317 2.7578,0 4.9953,-2.2375 4.9953,-4.995317 v -11.6453 c 5.8265,2.0578 10.0015,7.6078 10.0015,14.14375 0,8.276551 -6.7203,14.998434 -14.9985,14.998434 -8.278,0 -14.9983,-6.7125 -14.9983,-14.998434 0,-4.142183 1.675,-7.89375 4.3937,-10.604683 1.9546,-1.951567 1.9546,-5.126567 0,-7.0797 -1.9515,-1.954684 -5.1265,-1.954684 -7.0797,0 C 1193.8,18.849998 1191,25.099999 1191,31.999999 c 0,13.810933 11.189,25 25,25 13.811,0 25,-11.189067 25,-25 0,-13.810934 -11.189,-25.000001 -25,-25.000001 z"
       id="path1-8"
       style="stroke-width:25"
       inkscape:label="path1-8" /><path
       d="m 144,7339 h -4 v -6.999 c 0,-1.92 -0.847,-2.991 -2.366,-2.991 -1.653,0 -2.634,1.116 -2.634,2.991 V 7339 h -4 v -13 h 4 v 1.462 c 0,0 1.255,-2.202 4.083,-2.202 2.829,0 4.917,1.726 4.917,5.298 z m -17.558,-15.079 c -1.349,0 -2.442,-1.102 -2.442,-2.461 0,-1.358 1.093,-2.46 2.442,-2.46 1.348,0 2.441,1.102 2.441,2.46 10e-4,1.359 -1.093,2.461 -2.441,2.461 z M 124,7339 h 5 v -13 h -5 z"
       id="linkedin-[#161]"
       style="stroke-width:17.7778"
       transform="matrix(2.25,0,0,2.25,988.5,-16458.25)"
       inkscape:label="linkedin" /><polygon
       fill="#FF5100"
       points="24.792,0 0.9,8.794 2.206,19.327 0,21.454 6.577,37.93 20.558,32.779 25.418,21.37 23.331,19.358 24.87,7.01 21.107,8.035 "
       id="polygon1"
       style="fill:#000000;fill-opacity:1;stroke-width:0.758598"
       transform="matrix(1.3182178,0,0,1.3182178,1347.2468,6.9999979)" /><g
       id="g16"
       transform="matrix(3.5583249,0,0,3.5583249,-3603.5173,-81.53628)"
       style="stroke-width:0.281031"><path
         id="path6"
         style="fill:url(#swatch19);stroke-width:0.28103"
         d="m 1410.5,26.125 v 11.564453 h 4.9902 c 1.2995,0 2.3399,-0.301518 3.1211,-0.902344 0.7808,-0.600826 1.1719,-1.434228 1.1719,-2.5 0,-0.714166 -0.1778,-1.302631 -0.5293,-1.767578 -0.3517,-0.464602 -0.8013,-0.833416 -1.3496,-1.105469 0.3337,-0.249219 0.6058,-0.546637 0.8145,-0.892578 0.2084,-0.345562 0.3124,-0.733097 0.3124,-1.164062 0,-1.167434 -0.3703,-1.998877 -1.1093,-2.492188 -0.7395,-0.493122 -1.6985,-0.740234 -2.8789,-0.740234 z m 2.3066,1.837891 h 1.8965 c 0.5841,0 1.0429,0.100637 1.377,0.304687 0.3336,0.204237 0.5,0.579102 0.5,1.123047 0,0.498983 -0.1813,0.865453 -0.5449,1.097656 -0.3639,0.232581 -0.868,0.347657 -1.5118,0.347657 h -1.7168 z m 0,4.658203 h 2.6661 c 0.5723,0 1.0309,0.144745 1.3769,0.433594 0.3455,0.289094 0.5176,0.705893 0.5176,1.25 0,0.498976 -0.1869,0.884196 -0.5625,1.15625 -0.3755,0.272249 -0.8743,0.408203 -1.4942,0.408203 h -2.5039 z" /><path
         style="fill:url(#swatch19);stroke-width:0.28103"
         d="m 1420.7618,37.688718 h 2.3846 V 35.42149 h -2.3846 z"
         id="path1-00" /></g><path
       d="M 1511.69,7 C 1497.9975,7 1487,18.087 1487,31.89675 c 0,10.25 6.0175,18.82625 14.7325,22.80175 0,-4.66875 -0.033,-4.06625 3.525,-19.24725 -1.955,-3.94525 -0.435,-10.4595 3.9425,-10.4595 6.075,0 1.9475,9.00725 1.245,12.55175 -0.6225,2.72 1.4525,4.8125 3.9425,4.8125 4.7725,0 7.8825,-6.068 7.8825,-13.1795 0,-5.44 -3.7325,-9.4155 -10.165,-9.4155 -11.4375,0 -14.3375,12.73825 -10.3725,16.73625 0.9975,1.51 0,1.58075 0,3.557 -0.6925,2.09 -6.225,-0.94775 -6.225,-8.78525 0,-7.114 5.81,-15.481 17.635,-15.481 9.335,0 15.56,6.90225 15.56,14.2255 0,9.8315 -5.395,16.94575 -13.2775,16.94575 -2.6975,0 -5.1875,-1.46475 -6.0175,-3.13875 -1.5075,5.86375 -1.8125,8.836 -4.15,12.13325 C 1507.54,56.5815 1509.8225,57 1512.3125,57 1526.005,57 1537,45.913 1537,32.10575 1536.38,18.087 1525.3825,7 1511.69,7"
       id="pinterest-[#180]"
       style="stroke-width:40"
       inkscape:label="pinterest" /><g
       id="g7"><path
         style="font-variation-settings:'wght' 800;fill:none;stroke:#000000;stroke-width:5;stroke-linecap:round;stroke-linejoin:round;stroke-dasharray:none;stroke-opacity:1;paint-order:stroke fill markers"
         d="M 1643,31.249848 1659.3567,50.250616 1677,31.249848"
         id="path3"
         sodipodi:nodetypes="ccc" /><path
         style="font-variation-settings:'wght' 800;fill:none;stroke:#000000;stroke-width:5;stroke-linecap:round;stroke-linejoin:round;stroke-dasharray:none;stroke-opacity:1;paint-order:stroke fill markers"
         d="M 1643,13.749979 1659.3567,32.750747 1677,13.749979"
         id="path3-5"
         sodipodi:nodetypes="ccc" /></g><path
       style="font-variation-settings:'wght' 800;fill:none;stroke:#000000;stroke-width:6;stroke-linecap:round;stroke-linejoin:round;stroke-dasharray:none;stroke-opacity:1;paint-order:stroke fill markers"
       d="M 1717,41.500128 1733.3567,22.49936 1751,41.500128"
       id="path3-8"
       sodipodi:nodetypes="ccc" /><g
       style="fill:#ffffff;stroke-width:8.53333;fill-opacity:1"
       id="g1"
       transform="matrix(2.5,0,0,2.5,1778,1.9999985)"><path
         fill="#000000"
         d="M 20,2 H 8 A 2,2 0 0 0 6,4 v 12 a 2,2 0 0 0 2,2 h 12 a 2,2 0 0 0 2,-2 V 4 A 2,2 0 0 0 20,2 m 0,14 H 8 V 4 H 20 M 12.5,15 A 2.5,2.5 0 0 0 15,12.5 V 7 h 3 V 5 h -4 v 5.5 C 13.58,10.19 13.07,10 12.5,10 A 2.5,2.5 0 0 0 10,12.5 2.5,2.5 0 0 0 12.5,15 M 4,6 H 2 v 14 a 2,2 0 0 0 2,2 H 18 V 20 H 4"
         id="path1-5"
         style="stroke-width:8.53333;fill:#ffffff;fill-opacity:1" /></g><g
       style="fill:#ffffff;stroke-width:9.58799;fill-opacity:1"
       id="g3"
       transform="matrix(1.6687545,0,0,1.6687545,1855.3319,5.2915827)"><g
         fill="#000000"
         id="g2"
         style="stroke-width:9.58799;fill:#ffffff;fill-opacity:1"><path
           d="m 10.01,21.33 a 0.5,0.5 0 0 1 0.5,-0.5 h 7.96 a 0.5,0.5 0 0 1 0,1 h -7.96 a 0.5,0.5 0 0 1 -0.5,-0.5 z m 0.47,-3.48 a 0.5,0.5 0 1 0 0,1 H 23.5 a 0.5,0.5 0 0 0 0,-1 z m -0.5,-2.52 a 0.5,0.5 0 0 1 0.5,-0.5 H 23.5 a 0.5,0.5 0 0 1 0,1 H 10.48 a 0.5,0.5 0 0 1 -0.5,-0.5 z m 0.44,-3.46 a 0.5,0.5 0 1 0 0,1 H 23.5 a 0.5,0.5 0 0 0 0,-1 z"
           id="path1-1"
           style="stroke-width:9.58799;fill:#ffffff;fill-opacity:1" /><path
           d="M 4.475,1 C 2.668,1 1.357,2.475 1.029,4.136 L 1.028,4.146 1.026,4.155 A 1.64,1.64 0 0 0 1.264,5.341 C 1.49,5.685 1.903,6 2.454,6 H 5.998 L 5.95,27.068 v 0.002 a 3.945,3.945 0 0 0 3.94,3.94 h 15.67 c 0.08,0 0.16,-0.004 0.237,-0.012 3.83,-0.054 4.74,-1.563 5.127,-3.058 a 1.508,1.508 0 0 0 -0.295,-1.282 1.911,1.911 0 0 0 -1.5,-0.688 H 27.95 V 5.45 A 4.44,4.44 0 0 0 23.51,1.01 H 9.6 V 1 Z M 7.998,6 H 8 V 5 A 4.46,4.46 0 0 0 7.526,3 H 7.6 v 0.01 h 15.91 a 2.44,2.44 0 0 1 2.44,2.44 V 25.97 H 14.4 a 1.77,1.77 0 0 0 -1.785,1.3 2.4,2.4 0 0 1 -1.909,1.73 v 0.01 H 9.89 A 1.945,1.945 0 0 1 7.95,27.071 L 7.998,6.005 Z"
           id="path2-7"
           style="stroke-width:9.58799;fill:#ffffff;fill-opacity:1" /></g></g><g
       style="fill:#ffffff;stroke-width:10.24;fill-opacity:1"
       id="g4"
       transform="matrix(0.02441406,0,0,0.02441406,1931,6.548341)"><path
         fill="#000000"
         d="m 1280,128 h 768 V 2048 H 0 V 37 L 1280,1317 Z M 128,1920 H 1701 L 128,347 Z m 1627,-128 128,128 h 37 V 256 h -512 v 128 h 256 v 128 h -256 v 128 h 256 v 128 h -256 v 128 h 384 v 128 h -384 v 128 h 256 v 128 h -256 v 128 h 256 v 128 h -165 l 128,128 h 165 v 128 z M 384,1061 987,1664 H 384 Z m 128,310 v 165 h 165 z"
         id="path1-2"
         style="stroke-width:10.24;fill:#ffffff;fill-opacity:1" /></g><g
       id="g8"
       transform="translate(370.6433,-0.7507485)"
       style="fill:none;fill-opacity:1;stroke:#ffffff;stroke-opacity:1"><path
         style="font-variation-settings:'wght' 800;fill:none;stroke:#ffffff;stroke-width:5;stroke-linecap:round;stroke-linejoin:round;stroke-dasharray:none;stroke-opacity:1;paint-order:stroke fill markers;fill-opacity:1"
         d="M 1643,31.249848 1659.3567,50.250616 1677,31.249848"
         id="path7"
         sodipodi:nodetypes="ccc" /><path
         style="font-variation-settings:'wght' 800;fill:none;stroke:#ffffff;stroke-width:5;stroke-linecap:round;stroke-linejoin:round;stroke-dasharray:none;stroke-opacity:1;paint-order:stroke fill markers;fill-opacity:1"
         d="M 1643,13.749979 1659.3567,32.750747 1677,13.749979"
         id="path8"
         sodipodi:nodetypes="ccc" /></g><g
       style="fill:#ffffff;stroke-width:8.53334;fill-opacity:1"
       id="g20"
       transform="matrix(0.11718741,0,0,0.11718741,2074,1.9999629)"><path
         fill="#000000"
         fill-rule="evenodd"
         d="M 256,42.667 C 138.18,42.667 42.667,138.179 42.667,256 42.667,373.82 138.18,469.334 256,469.334 373.822,469.334 469.334,373.821 469.334,256 469.334,138.179 373.822,42.667 256,42.667 m 0,384 C 161.895,426.667 85.334,350.106 85.334,256 85.334,161.894 161.894,85.334 256,85.334 c 94.107,0 170.667,76.56 170.667,170.666 0,94.106 -76.56,170.667 -170.667,170.667 m 26.714,-256 c 0,15.468 -11.262,26.667 -26.497,26.667 -15.851,0 -26.837,-11.2 -26.837,-26.963 0,-15.15 11.283,-26.37 26.837,-26.37 15.235,0 26.497,11.22 26.497,26.666 m -48,64 h 42.666 v 128 h -42.666 z"
         id="path1-4"
         style="stroke-width:8.53334;fill:#ffffff;fill-opacity:1" /></g></g></svg>
