<?xml version="1.0" encoding="UTF-8" standalone="no"?>
<!-- Created with Inkscape (http://www.inkscape.org/) -->

<svg
   width="64"
   height="63.999996"
   viewBox="0 0 64 63.999999"
   version="1.1"
   id="svg1"
   xmlns="http://www.w3.org/2000/svg"
   xmlns:svg="http://www.w3.org/2000/svg">
  <defs
     id="defs1">
    <linearGradient
       id="swatch19"
       gradientTransform="matrix(0.90030365,0,0,0.90030365,405.6182,43.458673)">
      <stop
         style="stop-color:#000000;stop-opacity:1;"
         offset="0"
         id="stop19" />
    </linearGradient>
  </defs>
  <g
     id="layer1"
     transform="translate(-1406)">
    <path
       fill-rule="evenodd"
       clip-rule="evenodd"
       d="M 1463.1154,37.688718 H 1465.5 V 35.42149 h -2.3846 z m -47.6433,-5.067317 h -2.6649 V 35.8692 h 2.5039 c 0.6199,0 1.1179,-0.135879 1.4934,-0.408129 0.3756,-0.272054 0.5634,-0.6573 0.5634,-1.156277 0,-0.544107 -0.1731,-0.960732 -0.5186,-1.249826 -0.346,-0.288848 -0.8049,-0.433567 -1.3772,-0.433567 z m -0.7691,-4.659173 h -1.8958 v 2.873711 h 1.717 c 0.6438,0 1.1474,-0.116006 1.5113,-0.348587 0.3636,-0.232203 0.5455,-0.597791 0.5455,-1.096774 0,-0.543945 -0.1672,-0.918038 -0.5008,-1.122275 -0.3341,-0.20405 -0.7931,-0.306075 -1.3772,-0.306075 z m 0.3399,-1.836457 c 1.1804,0 2.14,0.246561 2.8795,0.739683 0.739,0.493311 1.1088,1.323683 1.1088,2.491117 0,0.430965 -0.1045,0.819225 -0.3129,1.164787 -0.2087,0.345941 -0.4801,0.643525 -0.8138,0.892744 0.5483,0.272053 0.9986,0.640652 1.3503,1.105254 0.3515,0.464947 0.5276,1.054281 0.5276,1.768447 0,1.065772 -0.3907,1.898973 -1.1715,2.499799 -0.7812,0.600826 -1.8214,0.901018 -3.1209,0.901018 h -4.99 V 26.125771 Z m 12.108,6.614616 c -0.1195,-0.555107 -0.3341,-0.966232 -0.6439,-1.232589 -0.3102,-0.266406 -0.6975,-0.39983 -1.1625,-0.39983 -0.4772,0 -0.8764,0.139071 -1.1984,0.416625 -0.3219,0.277897 -0.5308,0.683178 -0.6259,1.215794 z m -1.2699,5.152469 c -1.5023,0 -2.686,-0.391285 -3.5502,-1.173268 -0.8647,-0.782227 -1.2967,-1.830812 -1.2967,-3.146 0,-1.314794 0.3905,-2.369076 1.1715,-3.162775 0.7808,-0.79334 1.8449,-1.190106 3.1925,-1.190106 1.3593,0 2.3577,0.427939 2.9958,1.283818 0.6377,0.855903 0.9568,1.867804 0.9568,3.035081 v 0.680134 h -5.8485 c 0.1074,0.544156 0.3695,0.977969 0.787,1.301045 0.4174,0.323076 0.9658,0.484393 1.6455,0.484393 0.3934,0 0.7482,-0.04798 1.0641,-0.144326 0.3158,-0.09615 0.6825,-0.235223 1.1,-0.416625 l 0.6796,1.598437 c -0.4056,0.294741 -0.8974,0.510125 -1.4755,0.645956 -0.5785,0.136026 -1.0525,0.204236 -1.4219,0.204236 z m 9.032,-9.930574 h -1.4308 v 3.536873 h 1.4666 c 0.6914,0 1.2637,-0.133031 1.717,-0.399584 0.4531,-0.26622 0.6796,-0.705685 0.6796,-1.31784 0,-0.646156 -0.2146,-1.110941 -0.6438,-1.394343 -0.4293,-0.283216 -1.0256,-0.425106 -1.7886,-0.425106 z m 3.3269,9.726387 -2.5757,-4.421067 c -0.1313,0.01134 -0.2682,0.01984 -0.4113,0.02549 -0.1431,0.0059 -0.2862,0.0085 -0.4293,0.0085 h -1.3414 v 4.387085 h -2.3072 V 26.125836 h 3.8096 c 1.3235,0 2.456,0.289071 3.3979,0.867217 0.9422,0.578143 1.4134,1.473695 1.4134,2.686661 0,0.71418 -0.1942,1.329164 -0.5815,1.844936 -0.3877,0.515821 -0.8853,0.915603 -1.4934,1.198804 l 2.987,4.965223 z m 9.157,-4.948282 c -0.1192,-0.555107 -0.3339,-0.966232 -0.6437,-1.232589 -0.3104,-0.266406 -0.6977,-0.39983 -1.1627,-0.39983 -0.4769,0 -0.8764,0.139071 -1.1981,0.416625 -0.322,0.277897 -0.5308,0.683178 -0.6262,1.215794 z m -1.2699,5.152469 c -1.5021,0 -2.6857,-0.391285 -3.5502,-1.173268 -0.8644,-0.782227 -1.2964,-1.830812 -1.2964,-3.146 0,-1.314794 0.3903,-2.369076 1.1712,-3.162775 0.781,-0.79334 1.845,-1.190106 3.1927,-1.190106 1.3593,0 2.3577,0.427939 2.9958,1.283818 0.6377,0.855903 0.9567,1.867804 0.9567,3.035081 v 0.680134 h -5.8483 c 0.1073,0.544156 0.3692,0.977969 0.787,1.301045 0.4171,0.323076 0.9656,0.484393 1.6454,0.484393 0.3933,0 0.748,-0.04798 1.064,-0.144326 0.3157,-0.09615 0.6826,-0.235223 1.1001,-0.416625 l 0.6795,1.598437 c -0.4055,0.294741 -0.8973,0.510125 -1.4754,0.645956 -0.5787,0.136026 -1.0524,0.204236 -1.4221,0.204236 z m 7.8909,-1.704951 c 1.0552,0 1.8282,-0.643107 1.8282,-1.500714 v -0.589482 l -1.7798,0.106955 c -0.9101,0.05367 -1.3853,0.421143 -1.3853,1.003259 v 0.01527 c 0,0.604803 0.5235,0.964709 1.3369,0.964709 z m -3.6643,-0.849995 v -0.01512 c 0,-1.493152 1.216,-2.366228 3.3584,-2.496411 l 2.1341,-0.122424 v -0.505214 c 0,-0.727621 -0.4994,-1.179357 -1.4175,-1.179357 -0.8777,0 -1.4093,0.390549 -1.522,0.918794 l -0.016,0.069 h -2.1502 l 0.01,-0.09183 c 0.1288,-1.516222 1.4978,-2.603542 3.7771,-2.603542 2.2307,0 3.6725,1.095069 3.6725,2.748801 v 5.628023 h -2.3517 v -1.225027 h -0.048 c -0.4915,0.842236 -1.4094,1.35521 -2.5451,1.35521 -1.7315,0 -2.8992,-1.033657 -2.8992,-2.480893 z m 9.1244,2.350808 h 2.4652 V 26.107142 h -2.4652 z"
       fill="#fafafa"
       id="path1-00"
       style="fill:url(#swatch19);stroke-width:0.999998" />
  </g>
</svg>
