<?xml version="1.0" encoding="UTF-8" standalone="no"?>
<!-- Created with Inkscape (http://www.inkscape.org/) -->

<svg
   width="64"
   height="63.999996"
   viewBox="0 0 64 63.999999"
   version="1.1"
   id="svg1"
   xmlns="http://www.w3.org/2000/svg"
   xmlns:svg="http://www.w3.org/2000/svg">
  <defs
     id="defs1">
    <linearGradient
       id="swatch19"
       gradientTransform="matrix(0.90030365,0,0,0.90030365,363.26464,43.458673)">
      <stop
         style="stop-color:#000000;stop-opacity:1;"
         offset="0"
         id="stop19" />
    </linearGradient>
  </defs>
  <g
     id="layer1"
     transform="translate(-1406)">
    <g
       id="g16"
       transform="matrix(3.9536943,0,0,3.9536943,-4163.6858,-94.151421)"
       style="stroke-width:0.252928">
      <path
         id="path6"
         style="fill:url(#swatch19);stroke-width:0.252927"
         d="m 1410.5,26.125 v 11.564453 h 4.9902 c 1.2995,0 2.3399,-0.301518 3.1211,-0.902344 0.7808,-0.600826 1.1719,-1.434228 1.1719,-2.5 0,-0.714166 -0.1778,-1.302631 -0.5293,-1.767578 -0.3517,-0.464602 -0.8013,-0.833416 -1.3496,-1.105469 0.3337,-0.249219 0.6058,-0.546637 0.8145,-0.892578 0.2084,-0.345562 0.3124,-0.733097 0.3124,-1.164062 0,-1.167434 -0.3703,-1.998877 -1.1093,-2.492188 -0.7395,-0.493122 -1.6985,-0.740234 -2.8789,-0.740234 z m 2.3066,1.837891 h 1.8965 c 0.5841,0 1.0429,0.100637 1.377,0.304687 0.3336,0.204237 0.5,0.579102 0.5,1.123047 0,0.498983 -0.1813,0.865453 -0.5449,1.097656 -0.3639,0.232581 -0.868,0.347657 -1.5118,0.347657 h -1.7168 z m 0,4.658203 h 2.6661 c 0.5723,0 1.0309,0.144745 1.3769,0.433594 0.3455,0.289094 0.5176,0.705893 0.5176,1.25 0,0.498976 -0.1869,0.884196 -0.5625,1.15625 -0.3755,0.272249 -0.8743,0.408203 -1.4942,0.408203 h -2.5039 z" />
      <path
         style="fill:url(#swatch19);stroke-width:0.252927"
         d="m 1420.7618,37.688718 h 2.3846 V 35.42149 h -2.3846 z"
         id="path1-00" />
    </g>
  </g>
</svg>
