<?xml version="1.0" encoding="UTF-8" standalone="no"?>
<!-- Created with Inkscape (http://www.inkscape.org/) -->

<svg
   width="64"
   height="63.999996"
   viewBox="0 0 64 63.999999"
   version="1.1"
   id="svg1"
   xmlns:xlink="http://www.w3.org/1999/xlink"
   xmlns="http://www.w3.org/2000/svg"
   xmlns:svg="http://www.w3.org/2000/svg">
  <defs
     id="defs1">
    <linearGradient
       id="swatch19"
       gradientTransform="matrix(0.90030365,0,0,0.90030365,363.26464,43.458673)">
      <stop
         style="stop-color:#000000;stop-opacity:1;"
         offset="0"
         id="stop19" />
    </linearGradient>
    <linearGradient
       xlink:href="#swatch19"
       id="linearGradient19"
       x1="17"
       y1="32"
       x2="47"
       y2="32"
       gradientUnits="userSpaceOnUse"
       gradientTransform="matrix(1.6666667,0,0,1.6666667,-21.333333,-21.333335)" />
  </defs>
  <g
     id="layer1">
    <path
       d="m 42.399308,35.360711 c -0.286458,-0.03472 -0.5816,-0.06945 -0.868058,-0.11285 0.295141,0.03472 0.5816,0.07812 0.868058,0.11285 z M 32,29.492655 C 29.734375,25.091615 23.571182,16.888488 17.842013,12.84335 12.347224,8.9631411 10.255208,9.6315431 8.8749999,10.256545 c -1.5885417,0.720485 -1.875,3.159721 -1.875,4.592013 0,1.432292 0.78993,11.770833 1.3020833,13.498265 1.6927084,5.703125 7.7343748,7.630207 13.2986118,7.005207 0.286458,-0.0434 0.572915,-0.07812 0.868055,-0.121534 -0.286458,0.0434 -0.572917,0.0868 -0.868055,0.121534 C 13.449654,36.567308 6.2100699,39.536058 15.706597,50.100295 26.149307,60.916266 30.01215,47.782586 32,41.1246 33.98785,47.782586 36.270833,60.438836 48.111108,50.100295 57,41.1246 50.55035,36.558628 42.399308,35.35203 c -0.286458,-0.03472 -0.5816,-0.06945 -0.868058,-0.11285 0.295141,0.03472 0.5816,0.07812 0.868058,0.11285 5.564233,0.61632 11.597217,-1.310764 13.298608,-7.005207 C 56.210066,26.619391 57,16.289531 57,14.848558 57,13.407585 56.713541,10.96835 55.125,10.256545 53.753475,9.6402248 51.652775,8.9631411 46.166666,12.84335 40.428817,16.888488 34.265625,25.091615 32,29.492655 Z"
       id="path9"
       style="fill:url(#linearGradient19);stroke-width:1;stroke-dasharray:none" />
  </g>
</svg>
