<?xml version="1.0" encoding="UTF-8" standalone="no"?>
<!-- Created with Inkscape (http://www.inkscape.org/) -->

<svg
   width="64"
   height="63.999996"
   viewBox="0 0 64 63.999999"
   version="1.1"
   id="svg1"
   xmlns:xlink="http://www.w3.org/1999/xlink"
   xmlns="http://www.w3.org/2000/svg"
   xmlns:svg="http://www.w3.org/2000/svg">
  <defs
     id="defs1">
    <linearGradient
       id="swatch19"
       gradientTransform="matrix(0.90030365,0,0,0.90030365,363.26464,43.458673)">
      <stop
         style="stop-color:#000000;stop-opacity:1;"
         offset="0"
         id="stop19" />
    </linearGradient>
    <linearGradient
       xlink:href="#swatch19"
       id="linearGradient28"
       x1="683.00006"
       y1="32.000008"
       x2="713.00006"
       y2="32.000008"
       gradientUnits="userSpaceOnUse"
       gradientTransform="matrix(1.6666681,0,0,1.6666681,-465.33447,-21.333395)" />
  </defs>
  <g
     id="layer1"
     transform="translate(-666)">
    <path
       d="m 715.38878,16.169287 a 0.12754651,0.12754651 0 0 0 -0.068,-0.05983 41.248549,41.248549 0 0 0 -10.16971,-3.15465 0.15305581,0.15305581 0 0 0 -0.1615,0.07653 28.69797,28.69797 0 0 0 -1.26697,2.601949 38.076891,38.076891 0 0 0 -11.42816,0 26.317101,26.317101 0 0 0 -1.28398,-2.601949 0.16155896,0.16155896 0 0 0 -0.1615,-0.07653 41.129505,41.129505 0 0 0 -10.18673,3.15465 0.14455276,0.14455276 0 0 0 -0.068,0.05983 c -6.47937,9.685037 -8.25652,19.123483 -7.38919,28.451385 a 0.17006208,0.17006208 0 0 0 0.068,0.11905 41.469631,41.469631 0 0 0 12.48256,6.300799 0.16155896,0.16155896 0 0 0 0.17859,-0.05985 29.607802,29.607802 0 0 0 2.55093,-4.149516 0.16155896,0.16155896 0 0 0 -0.085,-0.221102 27.311965,27.311965 0 0 1 -3.90292,-1.862181 0.16155896,0.16155896 0 0 1 -0.017,-0.263622 c 0.26362,-0.19559 0.52717,-0.399622 0.77379,-0.603717 a 0.15305581,0.15305581 0 0 1 0.1615,-0.0252 c 8.17999,3.73286 17.04021,3.73286 25.12667,0 a 0.15305581,0.15305581 0 0 1 0.1615,0.01702 c 0.24661,0.204094 0.51018,0.416631 0.77378,0.612221 a 0.16155896,0.16155896 0 0 1 -0.017,0.263622 25.62835,25.62835 0 0 1 -3.90293,1.853678 0.16155896,0.16155896 0 0 0 -0.085,0.221102 33.255634,33.255634 0 0 0 2.55093,4.149515 0.16155896,0.16155896 0 0 0 0.17858,0.05985 41.325079,41.325079 0 0 0 12.51657,-6.3008 0.16155896,0.16155896 0 0 0 0.068,-0.11905 C 723.82395,33.83907 721.03495,24.47716 715.38888,16.169625 Z m -25.67937,22.77131 c -2.46589,0 -4.48962,-2.261822 -4.48962,-5.033838 0,-2.772009 1.98971,-5.042336 4.48962,-5.042336 2.52542,0 4.53217,2.27883 4.48963,5.033838 0,2.780514 -1.98971,5.042336 -4.48963,5.042336 z m 16.61506,0 c -2.4659,0 -4.48964,-2.261822 -4.48964,-5.033838 0,-2.772009 1.98122,-5.042336 4.48964,-5.042336 2.52542,0 4.53215,2.27883 4.48964,5.033838 0,2.780514 -1.97272,5.042336 -4.48964,5.042336 z"
       id="path1-0"
       style="fill:url(#linearGradient28);stroke-width:0.999999" />
  </g>
</svg>
