<?xml version="1.0" encoding="UTF-8" standalone="no"?>
<!-- Created with Inkscape (http://www.inkscape.org/) -->

<svg
   width="64"
   height="63.999996"
   viewBox="0 0 64 63.999999"
   version="1.1"
   id="svg1"
   xmlns="http://www.w3.org/2000/svg"
   xmlns:svg="http://www.w3.org/2000/svg">
  <defs
     id="defs1">
    <linearGradient
       id="swatch19"
       gradientTransform="matrix(0.90030365,0,0,0.90030365,405.6182,43.458673)">
      <stop
         style="stop-color:#000000;stop-opacity:1;"
         offset="0"
         id="stop19" />
    </linearGradient>
  </defs>
  <g
     id="layer1"
     transform="translate(-1184)">
    <path
       d="m 1216.0032,7.001565 c -2.7578,0 -4.9953,2.2375 -4.9953,4.9953 v 17.50625 c 0,2.757817 2.2375,4.995317 4.9953,4.995317 2.7578,0 4.9953,-2.2375 4.9953,-4.995317 v -11.6453 c 5.8265,2.0578 10.0015,7.6078 10.0015,14.14375 0,8.276551 -6.7203,14.998434 -14.9985,14.998434 -8.278,0 -14.9983,-6.7125 -14.9983,-14.998434 0,-4.142183 1.675,-7.89375 4.3937,-10.604683 1.9546,-1.951567 1.9546,-5.126567 0,-7.0797 -1.9515,-1.954684 -5.1265,-1.954684 -7.0797,0 C 1193.8,18.849998 1191,25.099999 1191,31.999999 c 0,13.810933 11.189,25 25,25 13.811,0 25,-11.189067 25,-25 0,-13.810934 -11.189,-25.000001 -25,-25.000001 z"
       id="path1-8"
       style="stroke-width:25" />
  </g>
</svg>
