<?xml version="1.0" encoding="UTF-8" standalone="no"?>
<!-- Created with Inkscape (http://www.inkscape.org/) -->

<svg
   width="64"
   height="63.999996"
   viewBox="0 0 64 63.999999"
   version="1.1"
   id="svg1"
   inkscape:version="1.4 (86a8ad7, 2024-10-11)"
   sodipodi:docname="∴ follow me.svg"
   inkscape:export-batch-path="C:\Users\chris\Insync\OneDrives\Chris.meccom\link-in-bio-site\assets"
   inkscape:export-batch-name=""
   xml:space="preserve"
   xmlns:inkscape="http://www.inkscape.org/namespaces/inkscape"
   xmlns:sodipodi="http://sodipodi.sourceforge.net/DTD/sodipodi-0.dtd"
   xmlns="http://www.w3.org/2000/svg"
   xmlns:svg="http://www.w3.org/2000/svg"><sodipodi:namedview
     id="namedview1"
     pagecolor="#c0c0c0"
     bordercolor="#000000"
     borderopacity="0.25"
     inkscape:showpageshadow="2"
     inkscape:pageopacity="0.0"
     inkscape:pagecheckerboard="0"
     inkscape:deskcolor="#e5e5e5"
     inkscape:document-units="px"
     inkscape:zoom="0.70710678"
     inkscape:cx="844.9926"
     inkscape:cy="-35.355339"
     inkscape:window-width="2516"
     inkscape:window-height="1417"
     inkscape:window-x="36"
     inkscape:window-y="-8"
     inkscape:window-maximized="1"
     inkscape:current-layer="layer1"
     showgrid="false"
     showguides="true"><inkscape:grid
       id="grid3"
       units="px"
       originx="-2072"
       originy="0"
       spacingx="1"
       spacingy="1"
       empcolor="#0099e5"
       empopacity="0.30196078"
       color="#0099e5"
       opacity="0.14901961"
       empspacing="10"
       enabled="true"
       visible="false"
       dotted="false" /><inkscape:page
       x="0"
       y="0"
       width="64"
       height="64"
       id="page20"
       margin="0"
       bleed="0"
       inkscape:label="icon-about" /></sodipodi:namedview><defs
     id="defs1"><linearGradient
       id="swatch19"
       inkscape:swatch="solid"
       inkscape:label="BLACK"
       gradientTransform="matrix(0.90030365,0,0,0.90030365,363.26464,43.458673)"><stop
         style="stop-color:#000000;stop-opacity:1;"
         offset="0"
         id="stop19" /></linearGradient></defs><g
     inkscape:label="Layer 1"
     inkscape:groupmode="layer"
     id="layer1"
     transform="translate(-2072)"><g
       style="fill:#ffffff;fill-opacity:1;stroke-width:8.53334"
       id="g20"
       transform="matrix(0.11718741,0,0,0.11718741,2074,1.9999629)"><path
         fill="#000000"
         fill-rule="evenodd"
         d="M 256,42.667 C 138.18,42.667 42.667,138.179 42.667,256 42.667,373.82 138.18,469.334 256,469.334 373.822,469.334 469.334,373.821 469.334,256 469.334,138.179 373.822,42.667 256,42.667 m 0,384 C 161.895,426.667 85.334,350.106 85.334,256 85.334,161.894 161.894,85.334 256,85.334 c 94.107,0 170.667,76.56 170.667,170.666 0,94.106 -76.56,170.667 -170.667,170.667 m 26.714,-256 c 0,15.468 -11.262,26.667 -26.497,26.667 -15.851,0 -26.837,-11.2 -26.837,-26.963 0,-15.15 11.283,-26.37 26.837,-26.37 15.235,0 26.497,11.22 26.497,26.666 m -48,64 h 42.666 v 128 h -42.666 z"
         id="path1-4"
         style="fill:#ffffff;fill-opacity:1;stroke-width:8.53334" /></g></g></svg>
