<?xml version="1.0" encoding="UTF-8" standalone="no"?>
<!-- Created with Inkscape (http://www.inkscape.org/) -->

<svg
   width="64"
   height="63.999996"
   viewBox="0 0 64 63.999999"
   version="1.1"
   id="svg1"
   inkscape:version="1.4 (86a8ad7, 2024-10-11)"
   sodipodi:docname="∴ follow me.svg"
   inkscape:export-batch-path="C:\Users\chris\Insync\OneDrives\Chris.meccom\link-in-bio-site\assets"
   inkscape:export-batch-name=""
   xml:space="preserve"
   xmlns:inkscape="http://www.inkscape.org/namespaces/inkscape"
   xmlns:sodipodi="http://sodipodi.sourceforge.net/DTD/sodipodi-0.dtd"
   xmlns="http://www.w3.org/2000/svg"
   xmlns:svg="http://www.w3.org/2000/svg"><sodipodi:namedview
     id="namedview1"
     pagecolor="#c0c0c0"
     bordercolor="#000000"
     borderopacity="0.25"
     inkscape:showpageshadow="2"
     inkscape:pageopacity="0.0"
     inkscape:pagecheckerboard="0"
     inkscape:deskcolor="#e5e5e5"
     inkscape:document-units="px"
     inkscape:zoom="0.70710678"
     inkscape:cx="844.9926"
     inkscape:cy="-35.355339"
     inkscape:window-width="2516"
     inkscape:window-height="1417"
     inkscape:window-x="36"
     inkscape:window-y="-8"
     inkscape:window-maximized="1"
     inkscape:current-layer="layer1"
     showgrid="false"
     showguides="true"><inkscape:grid
       id="grid3"
       units="px"
       originx="-1850"
       originy="0"
       spacingx="1"
       spacingy="1"
       empcolor="#0099e5"
       empopacity="0.30196078"
       color="#0099e5"
       opacity="0.14901961"
       empspacing="10"
       enabled="true"
       visible="false"
       dotted="false" /><inkscape:page
       x="0"
       y="0"
       width="64"
       height="64"
       id="page5"
       margin="0"
       bleed="0"
       inkscape:label="icon-literary" /></sodipodi:namedview><defs
     id="defs1"><linearGradient
       id="swatch19"
       inkscape:swatch="solid"
       inkscape:label="BLACK"
       gradientTransform="matrix(0.90030365,0,0,0.90030365,363.26464,43.458673)"><stop
         style="stop-color:#000000;stop-opacity:1;"
         offset="0"
         id="stop19" /></linearGradient></defs><g
     inkscape:label="Layer 1"
     inkscape:groupmode="layer"
     id="layer1"
     transform="translate(-1850)"><g
       style="fill:#ffffff;fill-opacity:1;stroke-width:9.58799"
       id="g3"
       transform="matrix(1.6687545,0,0,1.6687545,1855.3319,5.2915827)"><g
         fill="#000000"
         id="g2"
         style="fill:#ffffff;fill-opacity:1;stroke-width:9.58799"><path
           d="m 10.01,21.33 a 0.5,0.5 0 0 1 0.5,-0.5 h 7.96 a 0.5,0.5 0 0 1 0,1 h -7.96 a 0.5,0.5 0 0 1 -0.5,-0.5 z m 0.47,-3.48 a 0.5,0.5 0 1 0 0,1 H 23.5 a 0.5,0.5 0 0 0 0,-1 z m -0.5,-2.52 a 0.5,0.5 0 0 1 0.5,-0.5 H 23.5 a 0.5,0.5 0 0 1 0,1 H 10.48 a 0.5,0.5 0 0 1 -0.5,-0.5 z m 0.44,-3.46 a 0.5,0.5 0 1 0 0,1 H 23.5 a 0.5,0.5 0 0 0 0,-1 z"
           id="path1-1"
           style="fill:#ffffff;fill-opacity:1;stroke-width:9.58799" /><path
           d="M 4.475,1 C 2.668,1 1.357,2.475 1.029,4.136 L 1.028,4.146 1.026,4.155 A 1.64,1.64 0 0 0 1.264,5.341 C 1.49,5.685 1.903,6 2.454,6 H 5.998 L 5.95,27.068 v 0.002 a 3.945,3.945 0 0 0 3.94,3.94 h 15.67 c 0.08,0 0.16,-0.004 0.237,-0.012 3.83,-0.054 4.74,-1.563 5.127,-3.058 a 1.508,1.508 0 0 0 -0.295,-1.282 1.911,1.911 0 0 0 -1.5,-0.688 H 27.95 V 5.45 A 4.44,4.44 0 0 0 23.51,1.01 H 9.6 V 1 Z M 7.998,6 H 8 V 5 A 4.46,4.46 0 0 0 7.526,3 H 7.6 v 0.01 h 15.91 a 2.44,2.44 0 0 1 2.44,2.44 V 25.97 H 14.4 a 1.77,1.77 0 0 0 -1.785,1.3 2.4,2.4 0 0 1 -1.909,1.73 v 0.01 H 9.89 A 1.945,1.945 0 0 1 7.95,27.071 L 7.998,6.005 Z"
           id="path2-7"
           style="fill:#ffffff;fill-opacity:1;stroke-width:9.58799" /></g></g></g></svg>
