<?xml version="1.0" encoding="UTF-8" standalone="no"?>
<!-- Created with Inkscape (http://www.inkscape.org/) -->

<svg
   width="64"
   height="63.999996"
   viewBox="0 0 64 63.999999"
   version="1.1"
   id="svg1"
   inkscape:version="1.4 (86a8ad7, 2024-10-11)"
   sodipodi:docname="∴ follow me.svg"
   inkscape:export-batch-path="C:\Users\chris\Insync\OneDrives\Chris.meccom\link-in-bio-site\assets"
   inkscape:export-batch-name=""
   xml:space="preserve"
   xmlns:inkscape="http://www.inkscape.org/namespaces/inkscape"
   xmlns:sodipodi="http://sodipodi.sourceforge.net/DTD/sodipodi-0.dtd"
   xmlns="http://www.w3.org/2000/svg"
   xmlns:svg="http://www.w3.org/2000/svg"><sodipodi:namedview
     id="namedview1"
     pagecolor="#c0c0c0"
     bordercolor="#000000"
     borderopacity="0.25"
     inkscape:showpageshadow="2"
     inkscape:pageopacity="0.0"
     inkscape:pagecheckerboard="0"
     inkscape:deskcolor="#e5e5e5"
     inkscape:document-units="px"
     inkscape:zoom="0.70710678"
     inkscape:cx="844.9926"
     inkscape:cy="-35.355339"
     inkscape:window-width="2516"
     inkscape:window-height="1417"
     inkscape:window-x="36"
     inkscape:window-y="-8"
     inkscape:window-maximized="1"
     inkscape:current-layer="layer1"
     showgrid="false"
     showguides="true"><inkscape:grid
       id="grid3"
       units="px"
       originx="-1776"
       originy="0"
       spacingx="1"
       spacingy="1"
       empcolor="#0099e5"
       empopacity="0.30196078"
       color="#0099e5"
       opacity="0.14901961"
       empspacing="10"
       enabled="true"
       visible="false"
       dotted="false" /><inkscape:page
       x="0"
       y="0"
       width="64"
       height="64"
       id="page4"
       margin="0"
       bleed="0"
       inkscape:label="icon-music" /></sodipodi:namedview><defs
     id="defs1"><linearGradient
       id="swatch19"
       inkscape:swatch="solid"
       inkscape:label="BLACK"
       gradientTransform="matrix(0.90030365,0,0,0.90030365,363.26464,43.458673)"><stop
         style="stop-color:#000000;stop-opacity:1;"
         offset="0"
         id="stop19" /></linearGradient></defs><g
     inkscape:label="Layer 1"
     inkscape:groupmode="layer"
     id="layer1"
     transform="translate(-1776)"><g
       style="fill:#ffffff;fill-opacity:1;stroke-width:8.53333"
       id="g1"
       transform="matrix(2.5,0,0,2.5,1778,1.9999985)"><path
         fill="#000000"
         d="M 20,2 H 8 A 2,2 0 0 0 6,4 v 12 a 2,2 0 0 0 2,2 h 12 a 2,2 0 0 0 2,-2 V 4 A 2,2 0 0 0 20,2 m 0,14 H 8 V 4 H 20 M 12.5,15 A 2.5,2.5 0 0 0 15,12.5 V 7 h 3 V 5 h -4 v 5.5 C 13.58,10.19 13.07,10 12.5,10 A 2.5,2.5 0 0 0 10,12.5 2.5,2.5 0 0 0 12.5,15 M 4,6 H 2 v 14 a 2,2 0 0 0 2,2 H 18 V 20 H 4"
         id="path1-5"
         style="fill:#ffffff;fill-opacity:1;stroke-width:8.53333" /></g></g></svg>
