<?xml version="1.0" encoding="UTF-8" standalone="no"?>
<!-- Created with Inkscape (http://www.inkscape.org/) -->

<svg
   width="64"
   height="63.999996"
   viewBox="0 0 64 63.999999"
   version="1.1"
   id="svg1"
   xmlns:xlink="http://www.w3.org/1999/xlink"
   xmlns="http://www.w3.org/2000/svg"
   xmlns:svg="http://www.w3.org/2000/svg">
  <defs
     id="defs1">
    <linearGradient
       id="swatch19"
       gradientTransform="matrix(0.90030365,0,0,0.90030365,405.6182,43.458673)">
      <stop
         style="stop-color:#000000;stop-opacity:1;"
         offset="0"
         id="stop19" />
    </linearGradient>
    <linearGradient
       xlink:href="#swatch19"
       id="linearGradient24"
       x1="387"
       y1="31.999998"
       x2="417"
       y2="31.999998"
       gradientUnits="userSpaceOnUse"
       gradientTransform="matrix(1.6666668,0,0,1.6666668,-268.00006,-21.333336)" />
  </defs>
  <g
     id="layer1"
     transform="translate(-370)">
    <path
       d="m 402.00558,19.183489 c -7.09425,0 -12.81652,5.722254 -12.81652,12.816511 0,7.094256 5.72227,12.816509 12.81652,12.816509 7.09425,0 12.81651,-5.722253 12.81651,-12.816511 0,-7.094255 -5.72226,-12.816509 -12.81651,-12.816509 z m 0,21.148915 c -4.5845,0 -8.3324,-3.736755 -8.3324,-8.332404 0,-4.595652 3.73675,-8.332406 8.3324,-8.332406 4.59565,0 8.3324,3.736754 8.3324,8.332406 0,4.595649 -3.7479,8.332404 -8.3324,8.332404 z m 16.33016,-21.673177 c 0,1.66202 -1.33853,2.989404 -2.9894,2.989404 -1.66201,0 -2.9894,-1.338539 -2.9894,-2.989404 0,-1.650865 1.33854,-2.989403 2.9894,-2.989403 1.65087,0 2.9894,1.338538 2.9894,2.989403 z m 8.48857,3.034022 c -0.18961,-4.004462 -1.10428,-7.55159 -4.03791,-10.474067 -2.92249,-2.9224767 -6.46961,-3.8371457 -10.47407,-4.0379257 -4.12717,-0.234245 -16.4975,-0.234245 -20.62465,0 -3.99332,0.189627 -7.54044,1.104295 -10.47407,4.0267717 -2.93363,2.922476 -3.83715,6.469604 -4.03794,10.474066 -0.23423,4.127162 -0.23423,16.497493 0,20.624655 0.18964,4.004462 1.10431,7.551591 4.03794,10.474066 2.93363,2.922477 6.4696,3.837147 10.47407,4.037927 4.12715,0.234243 16.49748,0.234243 20.62465,0 4.00446,-0.189627 7.55158,-1.104295 10.47407,-4.037927 2.92248,-2.922475 3.83715,-6.469604 4.03791,-10.474066 0.23425,-4.127162 0.23425,-16.486338 0,-20.6135 z m -5.33183,25.041834 c -0.87005,2.186278 -2.55439,3.870607 -4.75182,4.751812 -3.29058,1.305075 -11.09872,1.003903 -14.73508,1.003903 -3.63637,0 -11.45567,0.290017 -14.73509,-1.003903 -2.18628,-0.87005 -3.8706,-2.554379 -4.75181,-4.751812 -1.30507,-3.290575 -1.0039,-11.098721 -1.0039,-14.735083 0,-3.636365 -0.29002,-11.455664 1.0039,-14.735085 0.87005,-2.18628 2.55438,-3.870608 4.75181,-4.751812 3.29059,-1.305075 11.09872,-1.003905 14.73509,-1.003905 3.63636,0 11.45566,-0.290016 14.73508,1.003905 2.18628,0.87005 3.8706,2.554379 4.75182,4.751812 1.30507,3.290576 1.0039,11.09872 1.0039,14.735085 0,3.636362 0.30117,11.455661 -1.0039,14.735083 z"
       id="path5716"
       style="fill:url(#linearGradient24);stroke-width:0;stroke-dasharray:none" />
  </g>
</svg>
