<?xml version="1.0" encoding="UTF-8" standalone="no"?>
<!-- Created with Inkscape (http://www.inkscape.org/) -->

<svg
   width="64"
   height="63.999996"
   viewBox="0 0 64 63.999999"
   version="1.1"
   id="svg1"
   xmlns:xlink="http://www.w3.org/1999/xlink"
   xmlns="http://www.w3.org/2000/svg"
   xmlns:svg="http://www.w3.org/2000/svg">
  <defs
     id="defs1">
    <linearGradient
       id="swatch19"
       gradientTransform="matrix(0.90030365,0,0,0.90030365,405.6182,43.458673)">
      <stop
         style="stop-color:#000000;stop-opacity:1;"
         offset="0"
         id="stop19" />
    </linearGradient>
    <linearGradient
       xlink:href="#swatch19"
       id="linearGradient38"
       gradientUnits="userSpaceOnUse"
       x1="0.5"
       y1="255.99899"
       x2="511.5"
       y2="255.99899" />
  </defs>
  <g
     id="layer1"
     transform="translate(-814)">
    <path
       style="display:inline;fill:url(#linearGradient38);fill-opacity:1;stroke-width:15.9688"
       d="m 308.214,337.861 -5.663,-13.064 -48.621,-115.69 c -16.056,-40.931 -56.085,-68.601 -101.198,-68.601 -61.043,0 -110.576,51.706 -110.576,115.524 0,63.756 49.533,115.493 110.576,115.493 42.618,0 79.604,-25.164 98.062,-62.007 l 19.668,47.329 C 242.586,392.371 200.164,415 152.733,415 68.645,415.002 0.5,343.886 0.5,256.031 0.5,168.197 68.645,96.998 152.731,96.998 c 63.446,0 114.696,35.361 140.741,98.093 1.946,4.865 27.516,67.255 49.834,120.369 13.788,32.856 25.537,54.678 63.776,56.023 37.441,1.325 63.249,-22.484 63.249,-52.648 0,-29.45 -19.7,-36.542 -52.825,-48.042 -59.543,-20.486 -90.308,-41.065 -90.308,-90.401 0,-48.115 31.303,-80.205 82.295,-80.205 33.137,0 57.162,15.424 73.756,46.169 l -32.618,17.37 c -12.235,-17.909 -25.765,-25 -42.97,-25 -23.934,0 -40.94,17.381 -40.94,40.465 0,32.805 28.095,37.742 67.348,51.179 52.866,17.981 77.431,38.529 77.431,89.801 0,53.86 -44.232,93.093 -102.006,93.01 -53.238,-0.239 -81.633,-27.412 -101.28,-75.32 z"
       id="path1"
       transform="matrix(0.09784736,0,0,0.09784736,820.95108,6.9511722)" />
  </g>
</svg>
