<?xml version="1.0" encoding="UTF-8" standalone="no"?>
<!-- Created with Inkscape (http://www.inkscape.org/) -->

<svg
   width="64"
   height="63.999996"
   viewBox="0 0 64 63.999999"
   version="1.1"
   id="svg1"
   xmlns:xlink="http://www.w3.org/1999/xlink"
   xmlns="http://www.w3.org/2000/svg"
   xmlns:svg="http://www.w3.org/2000/svg">
  <defs
     id="defs1">
    <linearGradient
       id="swatch19"
       gradientTransform="matrix(0.90030365,0,0,0.90030365,363.26464,43.458673)">
      <stop
         style="stop-color:#000000;stop-opacity:1;"
         offset="0"
         id="stop19" />
    </linearGradient>
    <linearGradient
       xlink:href="#swatch19"
       id="linearGradient20"
       x1="92.00708"
       y1="31.999998"
       x2="119.99292"
       y2="31.999998"
       gradientUnits="userSpaceOnUse"
       gradientTransform="matrix(1.6666666,0,0,1.6666666,-70.666662,-21.333331)" />
  </defs>
  <g
     id="layer1"
     transform="translate(-74)">
    <path
       d="m 129.31978,23.416193 c 0,-10.846475 -7.10823,-14.0267754 -7.10823,-14.0267754 -6.97433,-3.2026083 -25.509314,-3.1691317 -32.416689,0 0,0 -7.108241,3.1803004 -7.108241,14.0267754 0,12.910883 -0.736484,28.946258 11.783833,32.260458 4.519367,1.194008 8.402667,1.450666 11.527167,1.272116 5.66873,-0.31245 8.84903,-2.019758 8.84903,-2.019758 l -0.1897,-4.11765 c 0,0 -4.05068,1.272117 -8.60353,1.127058 -4.5082,-0.156233 -9.261917,-0.491 -9.9984,-6.025825 a 11.437901,11.437901 0 0 1 -0.100434,-1.551091 c 9.552044,2.332216 17.709214,1.015466 19.952164,0.74765 6.26015,-0.74765 11.71687,-4.608642 12.40873,-8.134858 1.09357,-5.55715 1.0043,-13.5581 1.0043,-13.5581 z m -8.38035,13.970975 h -5.20006 V 24.643676 c 0,-5.545983 -7.14172,-5.758008 -7.14172,0.769967 v 6.974325 h -5.16658 v -6.974325 c 0,-6.527975 -7.141717,-6.31595 -7.141717,-0.769967 v 12.743492 h -5.222375 c 0,-13.62505 -0.580258,-16.50405 2.053242,-19.528117 2.890166,-3.224933 8.90483,-3.436949 11.58296,0.680692 l 1.29444,2.175991 1.29443,-2.175991 c 2.68932,-4.139966 8.71513,-3.883308 11.58297,-0.680692 2.64466,3.046383 2.05325,5.914225 2.05325,19.528117 z"
       id="path16087"
       style="fill:url(#linearGradient20);stroke-width:0;stroke-dasharray:none" />
  </g>
</svg>
