<?xml version="1.0" encoding="UTF-8" standalone="no"?>
<!-- Created with Inkscape (http://www.inkscape.org/) -->

<svg
   width="64"
   height="64"
   viewBox="0 0 0 0"
   version="1.1"
   id="svg1"
   xmlns="http://www.w3.org/2000/svg"
   xmlns:svg="http://www.w3.org/2000/svg">
  <defs
     id="defs1">
    <linearGradient
       id="swatch19"
       gradientTransform="matrix(0.90030365,0,0,0.90030365,405.6182,43.458673)">
      <stop
         style="stop-color:#000000;stop-opacity:1;"
         offset="0"
         id="stop19" />
    </linearGradient>
  </defs>
  <g
     id="layer1"
     transform="translate(-1480)">
    <path
       d="m 173.876,7239 c -5.477,0 -9.876,4.4348 -9.876,9.9587 0,4.1 2.407,7.5305 5.893,9.1207 0,-1.8675 -0.013,-1.6265 1.41,-7.6989 -0.782,-1.5781 -0.174,-4.1838 1.577,-4.1838 2.43,0 0.779,3.6029 0.498,5.0207 -0.249,1.088 0.581,1.925 1.577,1.925 1.909,0 3.153,-2.4272 3.153,-5.2718 0,-2.176 -1.493,-3.7662 -4.066,-3.7662 -4.575,0 -5.735,5.0953 -4.149,6.6945 0.399,0.604 0,0.6323 0,1.4228 -0.277,0.836 -2.49,-0.3791 -2.49,-3.5141 0,-2.8456 2.324,-6.1924 7.054,-6.1924 3.734,0 6.224,2.7609 6.224,5.6902 0,3.9326 -2.158,6.7783 -5.311,6.7783 -1.079,0 -2.075,-0.5859 -2.407,-1.2555 -0.603,2.3455 -0.725,3.5344 -1.66,4.8533 0.913,0.2511 1.826,0.4185 2.822,0.4185 5.477,0 9.875,-4.4348 9.875,-9.9577 C 183.752,7243.4348 179.353,7239 173.876,7239"
       id="pinterest-[#180]"
       style="stroke-width:16"
       transform="matrix(2.5,0,0,2.5,1077,-18090.5)" />
  </g>
</svg>
