<?xml version="1.0" encoding="UTF-8" standalone="no"?>
<!-- Created with Inkscape (http://www.inkscape.org/) -->

<svg
   width="64"
   height="63.999996"
   viewBox="0 0 64 63.999999"
   version="1.1"
   id="svg1"
   xmlns="http://www.w3.org/2000/svg"
   xmlns:svg="http://www.w3.org/2000/svg">
  <defs
     id="defs1">
    <linearGradient
       id="swatch19"
       gradientTransform="matrix(0.90030365,0,0,0.90030365,405.6182,43.458673)">
      <stop
         style="stop-color:#000000;stop-opacity:1;"
         offset="0"
         id="stop19" />
    </linearGradient>
  </defs>
  <g
     id="layer1"
     transform="translate(-740)">
    <path
       style="fill:url(#swatch19);stroke-width:2.74613"
       d="m 758.25009,45.749284 h 3.43751 V 24.103065 c -1.2892,0.364377 -2.45099,1.026123 -3.43751,1.895716 0,1.82e-4 0,19.750503 0,19.750503 z M 751.37503,31.105381 V 45.72512 l 0.22165,0.02401 h 3.21589 V 31.082952 h -3.21589 c 0,1.84e-4 -0.22165,0.02255 -0.22165,0.02255 z M 744.5,38.413554 c 0,2.662422 1.38545,4.970677 3.43752,6.258089 V 32.162469 C 745.88545,33.447993 744.5,35.756413 744.5,38.413554 Z m 20.62514,7.33573 h 3.43751 v -20.69222 c -1.02777,-0.641157 -2.19138,-1.063872 -3.43751,-1.227186 z m 27.27852,-14.666178 h -1.93363 c 0.0971,-0.598111 0.1595,-1.204912 0.1595,-1.832282 0,-6.075891 -4.76614,-11.00011 -10.64587,-11.00011 -3.19001,0 -6.03298,1.467904 -7.98366,3.767452 V 45.7491 h 20.4033 c 3.91694,0 7.0967,-3.282807 7.0967,-7.335728 0,-4.049146 -3.17976,-7.330266 -7.0967,-7.330266 z"
       id="path1-3" />
  </g>
</svg>
