<?xml version="1.0" encoding="UTF-8" standalone="no"?>
<!-- Created with Inkscape (http://www.inkscape.org/) -->

<svg
   width="64"
   height="63.999996"
   viewBox="0 0 64 63.999999"
   version="1.1"
   id="svg1"
   xmlns:xlink="http://www.w3.org/1999/xlink"
   xmlns="http://www.w3.org/2000/svg"
   xmlns:svg="http://www.w3.org/2000/svg">
  <defs
     id="defs1">
    <linearGradient
       id="swatch19"
       gradientTransform="matrix(0.90030365,0,0,0.90030365,405.6182,43.458673)">
      <stop
         style="stop-color:#000000;stop-opacity:1;"
         offset="0"
         id="stop19" />
    </linearGradient>
    <linearGradient
       xlink:href="#swatch19"
       id="linearGradient21"
       x1="167.09326"
       y1="31.999994"
       x2="192.90669"
       y2="31.999994"
       gradientUnits="userSpaceOnUse"
       gradientTransform="matrix(1.6666664,0,0,1.6666664,-119.99994,-21.33332)" />
  </defs>
  <g
     id="layer1"
     transform="translate(-148)">
    <path
       d="m 191.29452,29.880653 c 0.22912,0.09373 0.43742,0.197875 0.65612,0.291607 3.04103,1.468442 5.26973,3.665901 6.43616,6.394499 1.63507,3.801291 1.79129,9.977085 -3.1556,14.913557 -3.77005,3.770046 -8.36283,5.467609 -14.85105,5.519681 h -0.0313 c -7.31098,-0.05207 -12.92438,-2.509893 -16.70485,-7.310974 -3.36388,-4.269944 -5.09268,-10.21662 -5.15518,-17.662984 v -0.03125 -0.02083 c 0.052,-7.446363 1.78088,-13.393039 5.14477,-17.662982 C 167.41406,9.5098941 173.03788,7.0520733 180.34886,7 h 0.0313 c 7.32138,0.052067 13.00769,2.4994791 16.90271,7.279732 1.91627,2.364091 3.33265,5.207248 4.2283,8.508644 l -4.20746,1.124765 c -0.73944,-2.68694 -1.85379,-4.97813 -3.35347,-6.811081 -3.04103,-3.728387 -7.60258,-5.644656 -13.59091,-5.686314 -5.93626,0.05207 -10.42491,1.957927 -13.35138,5.665486 -2.7286,3.468027 -4.14497,8.487814 -4.19705,14.913555 0.052,6.425744 1.46845,11.445532 4.19705,14.923973 2.91605,3.707559 7.41512,5.613413 13.35138,5.665486 5.35304,-0.04167 8.89398,-1.312227 11.84128,-4.25953 3.36388,-3.353467 3.3014,-7.477607 2.2287,-9.9875 -0.63529,-1.478857 -1.78089,-2.707769 -3.32221,-3.634659 -0.38535,2.801499 -1.22892,5.030201 -2.57239,6.748592 -1.78089,2.270361 -4.3116,3.499271 -7.57135,3.676318 -2.4578,0.135383 -4.8219,-0.458238 -6.65484,-1.66632 -2.16622,-1.437199 -3.43679,-3.624244 -3.57219,-6.175796 -0.26035,-5.030201 3.71799,-8.64403 9.9146,-8.998123 2.19748,-0.124967 4.25954,-0.03125 6.16538,0.291607 -0.24995,-1.541347 -0.76025,-2.770256 -1.52051,-3.665903 -1.04145,-1.218496 -2.6661,-1.843366 -4.8115,-1.85378 h -0.0728 c -1.7288,0 -4.06165,0.479067 -5.5509,2.739012 l -3.58261,-2.457822 c 1.9996,-3.030617 5.2385,-4.696936 9.14394,-4.696936 h 0.0833 c 6.51947,0.04165 10.40408,4.113726 10.79983,11.216412 l -0.0208,0.02083 z m -16.24661,7.165172 c 0.13534,2.614038 2.95772,3.832535 5.68632,3.676318 2.66612,-0.1458 5.68631,-1.187253 6.19662,-7.623412 -1.37471,-0.30202 -2.89522,-0.458237 -4.51989,-0.458237 -0.49988,0 -0.99978,0.01033 -1.49968,0.04167 -4.46782,0.249946 -5.95708,2.416163 -5.85295,4.353259 z"
       id="path442"
       style="fill:url(#linearGradient21);stroke-width:0;stroke-dasharray:none" />
  </g>
</svg>
