<?xml version="1.0" encoding="UTF-8" standalone="no"?>
<!-- Created with Inkscape (http://www.inkscape.org/) -->

<svg
   width="64"
   height="63.999996"
   viewBox="0 0 64 63.999999"
   version="1.1"
   id="svg1"
   xmlns="http://www.w3.org/2000/svg"
   xmlns:svg="http://www.w3.org/2000/svg">
  <defs
     id="defs1">
    <linearGradient
       id="swatch19"
       gradientTransform="matrix(0.90030365,0,0,0.90030365,405.6182,43.458673)">
      <stop
         style="stop-color:#000000;stop-opacity:1;"
         offset="0"
         id="stop19" />
    </linearGradient>
  </defs>
  <g
     id="layer1"
     transform="translate(-1036)">
    <path
       d="m 1072.0915,47.859383 c -0.8399,-0.488284 -1.4059,-1.15235 -1.7184,-1.972667 -0.3125,-0.820317 -0.4691,-2.675784 -0.4691,-5.585934 v -12.8125 h 11.8555 V 19.636715 H 1069.904 V 6.999998 h -7.1094 c -0.3125,2.578134 -0.8983,4.707034 -1.7575,6.367184 -0.8398,1.6797 -1.973,3.105467 -3.3788,4.296883 -1.4067,1.1914 -3.086,2.109367 -5.0587,2.7539 v 7.070317 h 5.527 v 17.539067 c 0,2.28515 0.2344,4.023434 0.723,5.234367 0.4689,1.210933 1.3477,2.34375 2.5782,3.417967 1.2305,1.074216 2.7343,1.894533 4.4922,2.46095 1.7578,0.5664 3.7695,0.859366 6.0546,0.859366 2.0117,0 3.8867,-0.195316 5.625,-0.605466 1.7383,-0.41015 3.6719,-1.113284 5.8008,-2.109384 v -7.890616 c -2.461,1.640616 -4.9804,2.460933 -7.5195,2.460933 -1.4259,0 -2.6954,-0.332033 -3.7894,-0.996083 z"
       id="path2-93"
       style="stroke-width:1.5625" />
  </g>
</svg>
