<?xml version="1.0" encoding="UTF-8" standalone="no"?>
<!-- Created with Inkscape (http://www.inkscape.org/) -->

<svg
   width="64"
   height="63.999996"
   viewBox="0 0 64 63.999999"
   version="1.1"
   id="svg1"
   xmlns="http://www.w3.org/2000/svg"
   xmlns:svg="http://www.w3.org/2000/svg">
  <defs
     id="defs1">
    <linearGradient
       id="swatch19"
       gradientTransform="matrix(0.90030365,0,0,0.90030365,363.26464,43.458673)">
      <stop
         style="stop-color:#000000;stop-opacity:1;"
         offset="0"
         id="stop19" />
    </linearGradient>
  </defs>
  <g
     id="layer1"
     transform="translate(-1036)">
    <path
       d="m 1071.6823,46.273445 c -0.7559,-0.439456 -1.2653,-1.037115 -1.5466,-1.775401 -0.2812,-0.738285 -0.4221,-2.408205 -0.4221,-5.02734 v -11.53125 h 10.6699 v -7.06641 h -10.6699 V 9.4999985 h -6.3985 c -0.2813,2.3203205 -0.8085,4.2363305 -1.5818,5.7304655 -0.7558,1.51173 -1.7757,2.794921 -3.0409,3.867195 -1.266,1.07226 -2.7774,1.89843 -4.5528,2.47851 v 6.363285 h 4.9744 v 15.78516 c 0,2.056635 0.211,3.621091 0.6506,4.71093 0.422,1.08984 1.2129,2.109375 2.3205,3.076171 1.1074,0.966794 2.4608,1.705079 4.0429,2.214855 1.5821,0.509759 3.3925,0.773429 5.4491,0.773429 1.8105,0 3.498,-0.175785 5.0625,-0.544919 1.5645,-0.369135 3.3047,-1.001956 5.2208,-1.898446 V 44.95508 c -2.2149,1.476554 -4.4823,2.214839 -6.7675,2.214839 -1.2833,0 -2.4259,-0.298829 -3.4106,-0.896474 z"
       id="path2-93"
       style="stroke-width:1.5625" />
  </g>
</svg>
