<?xml version="1.0" encoding="UTF-8" standalone="no"?>
<!-- Created with Inkscape (http://www.inkscape.org/) -->

<svg
   width="64"
   height="63.999996"
   viewBox="0 0 64 63.999999"
   version="1.1"
   id="svg1"
   xmlns:xlink="http://www.w3.org/1999/xlink"
   xmlns="http://www.w3.org/2000/svg"
   xmlns:svg="http://www.w3.org/2000/svg">
  <defs
     id="defs1">
    <linearGradient
       id="swatch19"
       gradientTransform="matrix(0.90030365,0,0,0.90030365,363.26464,43.458673)">
      <stop
         style="stop-color:#000000;stop-opacity:1;"
         offset="0"
         id="stop19" />
    </linearGradient>
    <linearGradient
       xlink:href="#swatch19"
       id="linearGradient26"
       x1="535"
       y1="31.999998"
       x2="565"
       y2="31.999998"
       gradientUnits="userSpaceOnUse"
       gradientTransform="matrix(1.4999997,0,0,1.4999997,-274.99985,-15.99999)" />
  </defs>
  <g
     id="layer1"
     transform="translate(-518)">
    <path
       d="M 571.56079,21.133101 C 571.04174,19.18052 569.51758,17.648115 567.58146,17.129072 564.07177,16.181619 550,16.181619 550,16.181619 c 0,0 -14.07177,0 -17.58147,0.947453 -1.93611,0.519043 -3.46027,2.051448 -3.9793,4.004029 C 527.5,24.667521 527.5,32.032954 527.5,32.032954 c 0,0 0,7.365433 0.93923,10.899852 0.51903,1.952581 2.04319,3.419077 3.9793,3.938117 3.5097,0.947455 17.58147,0.947455 17.58147,0.947455 0,0 14.07178,0 17.58146,-0.947455 1.93612,-0.51904 3.46028,-1.993775 3.97933,-3.938117 C 572.5,39.398387 572.5,32.032954 572.5,32.032954 c 0,0 0,-7.365433 -0.93921,-10.899853 z m -26.158,17.58971 V 25.343097 l 11.75669,6.689857 z"
       id="path2-9"
       style="fill:url(#linearGradient26);stroke-width:0;stroke-dasharray:none" />
  </g>
</svg>
